G04 #@! TF.GenerationSoftware,KiCad,Pcbnew,(5.1.7)-1*
G04 #@! TF.CreationDate,2021-10-09T11:46:55+02:00*
G04 #@! TF.ProjectId,20210211_eduino,32303231-3032-4313-915f-656475696e6f,v1.0*
G04 #@! TF.SameCoordinates,Original*
G04 #@! TF.FileFunction,Soldermask,Top*
G04 #@! TF.FilePolarity,Negative*
%FSLAX46Y46*%
G04 Gerber Fmt 4.6, Leading zero omitted, Abs format (unit mm)*
G04 Created by KiCad (PCBNEW (5.1.7)-1) date 2021-10-09 11:46:56*
%MOMM*%
%LPD*%
G01*
G04 APERTURE LIST*
%ADD10O,1.575000X3.150000*%
%ADD11C,1.250000*%
%ADD12C,1.508000*%
%ADD13R,1.508000X1.508000*%
%ADD14R,0.350000X2.000000*%
%ADD15R,1.000000X1.250000*%
%ADD16R,0.800000X0.800000*%
%ADD17R,0.500000X0.900000*%
%ADD18C,0.400000*%
%ADD19R,2.000000X2.000000*%
G04 APERTURE END LIST*
D10*
X145908000Y-82042000D03*
X134508000Y-82042000D03*
D11*
X137958000Y-82042000D03*
X142458000Y-82042000D03*
D12*
X136708000Y-79942000D03*
X139208000Y-79942000D03*
X141208000Y-79942000D03*
D13*
X143708000Y-79942000D03*
D14*
X139508000Y-57404000D03*
X140208000Y-57404000D03*
X140908000Y-57404000D03*
X141608000Y-57404000D03*
X142308000Y-57404000D03*
X143008000Y-57404000D03*
X143708000Y-57404000D03*
X144408000Y-57404000D03*
X145108000Y-57404000D03*
X145808000Y-57404000D03*
X146508000Y-57404000D03*
X147208000Y-57404000D03*
D15*
X137700000Y-71628000D03*
X139700000Y-71628000D03*
X137700000Y-73660000D03*
X139700000Y-73660000D03*
X139700000Y-75692000D03*
X137700000Y-75692000D03*
X139700000Y-77724000D03*
X137700000Y-77724000D03*
D16*
X141656000Y-75692000D03*
X143256000Y-75692000D03*
D17*
X143256000Y-77724000D03*
X141756000Y-77724000D03*
X141756000Y-73660000D03*
X143256000Y-73660000D03*
X143256000Y-71628000D03*
X141756000Y-71628000D03*
D18*
X142810000Y-48709600D03*
X142048000Y-47896800D03*
X140524000Y-47896800D03*
X139812800Y-48709600D03*
X139812800Y-50182800D03*
X140574800Y-50894000D03*
X142048000Y-50894000D03*
X142810000Y-50182800D03*
X142048000Y-49420800D03*
X140524000Y-49370000D03*
X141286000Y-48709600D03*
X141336800Y-50182800D03*
D19*
X132080000Y-77740000D03*
X132080000Y-71740000D03*
X149225000Y-71740000D03*
X149225000Y-77740000D03*
M02*
