G04 #@! TF.GenerationSoftware,KiCad,Pcbnew,(5.1.7)-1*
G04 #@! TF.CreationDate,2021-10-09T11:46:55+02:00*
G04 #@! TF.ProjectId,20210211_eduino,32303231-3032-4313-915f-656475696e6f,v1.0*
G04 #@! TF.SameCoordinates,Original*
G04 #@! TF.FileFunction,Copper,L1,Top*
G04 #@! TF.FilePolarity,Positive*
%FSLAX46Y46*%
G04 Gerber Fmt 4.6, Leading zero omitted, Abs format (unit mm)*
G04 Created by KiCad (PCBNEW (5.1.7)-1) date 2021-10-09 11:46:55*
%MOMM*%
%LPD*%
G01*
G04 APERTURE LIST*
G04 #@! TA.AperFunction,ComponentPad*
%ADD10O,1.575000X3.150000*%
G04 #@! TD*
G04 #@! TA.AperFunction,ComponentPad*
%ADD11C,1.508000*%
G04 #@! TD*
G04 #@! TA.AperFunction,ComponentPad*
%ADD12R,1.508000X1.508000*%
G04 #@! TD*
G04 #@! TA.AperFunction,SMDPad,CuDef*
%ADD13R,0.350000X2.000000*%
G04 #@! TD*
G04 #@! TA.AperFunction,SMDPad,CuDef*
%ADD14R,1.000000X1.250000*%
G04 #@! TD*
G04 #@! TA.AperFunction,SMDPad,CuDef*
%ADD15R,0.800000X0.800000*%
G04 #@! TD*
G04 #@! TA.AperFunction,SMDPad,CuDef*
%ADD16R,0.500000X0.900000*%
G04 #@! TD*
G04 #@! TA.AperFunction,ComponentPad*
%ADD17C,0.400000*%
G04 #@! TD*
G04 #@! TA.AperFunction,SMDPad,CuDef*
%ADD18R,2.000000X2.000000*%
G04 #@! TD*
G04 #@! TA.AperFunction,ViaPad*
%ADD19C,0.800000*%
G04 #@! TD*
G04 #@! TA.AperFunction,Conductor*
%ADD20C,0.250000*%
G04 #@! TD*
G04 #@! TA.AperFunction,Conductor*
%ADD21C,0.254000*%
G04 #@! TD*
G04 #@! TA.AperFunction,Conductor*
%ADD22C,0.100000*%
G04 #@! TD*
G04 APERTURE END LIST*
D10*
X145908000Y-82042000D03*
X134508000Y-82042000D03*
D11*
X136708000Y-79942000D03*
X139208000Y-79942000D03*
X141208000Y-79942000D03*
D12*
X143708000Y-79942000D03*
D13*
X139508000Y-57404000D03*
X140208000Y-57404000D03*
X140908000Y-57404000D03*
X141608000Y-57404000D03*
X142308000Y-57404000D03*
X143008000Y-57404000D03*
X143708000Y-57404000D03*
X144408000Y-57404000D03*
X145108000Y-57404000D03*
X145808000Y-57404000D03*
X146508000Y-57404000D03*
X147208000Y-57404000D03*
D14*
X137700000Y-71628000D03*
X139700000Y-71628000D03*
X137700000Y-73660000D03*
X139700000Y-73660000D03*
X139700000Y-75692000D03*
X137700000Y-75692000D03*
X139700000Y-77724000D03*
X137700000Y-77724000D03*
D15*
X141656000Y-75692000D03*
X143256000Y-75692000D03*
D16*
X143256000Y-77724000D03*
X141756000Y-77724000D03*
X141756000Y-73660000D03*
X143256000Y-73660000D03*
X143256000Y-71628000D03*
X141756000Y-71628000D03*
D17*
X142810000Y-48709600D03*
X142048000Y-47896800D03*
X140524000Y-47896800D03*
X139812800Y-48709600D03*
X139812800Y-50182800D03*
X140574800Y-50894000D03*
X142048000Y-50894000D03*
X142810000Y-50182800D03*
X142048000Y-49420800D03*
X140524000Y-49370000D03*
X141286000Y-48709600D03*
X141336800Y-50182800D03*
D18*
X132080000Y-77740000D03*
X132080000Y-71740000D03*
X149225000Y-71740000D03*
X149225000Y-77740000D03*
D19*
X134416800Y-69596000D03*
X150745000Y-43217900D03*
X152806400Y-74117200D03*
X139700000Y-77212500D03*
X138800002Y-71699188D03*
X140282803Y-73483597D03*
X141655800Y-74710002D03*
X145948400Y-54076600D03*
X142846984Y-50981947D03*
X143789400Y-53238400D03*
X144830800Y-44221400D03*
X134848600Y-51816000D03*
X134848600Y-52781200D03*
X134874000Y-53797200D03*
X134874000Y-54914800D03*
X142051400Y-78846600D03*
X136475300Y-77937500D03*
X145987300Y-44915200D03*
X137589997Y-73770003D03*
X140273200Y-69436400D03*
X140258100Y-68090300D03*
X151128600Y-73803500D03*
X150411600Y-45584800D03*
X139744500Y-59078000D03*
X142619200Y-59414500D03*
X140755600Y-59223300D03*
X143505800Y-61853500D03*
X144664600Y-63290800D03*
X146630100Y-46073500D03*
X150926100Y-49022900D03*
X147457400Y-47287600D03*
X150638600Y-47041800D03*
X137897400Y-69751800D03*
X140273900Y-67035500D03*
X149150500Y-73569500D03*
D20*
X150745000Y-43217900D02*
X152146000Y-44618900D01*
X152146000Y-44618900D02*
X152146000Y-73833900D01*
X152146000Y-73833900D02*
X150354300Y-75625600D01*
X150354300Y-75625600D02*
X147164300Y-75625600D01*
X147164300Y-75625600D02*
X143708000Y-79081900D01*
X143708000Y-79081900D02*
X139766400Y-83023500D01*
X139766400Y-83023500D02*
X137542800Y-83023500D01*
X137542800Y-83023500D02*
X135625600Y-81106300D01*
X135625600Y-81106300D02*
X135625600Y-72877100D01*
X135625600Y-72877100D02*
X136874700Y-71628000D01*
X143708000Y-79942000D02*
X143708000Y-79081900D01*
X137700000Y-71628000D02*
X136874700Y-71628000D01*
X139700000Y-77724000D02*
X139700000Y-75692000D01*
X139700000Y-77724000D02*
X139700000Y-77212500D01*
X139700000Y-75692000D02*
X139700000Y-73660000D01*
X138871190Y-71628000D02*
X138800002Y-71699188D01*
X139700000Y-71628000D02*
X138871190Y-71628000D01*
X141655800Y-75691800D02*
X141656000Y-75692000D01*
X141655800Y-74710002D02*
X141655800Y-75691800D01*
X139508000Y-57404000D02*
X139508000Y-54040000D01*
X139508000Y-54040000D02*
X139776200Y-53771800D01*
X143708000Y-54325400D02*
X143708000Y-57404000D01*
X143154400Y-53771800D02*
X143708000Y-54325400D01*
X144408000Y-57404000D02*
X144408000Y-54771400D01*
X143962000Y-54325400D02*
X143708000Y-54325400D01*
X144408000Y-54771400D02*
X143962000Y-54325400D01*
X147208000Y-57404000D02*
X147208000Y-54929800D01*
X147208000Y-54929800D02*
X147066000Y-54787800D01*
X147066000Y-54787800D02*
X146558000Y-54787800D01*
X146508000Y-54837800D02*
X146508000Y-57404000D01*
X146558000Y-54787800D02*
X146508000Y-54837800D01*
X146558000Y-54686200D02*
X145948400Y-54076600D01*
X146558000Y-54787800D02*
X146558000Y-54686200D01*
X140538200Y-53771800D02*
X140538200Y-53290731D01*
X139776200Y-53771800D02*
X140538200Y-53771800D01*
X140538200Y-53771800D02*
X143154400Y-53771800D01*
X143358365Y-52807365D02*
X143789400Y-53238400D01*
X141021565Y-52807365D02*
X143358365Y-52807365D01*
X140538200Y-53290731D02*
X141021565Y-52807365D01*
X141021565Y-52807365D02*
X142846984Y-50981947D01*
X137700000Y-77724000D02*
X137700000Y-75692000D01*
X137631100Y-77724000D02*
X137700000Y-77724000D01*
X145419200Y-58729300D02*
X145808000Y-58729300D01*
X145108000Y-58729300D02*
X145419200Y-58729300D01*
X142331300Y-77724000D02*
X142381400Y-77673900D01*
X142381400Y-77673900D02*
X142381400Y-75296300D01*
X142381400Y-75296300D02*
X142976700Y-74701000D01*
X142976700Y-74701000D02*
X143443700Y-74701000D01*
X143443700Y-74701000D02*
X145419200Y-72725500D01*
X145419200Y-72725500D02*
X145419200Y-58729300D01*
X142051400Y-78846600D02*
X141756000Y-78551200D01*
X141756000Y-78551200D02*
X141756000Y-77724000D01*
X145108000Y-57404000D02*
X145108000Y-58729300D01*
X145808000Y-57404000D02*
X145808000Y-58729300D01*
X141756000Y-77724000D02*
X142331300Y-77724000D01*
X137631100Y-77724000D02*
X136874700Y-77724000D01*
X136475300Y-77937500D02*
X136661200Y-77937500D01*
X136661200Y-77937500D02*
X136874700Y-77724000D01*
X145108000Y-56078700D02*
X145108000Y-45794500D01*
X145108000Y-45794500D02*
X145987300Y-44915200D01*
X145108000Y-57404000D02*
X145108000Y-56078700D01*
X137700000Y-75692000D02*
X137700000Y-73660000D01*
X143256000Y-77724000D02*
X143256000Y-75692000D01*
X141756000Y-73660000D02*
X141180700Y-73660000D01*
X141180700Y-73660000D02*
X140930600Y-73910100D01*
X140930600Y-73910100D02*
X140930600Y-78219400D01*
X140930600Y-78219400D02*
X139208000Y-79942000D01*
X141756000Y-71628000D02*
X141180700Y-71628000D01*
X141180700Y-71628000D02*
X141180700Y-71771800D01*
X141180700Y-71771800D02*
X140374100Y-72578400D01*
X140374100Y-72578400D02*
X139194600Y-72578400D01*
X139194600Y-72578400D02*
X138874600Y-72898400D01*
X138874600Y-72898400D02*
X138874600Y-78265900D01*
X138874600Y-78265900D02*
X138108200Y-79032300D01*
X138108200Y-79032300D02*
X138108200Y-80402900D01*
X138108200Y-80402900D02*
X138771500Y-81066200D01*
X138771500Y-81066200D02*
X140083800Y-81066200D01*
X140083800Y-81066200D02*
X141208000Y-79942000D01*
X143256000Y-73660000D02*
X142680700Y-73660000D01*
X140273200Y-69436400D02*
X140793800Y-69436400D01*
X140793800Y-69436400D02*
X142680700Y-71323300D01*
X142680700Y-71323300D02*
X142680700Y-73660000D01*
X143256000Y-71628000D02*
X143256000Y-70852700D01*
X140258100Y-68090300D02*
X143020500Y-70852700D01*
X143020500Y-70852700D02*
X143256000Y-70852700D01*
X150411600Y-45584800D02*
X151695400Y-46868600D01*
X151695400Y-46868600D02*
X151695400Y-73236700D01*
X151695400Y-73236700D02*
X151128600Y-73803500D01*
X140208000Y-57404000D02*
X140208000Y-58729300D01*
X139744500Y-59078000D02*
X140093200Y-58729300D01*
X140093200Y-58729300D02*
X140208000Y-58729300D01*
X142619200Y-59414500D02*
X142308000Y-59103300D01*
X142308000Y-59103300D02*
X142308000Y-57404000D01*
X140755600Y-59223300D02*
X140908000Y-59070900D01*
X140908000Y-59070900D02*
X140908000Y-57404000D01*
X143505800Y-61853500D02*
X141608000Y-59955700D01*
X141608000Y-59955700D02*
X141608000Y-57404000D01*
X143008000Y-57404000D02*
X143008000Y-58729300D01*
X144664600Y-63290800D02*
X144664600Y-60385900D01*
X144664600Y-60385900D02*
X143008000Y-58729300D01*
X150926100Y-49022900D02*
X148158700Y-49022900D01*
X148158700Y-49022900D02*
X146630100Y-47494300D01*
X146630100Y-47494300D02*
X146630100Y-46073500D01*
X150638600Y-47041800D02*
X147703200Y-47041800D01*
X147703200Y-47041800D02*
X147457400Y-47287600D01*
X133405300Y-71740000D02*
X135393500Y-69751800D01*
X135393500Y-69751800D02*
X137897400Y-69751800D01*
X140273900Y-67035500D02*
X137897400Y-69412000D01*
X137897400Y-69412000D02*
X137897400Y-69751800D01*
X132080000Y-71740000D02*
X133405300Y-71740000D01*
X149225000Y-71740000D02*
X149225000Y-73065300D01*
X149225000Y-73065300D02*
X149150500Y-73139800D01*
X149150500Y-73139800D02*
X149150500Y-73569500D01*
D21*
X153118001Y-75601391D02*
X153118000Y-79331000D01*
X150464242Y-79331000D01*
X150469180Y-79329502D01*
X150579494Y-79270537D01*
X150676185Y-79191185D01*
X150755537Y-79094494D01*
X150814502Y-78984180D01*
X150850812Y-78864482D01*
X150863072Y-78740000D01*
X150860000Y-78025750D01*
X150701250Y-77867000D01*
X149352000Y-77867000D01*
X149352000Y-77887000D01*
X149098000Y-77887000D01*
X149098000Y-77867000D01*
X147748750Y-77867000D01*
X147590000Y-78025750D01*
X147586928Y-78740000D01*
X147599188Y-78864482D01*
X147635498Y-78984180D01*
X147694463Y-79094494D01*
X147773815Y-79191185D01*
X147870506Y-79270537D01*
X147980820Y-79329502D01*
X147985758Y-79331000D01*
X147093108Y-79331000D01*
X147066000Y-79328330D01*
X147038891Y-79331000D01*
X146957789Y-79338988D01*
X146853737Y-79370552D01*
X146757842Y-79421809D01*
X146673789Y-79490789D01*
X146604809Y-79574842D01*
X146553552Y-79670737D01*
X146521988Y-79774789D01*
X146511330Y-79883000D01*
X146514000Y-79910108D01*
X146514000Y-79967733D01*
X146335034Y-79891681D01*
X146255076Y-79874992D01*
X146035000Y-79997148D01*
X146035000Y-81915000D01*
X146055000Y-81915000D01*
X146055000Y-82169000D01*
X146035000Y-82169000D01*
X146035000Y-84086852D01*
X146255076Y-84209008D01*
X146335034Y-84192319D01*
X146514001Y-84116267D01*
X146514001Y-84284000D01*
X133902000Y-84284000D01*
X133902000Y-84116267D01*
X134080966Y-84192319D01*
X134160924Y-84209008D01*
X134381000Y-84086852D01*
X134381000Y-82169000D01*
X134361000Y-82169000D01*
X134361000Y-81915000D01*
X134381000Y-81915000D01*
X134381000Y-79997148D01*
X134160924Y-79874992D01*
X134080966Y-79891681D01*
X133902000Y-79967733D01*
X133902000Y-79910108D01*
X133904670Y-79883000D01*
X133894012Y-79774789D01*
X133862448Y-79670737D01*
X133811191Y-79574842D01*
X133742211Y-79490789D01*
X133658158Y-79421809D01*
X133562263Y-79370552D01*
X133458211Y-79338988D01*
X133377109Y-79331000D01*
X133377108Y-79331000D01*
X133350000Y-79328330D01*
X133322891Y-79331000D01*
X133319242Y-79331000D01*
X133324180Y-79329502D01*
X133434494Y-79270537D01*
X133531185Y-79191185D01*
X133610537Y-79094494D01*
X133669502Y-78984180D01*
X133705812Y-78864482D01*
X133718072Y-78740000D01*
X133715000Y-78025750D01*
X133556250Y-77867000D01*
X132207000Y-77867000D01*
X132207000Y-77887000D01*
X131953000Y-77887000D01*
X131953000Y-77867000D01*
X130603750Y-77867000D01*
X130445000Y-78025750D01*
X130441928Y-78740000D01*
X130454188Y-78864482D01*
X130490498Y-78984180D01*
X130549463Y-79094494D01*
X130628815Y-79191185D01*
X130725506Y-79270537D01*
X130835820Y-79329502D01*
X130840758Y-79331000D01*
X128060000Y-79331000D01*
X128060000Y-76740000D01*
X130441928Y-76740000D01*
X130445000Y-77454250D01*
X130603750Y-77613000D01*
X131953000Y-77613000D01*
X131953000Y-76263750D01*
X132207000Y-76263750D01*
X132207000Y-77613000D01*
X133556250Y-77613000D01*
X133715000Y-77454250D01*
X133718072Y-76740000D01*
X133705812Y-76615518D01*
X133669502Y-76495820D01*
X133610537Y-76385506D01*
X133531185Y-76288815D01*
X133434494Y-76209463D01*
X133324180Y-76150498D01*
X133204482Y-76114188D01*
X133080000Y-76101928D01*
X132365750Y-76105000D01*
X132207000Y-76263750D01*
X131953000Y-76263750D01*
X131794250Y-76105000D01*
X131080000Y-76101928D01*
X130955518Y-76114188D01*
X130835820Y-76150498D01*
X130725506Y-76209463D01*
X130628815Y-76288815D01*
X130549463Y-76385506D01*
X130490498Y-76495820D01*
X130454188Y-76615518D01*
X130441928Y-76740000D01*
X128060000Y-76740000D01*
X128060000Y-70740000D01*
X130550451Y-70740000D01*
X130550451Y-72740000D01*
X130560626Y-72843310D01*
X130590761Y-72942650D01*
X130639696Y-73034202D01*
X130705552Y-73114448D01*
X130785798Y-73180304D01*
X130877350Y-73229239D01*
X130976690Y-73259374D01*
X131080000Y-73269549D01*
X133080000Y-73269549D01*
X133183310Y-73259374D01*
X133282650Y-73229239D01*
X133374202Y-73180304D01*
X133454448Y-73114448D01*
X133520304Y-73034202D01*
X133569239Y-72942650D01*
X133599374Y-72843310D01*
X133609549Y-72740000D01*
X133609549Y-72359379D01*
X133656017Y-72345283D01*
X133769284Y-72284741D01*
X133868564Y-72203264D01*
X133888985Y-72178381D01*
X135663567Y-70403800D01*
X137238424Y-70403800D01*
X137306472Y-70471848D01*
X137308871Y-70473451D01*
X137200000Y-70473451D01*
X137096690Y-70483626D01*
X136997350Y-70513761D01*
X136905798Y-70562696D01*
X136825552Y-70628552D01*
X136759696Y-70708798D01*
X136710761Y-70800350D01*
X136680626Y-70899690D01*
X136670451Y-71003000D01*
X136670451Y-71008621D01*
X136623983Y-71022717D01*
X136510716Y-71083259D01*
X136411436Y-71164736D01*
X136391020Y-71189613D01*
X135187214Y-72393420D01*
X135162337Y-72413836D01*
X135080860Y-72513116D01*
X135069421Y-72534517D01*
X135020317Y-72626384D01*
X134983035Y-72749286D01*
X134970446Y-72877100D01*
X134973601Y-72909132D01*
X134973600Y-79908070D01*
X134935034Y-79891681D01*
X134855076Y-79874992D01*
X134635000Y-79997148D01*
X134635000Y-81915000D01*
X134655000Y-81915000D01*
X134655000Y-82169000D01*
X134635000Y-82169000D01*
X134635000Y-84086852D01*
X134855076Y-84209008D01*
X134935034Y-84192319D01*
X135192702Y-84082823D01*
X135424057Y-83925162D01*
X135620208Y-83725395D01*
X135773618Y-83491200D01*
X135878391Y-83231576D01*
X135930500Y-82956500D01*
X135930500Y-82333266D01*
X137059120Y-83461887D01*
X137079536Y-83486764D01*
X137178816Y-83568241D01*
X137292083Y-83628783D01*
X137414985Y-83666065D01*
X137542799Y-83678654D01*
X137574821Y-83675500D01*
X139734378Y-83675500D01*
X139766400Y-83678654D01*
X139798422Y-83675500D01*
X139894214Y-83666065D01*
X140017117Y-83628783D01*
X140130384Y-83568241D01*
X140229664Y-83486764D01*
X140250085Y-83461881D01*
X141347562Y-82364405D01*
X141350271Y-82378026D01*
X141437111Y-82587677D01*
X141563183Y-82776357D01*
X141723643Y-82936817D01*
X141912323Y-83062889D01*
X142121974Y-83149729D01*
X142344538Y-83194000D01*
X142571462Y-83194000D01*
X142794026Y-83149729D01*
X143003677Y-83062889D01*
X143192357Y-82936817D01*
X143352817Y-82776357D01*
X143478889Y-82587677D01*
X143565729Y-82378026D01*
X143607307Y-82169000D01*
X144485500Y-82169000D01*
X144485500Y-82956500D01*
X144537609Y-83231576D01*
X144642382Y-83491200D01*
X144795792Y-83725395D01*
X144991943Y-83925162D01*
X145223298Y-84082823D01*
X145480966Y-84192319D01*
X145560924Y-84209008D01*
X145781000Y-84086852D01*
X145781000Y-82169000D01*
X144485500Y-82169000D01*
X143607307Y-82169000D01*
X143610000Y-82155462D01*
X143610000Y-81928538D01*
X143565729Y-81705974D01*
X143478889Y-81496323D01*
X143352817Y-81307643D01*
X143270723Y-81225549D01*
X144462000Y-81225549D01*
X144485500Y-81223234D01*
X144485500Y-81915000D01*
X145781000Y-81915000D01*
X145781000Y-79997148D01*
X145560924Y-79874992D01*
X145480966Y-79891681D01*
X145223298Y-80001177D01*
X144991943Y-80158838D01*
X144991549Y-80159239D01*
X144991549Y-79188000D01*
X144981374Y-79084690D01*
X144951239Y-78985350D01*
X144902304Y-78893798D01*
X144864379Y-78847587D01*
X147434367Y-76277600D01*
X147787481Y-76277600D01*
X147773815Y-76288815D01*
X147694463Y-76385506D01*
X147635498Y-76495820D01*
X147599188Y-76615518D01*
X147586928Y-76740000D01*
X147590000Y-77454250D01*
X147748750Y-77613000D01*
X149098000Y-77613000D01*
X149098000Y-77593000D01*
X149352000Y-77593000D01*
X149352000Y-77613000D01*
X150701250Y-77613000D01*
X150860000Y-77454250D01*
X150863072Y-76740000D01*
X150850812Y-76615518D01*
X150814502Y-76495820D01*
X150755537Y-76385506D01*
X150676185Y-76288815D01*
X150605367Y-76230696D01*
X150718284Y-76170341D01*
X150817564Y-76088864D01*
X150837985Y-76063981D01*
X152584387Y-74317580D01*
X152609264Y-74297164D01*
X152690741Y-74197884D01*
X152751283Y-74084617D01*
X152788565Y-73961714D01*
X152798000Y-73865922D01*
X152798000Y-73865915D01*
X152801153Y-73833901D01*
X152798000Y-73801886D01*
X152798000Y-44650921D01*
X152801154Y-44618899D01*
X152788565Y-44491085D01*
X152751283Y-44368183D01*
X152693483Y-44260046D01*
X152690741Y-44254916D01*
X152609264Y-44155636D01*
X152584388Y-44135221D01*
X151672000Y-43222834D01*
X151672000Y-43126599D01*
X151636376Y-42947504D01*
X151566496Y-42778801D01*
X151465048Y-42626972D01*
X151335928Y-42497852D01*
X151184099Y-42396404D01*
X151015396Y-42326524D01*
X150836301Y-42290900D01*
X150653699Y-42290900D01*
X150474604Y-42326524D01*
X150305901Y-42396404D01*
X150154072Y-42497852D01*
X150024952Y-42626972D01*
X149923504Y-42778801D01*
X149853624Y-42947504D01*
X149818000Y-43126599D01*
X149818000Y-43309201D01*
X149853624Y-43488296D01*
X149923504Y-43656999D01*
X150024952Y-43808828D01*
X150154072Y-43937948D01*
X150305901Y-44039396D01*
X150474604Y-44109276D01*
X150653699Y-44144900D01*
X150749934Y-44144900D01*
X151494000Y-44888967D01*
X151494000Y-45745134D01*
X151338600Y-45589734D01*
X151338600Y-45493499D01*
X151302976Y-45314404D01*
X151233096Y-45145701D01*
X151131648Y-44993872D01*
X151002528Y-44864752D01*
X150850699Y-44763304D01*
X150681996Y-44693424D01*
X150502901Y-44657800D01*
X150320299Y-44657800D01*
X150141204Y-44693424D01*
X149972501Y-44763304D01*
X149820672Y-44864752D01*
X149691552Y-44993872D01*
X149590104Y-45145701D01*
X149520224Y-45314404D01*
X149484600Y-45493499D01*
X149484600Y-45676101D01*
X149520224Y-45855196D01*
X149590104Y-46023899D01*
X149691552Y-46175728D01*
X149820672Y-46304848D01*
X149947813Y-46389800D01*
X147735222Y-46389800D01*
X147703200Y-46386646D01*
X147687445Y-46388198D01*
X147548701Y-46360600D01*
X147514557Y-46360600D01*
X147521476Y-46343896D01*
X147557100Y-46164801D01*
X147557100Y-45982199D01*
X147521476Y-45803104D01*
X147451596Y-45634401D01*
X147350148Y-45482572D01*
X147221028Y-45353452D01*
X147069199Y-45252004D01*
X146900496Y-45182124D01*
X146880171Y-45178081D01*
X146914300Y-45006501D01*
X146914300Y-44823899D01*
X146878676Y-44644804D01*
X146808796Y-44476101D01*
X146707348Y-44324272D01*
X146578228Y-44195152D01*
X146426399Y-44093704D01*
X146257696Y-44023824D01*
X146078601Y-43988200D01*
X145895999Y-43988200D01*
X145716904Y-44023824D01*
X145548201Y-44093704D01*
X145396372Y-44195152D01*
X145267252Y-44324272D01*
X145165804Y-44476101D01*
X145095924Y-44644804D01*
X145060300Y-44823899D01*
X145060300Y-44920134D01*
X144669614Y-45310820D01*
X144644737Y-45331236D01*
X144563260Y-45430516D01*
X144549112Y-45456986D01*
X144502717Y-45543784D01*
X144465435Y-45666686D01*
X144452846Y-45794500D01*
X144456001Y-45826532D01*
X144456000Y-55927750D01*
X144456000Y-56129568D01*
X144417770Y-56055924D01*
X144360000Y-55983776D01*
X144360000Y-55927750D01*
X144201250Y-55769000D01*
X144100987Y-55779734D01*
X144058000Y-55793342D01*
X144015013Y-55779734D01*
X143914750Y-55769000D01*
X143756000Y-55927750D01*
X143756000Y-55983776D01*
X143698230Y-56055924D01*
X143660000Y-56129568D01*
X143660000Y-55927750D01*
X143501250Y-55769000D01*
X143400987Y-55779734D01*
X143281736Y-55817483D01*
X143178177Y-55874451D01*
X142833000Y-55874451D01*
X142729690Y-55884626D01*
X142658000Y-55906373D01*
X142586310Y-55884626D01*
X142483000Y-55874451D01*
X142133000Y-55874451D01*
X142029690Y-55884626D01*
X141958000Y-55906373D01*
X141886310Y-55884626D01*
X141783000Y-55874451D01*
X141433000Y-55874451D01*
X141329690Y-55884626D01*
X141258000Y-55906373D01*
X141186310Y-55884626D01*
X141083000Y-55874451D01*
X140733000Y-55874451D01*
X140629690Y-55884626D01*
X140558000Y-55906373D01*
X140486310Y-55884626D01*
X140383000Y-55874451D01*
X140037823Y-55874451D01*
X139934264Y-55817483D01*
X139815013Y-55779734D01*
X139714750Y-55769000D01*
X139556000Y-55927750D01*
X139556000Y-56178452D01*
X139543761Y-56201350D01*
X139513626Y-56300690D01*
X139503451Y-56404000D01*
X139503451Y-57551000D01*
X139460000Y-57551000D01*
X139460000Y-57531000D01*
X138856750Y-57531000D01*
X138698000Y-57689750D01*
X138694974Y-58396312D01*
X138705734Y-58520933D01*
X138740599Y-58641059D01*
X138798230Y-58752076D01*
X138851048Y-58818040D01*
X138817500Y-58986699D01*
X138817500Y-59169301D01*
X138853124Y-59348396D01*
X138923004Y-59517099D01*
X139024452Y-59668928D01*
X139153572Y-59798048D01*
X139305401Y-59899496D01*
X139474104Y-59969376D01*
X139653199Y-60005000D01*
X139835801Y-60005000D01*
X140014896Y-59969376D01*
X140139208Y-59917884D01*
X140164672Y-59943348D01*
X140316501Y-60044796D01*
X140485204Y-60114676D01*
X140664299Y-60150300D01*
X140846901Y-60150300D01*
X140977796Y-60124263D01*
X141002717Y-60206416D01*
X141063259Y-60319683D01*
X141144736Y-60418964D01*
X141169618Y-60439385D01*
X142578800Y-61848567D01*
X142578800Y-61944801D01*
X142614424Y-62123896D01*
X142684304Y-62292599D01*
X142785752Y-62444428D01*
X142914872Y-62573548D01*
X143066701Y-62674996D01*
X143235404Y-62744876D01*
X143414499Y-62780500D01*
X143597101Y-62780500D01*
X143776196Y-62744876D01*
X143944899Y-62674996D01*
X144012600Y-62629760D01*
X144012600Y-62631824D01*
X143944552Y-62699872D01*
X143843104Y-62851701D01*
X143773224Y-63020404D01*
X143737600Y-63199499D01*
X143737600Y-63382101D01*
X143773224Y-63561196D01*
X143843104Y-63729899D01*
X143944552Y-63881728D01*
X144073672Y-64010848D01*
X144225501Y-64112296D01*
X144394204Y-64182176D01*
X144573299Y-64217800D01*
X144755901Y-64217800D01*
X144767201Y-64215552D01*
X144767200Y-72455433D01*
X144033494Y-73189139D01*
X144025374Y-73106690D01*
X143995239Y-73007350D01*
X143946304Y-72915798D01*
X143880448Y-72835552D01*
X143800202Y-72769696D01*
X143708650Y-72720761D01*
X143609310Y-72690626D01*
X143506000Y-72680451D01*
X143332700Y-72680451D01*
X143332700Y-72607549D01*
X143506000Y-72607549D01*
X143609310Y-72597374D01*
X143708650Y-72567239D01*
X143800202Y-72518304D01*
X143880448Y-72452448D01*
X143946304Y-72372202D01*
X143995239Y-72280650D01*
X144025374Y-72181310D01*
X144035549Y-72078000D01*
X144035549Y-71178000D01*
X144025374Y-71074690D01*
X143995239Y-70975350D01*
X143946304Y-70883798D01*
X143909841Y-70839367D01*
X143898565Y-70724886D01*
X143861283Y-70601983D01*
X143800741Y-70488716D01*
X143719264Y-70389436D01*
X143619984Y-70307959D01*
X143506717Y-70247417D01*
X143383814Y-70210135D01*
X143290845Y-70200978D01*
X141185100Y-68095234D01*
X141185100Y-67998999D01*
X141149476Y-67819904D01*
X141079596Y-67651201D01*
X141028496Y-67574723D01*
X141095396Y-67474599D01*
X141165276Y-67305896D01*
X141200900Y-67126801D01*
X141200900Y-66944199D01*
X141165276Y-66765104D01*
X141095396Y-66596401D01*
X140993948Y-66444572D01*
X140864828Y-66315452D01*
X140712999Y-66214004D01*
X140544296Y-66144124D01*
X140365201Y-66108500D01*
X140182599Y-66108500D01*
X140003504Y-66144124D01*
X139834801Y-66214004D01*
X139682972Y-66315452D01*
X139553852Y-66444572D01*
X139452404Y-66596401D01*
X139382524Y-66765104D01*
X139346900Y-66944199D01*
X139346900Y-67040433D01*
X137459019Y-68928315D01*
X137449123Y-68936437D01*
X137306472Y-69031752D01*
X137238424Y-69099800D01*
X135425514Y-69099800D01*
X135393499Y-69096647D01*
X135361485Y-69099800D01*
X135361478Y-69099800D01*
X135278327Y-69107990D01*
X135265685Y-69109235D01*
X135142783Y-69146517D01*
X135029516Y-69207059D01*
X134930236Y-69288536D01*
X134909820Y-69313413D01*
X133596388Y-70626846D01*
X133569239Y-70537350D01*
X133520304Y-70445798D01*
X133454448Y-70365552D01*
X133374202Y-70299696D01*
X133282650Y-70250761D01*
X133183310Y-70220626D01*
X133080000Y-70210451D01*
X131080000Y-70210451D01*
X130976690Y-70220626D01*
X130877350Y-70250761D01*
X130785798Y-70299696D01*
X130705552Y-70365552D01*
X130639696Y-70445798D01*
X130590761Y-70537350D01*
X130560626Y-70636690D01*
X130550451Y-70740000D01*
X128060000Y-70740000D01*
X128060000Y-56411688D01*
X138694974Y-56411688D01*
X138698000Y-57118250D01*
X138856750Y-57277000D01*
X139460000Y-57277000D01*
X139460000Y-55927750D01*
X139301250Y-55769000D01*
X139200987Y-55779734D01*
X139081736Y-55817483D01*
X138972140Y-55877772D01*
X138876412Y-55958284D01*
X138798230Y-56055924D01*
X138740599Y-56166941D01*
X138705734Y-56287067D01*
X138694974Y-56411688D01*
X128060000Y-56411688D01*
X128060000Y-48637997D01*
X139085800Y-48637997D01*
X139085800Y-48781203D01*
X139113738Y-48921658D01*
X139168541Y-49053964D01*
X139248102Y-49173036D01*
X139349364Y-49274298D01*
X139468436Y-49353859D01*
X139600742Y-49408662D01*
X139741197Y-49436600D01*
X139797000Y-49436600D01*
X139797000Y-49441603D01*
X139799824Y-49455800D01*
X139741197Y-49455800D01*
X139600742Y-49483738D01*
X139468436Y-49538541D01*
X139349364Y-49618102D01*
X139248102Y-49719364D01*
X139168541Y-49838436D01*
X139113738Y-49970742D01*
X139085800Y-50111197D01*
X139085800Y-50254403D01*
X139113738Y-50394858D01*
X139168541Y-50527164D01*
X139248102Y-50646236D01*
X139349364Y-50747498D01*
X139468436Y-50827059D01*
X139600742Y-50881862D01*
X139741197Y-50909800D01*
X139847800Y-50909800D01*
X139847800Y-50965603D01*
X139875738Y-51106058D01*
X139930541Y-51238364D01*
X140010102Y-51357436D01*
X140111364Y-51458698D01*
X140230436Y-51538259D01*
X140362742Y-51593062D01*
X140503197Y-51621000D01*
X140646403Y-51621000D01*
X140786858Y-51593062D01*
X140919164Y-51538259D01*
X141038236Y-51458698D01*
X141139498Y-51357436D01*
X141219059Y-51238364D01*
X141273862Y-51106058D01*
X141301800Y-50965603D01*
X141301800Y-50909800D01*
X141321000Y-50909800D01*
X141321000Y-50965603D01*
X141348938Y-51106058D01*
X141403741Y-51238364D01*
X141483302Y-51357436D01*
X141584564Y-51458698D01*
X141703636Y-51538259D01*
X141835942Y-51593062D01*
X141976397Y-51621000D01*
X142119603Y-51621000D01*
X142260058Y-51593062D01*
X142392364Y-51538259D01*
X142511436Y-51458698D01*
X142612698Y-51357436D01*
X142692259Y-51238364D01*
X142747062Y-51106058D01*
X142775000Y-50965603D01*
X142775000Y-50909800D01*
X142881603Y-50909800D01*
X143022058Y-50881862D01*
X143154364Y-50827059D01*
X143273436Y-50747498D01*
X143374698Y-50646236D01*
X143454259Y-50527164D01*
X143509062Y-50394858D01*
X143537000Y-50254403D01*
X143537000Y-50111197D01*
X143509062Y-49970742D01*
X143454259Y-49838436D01*
X143374698Y-49719364D01*
X143273436Y-49618102D01*
X143154364Y-49538541D01*
X143022058Y-49483738D01*
X142881603Y-49455800D01*
X142775000Y-49455800D01*
X142775000Y-49436600D01*
X142881603Y-49436600D01*
X143022058Y-49408662D01*
X143154364Y-49353859D01*
X143273436Y-49274298D01*
X143374698Y-49173036D01*
X143454259Y-49053964D01*
X143509062Y-48921658D01*
X143537000Y-48781203D01*
X143537000Y-48637997D01*
X143509062Y-48497542D01*
X143454259Y-48365236D01*
X143374698Y-48246164D01*
X143273436Y-48144902D01*
X143154364Y-48065341D01*
X143022058Y-48010538D01*
X142881603Y-47982600D01*
X142772176Y-47982600D01*
X142775000Y-47968403D01*
X142775000Y-47825197D01*
X142747062Y-47684742D01*
X142692259Y-47552436D01*
X142612698Y-47433364D01*
X142511436Y-47332102D01*
X142392364Y-47252541D01*
X142260058Y-47197738D01*
X142119603Y-47169800D01*
X141976397Y-47169800D01*
X141835942Y-47197738D01*
X141703636Y-47252541D01*
X141584564Y-47332102D01*
X141483302Y-47433364D01*
X141403741Y-47552436D01*
X141348938Y-47684742D01*
X141321000Y-47825197D01*
X141321000Y-47968403D01*
X141323824Y-47982600D01*
X141248176Y-47982600D01*
X141251000Y-47968403D01*
X141251000Y-47825197D01*
X141223062Y-47684742D01*
X141168259Y-47552436D01*
X141088698Y-47433364D01*
X140987436Y-47332102D01*
X140868364Y-47252541D01*
X140736058Y-47197738D01*
X140595603Y-47169800D01*
X140452397Y-47169800D01*
X140311942Y-47197738D01*
X140179636Y-47252541D01*
X140060564Y-47332102D01*
X139959302Y-47433364D01*
X139879741Y-47552436D01*
X139824938Y-47684742D01*
X139797000Y-47825197D01*
X139797000Y-47968403D01*
X139799824Y-47982600D01*
X139741197Y-47982600D01*
X139600742Y-48010538D01*
X139468436Y-48065341D01*
X139349364Y-48144902D01*
X139248102Y-48246164D01*
X139168541Y-48365236D01*
X139113738Y-48497542D01*
X139085800Y-48637997D01*
X128060000Y-48637997D01*
X128060000Y-41128500D01*
X153118000Y-41128500D01*
X153118001Y-75601391D01*
G04 #@! TA.AperFunction,Conductor*
D22*
G36*
X153118001Y-75601391D02*
G01*
X153118000Y-79331000D01*
X150464242Y-79331000D01*
X150469180Y-79329502D01*
X150579494Y-79270537D01*
X150676185Y-79191185D01*
X150755537Y-79094494D01*
X150814502Y-78984180D01*
X150850812Y-78864482D01*
X150863072Y-78740000D01*
X150860000Y-78025750D01*
X150701250Y-77867000D01*
X149352000Y-77867000D01*
X149352000Y-77887000D01*
X149098000Y-77887000D01*
X149098000Y-77867000D01*
X147748750Y-77867000D01*
X147590000Y-78025750D01*
X147586928Y-78740000D01*
X147599188Y-78864482D01*
X147635498Y-78984180D01*
X147694463Y-79094494D01*
X147773815Y-79191185D01*
X147870506Y-79270537D01*
X147980820Y-79329502D01*
X147985758Y-79331000D01*
X147093108Y-79331000D01*
X147066000Y-79328330D01*
X147038891Y-79331000D01*
X146957789Y-79338988D01*
X146853737Y-79370552D01*
X146757842Y-79421809D01*
X146673789Y-79490789D01*
X146604809Y-79574842D01*
X146553552Y-79670737D01*
X146521988Y-79774789D01*
X146511330Y-79883000D01*
X146514000Y-79910108D01*
X146514000Y-79967733D01*
X146335034Y-79891681D01*
X146255076Y-79874992D01*
X146035000Y-79997148D01*
X146035000Y-81915000D01*
X146055000Y-81915000D01*
X146055000Y-82169000D01*
X146035000Y-82169000D01*
X146035000Y-84086852D01*
X146255076Y-84209008D01*
X146335034Y-84192319D01*
X146514001Y-84116267D01*
X146514001Y-84284000D01*
X133902000Y-84284000D01*
X133902000Y-84116267D01*
X134080966Y-84192319D01*
X134160924Y-84209008D01*
X134381000Y-84086852D01*
X134381000Y-82169000D01*
X134361000Y-82169000D01*
X134361000Y-81915000D01*
X134381000Y-81915000D01*
X134381000Y-79997148D01*
X134160924Y-79874992D01*
X134080966Y-79891681D01*
X133902000Y-79967733D01*
X133902000Y-79910108D01*
X133904670Y-79883000D01*
X133894012Y-79774789D01*
X133862448Y-79670737D01*
X133811191Y-79574842D01*
X133742211Y-79490789D01*
X133658158Y-79421809D01*
X133562263Y-79370552D01*
X133458211Y-79338988D01*
X133377109Y-79331000D01*
X133377108Y-79331000D01*
X133350000Y-79328330D01*
X133322891Y-79331000D01*
X133319242Y-79331000D01*
X133324180Y-79329502D01*
X133434494Y-79270537D01*
X133531185Y-79191185D01*
X133610537Y-79094494D01*
X133669502Y-78984180D01*
X133705812Y-78864482D01*
X133718072Y-78740000D01*
X133715000Y-78025750D01*
X133556250Y-77867000D01*
X132207000Y-77867000D01*
X132207000Y-77887000D01*
X131953000Y-77887000D01*
X131953000Y-77867000D01*
X130603750Y-77867000D01*
X130445000Y-78025750D01*
X130441928Y-78740000D01*
X130454188Y-78864482D01*
X130490498Y-78984180D01*
X130549463Y-79094494D01*
X130628815Y-79191185D01*
X130725506Y-79270537D01*
X130835820Y-79329502D01*
X130840758Y-79331000D01*
X128060000Y-79331000D01*
X128060000Y-76740000D01*
X130441928Y-76740000D01*
X130445000Y-77454250D01*
X130603750Y-77613000D01*
X131953000Y-77613000D01*
X131953000Y-76263750D01*
X132207000Y-76263750D01*
X132207000Y-77613000D01*
X133556250Y-77613000D01*
X133715000Y-77454250D01*
X133718072Y-76740000D01*
X133705812Y-76615518D01*
X133669502Y-76495820D01*
X133610537Y-76385506D01*
X133531185Y-76288815D01*
X133434494Y-76209463D01*
X133324180Y-76150498D01*
X133204482Y-76114188D01*
X133080000Y-76101928D01*
X132365750Y-76105000D01*
X132207000Y-76263750D01*
X131953000Y-76263750D01*
X131794250Y-76105000D01*
X131080000Y-76101928D01*
X130955518Y-76114188D01*
X130835820Y-76150498D01*
X130725506Y-76209463D01*
X130628815Y-76288815D01*
X130549463Y-76385506D01*
X130490498Y-76495820D01*
X130454188Y-76615518D01*
X130441928Y-76740000D01*
X128060000Y-76740000D01*
X128060000Y-70740000D01*
X130550451Y-70740000D01*
X130550451Y-72740000D01*
X130560626Y-72843310D01*
X130590761Y-72942650D01*
X130639696Y-73034202D01*
X130705552Y-73114448D01*
X130785798Y-73180304D01*
X130877350Y-73229239D01*
X130976690Y-73259374D01*
X131080000Y-73269549D01*
X133080000Y-73269549D01*
X133183310Y-73259374D01*
X133282650Y-73229239D01*
X133374202Y-73180304D01*
X133454448Y-73114448D01*
X133520304Y-73034202D01*
X133569239Y-72942650D01*
X133599374Y-72843310D01*
X133609549Y-72740000D01*
X133609549Y-72359379D01*
X133656017Y-72345283D01*
X133769284Y-72284741D01*
X133868564Y-72203264D01*
X133888985Y-72178381D01*
X135663567Y-70403800D01*
X137238424Y-70403800D01*
X137306472Y-70471848D01*
X137308871Y-70473451D01*
X137200000Y-70473451D01*
X137096690Y-70483626D01*
X136997350Y-70513761D01*
X136905798Y-70562696D01*
X136825552Y-70628552D01*
X136759696Y-70708798D01*
X136710761Y-70800350D01*
X136680626Y-70899690D01*
X136670451Y-71003000D01*
X136670451Y-71008621D01*
X136623983Y-71022717D01*
X136510716Y-71083259D01*
X136411436Y-71164736D01*
X136391020Y-71189613D01*
X135187214Y-72393420D01*
X135162337Y-72413836D01*
X135080860Y-72513116D01*
X135069421Y-72534517D01*
X135020317Y-72626384D01*
X134983035Y-72749286D01*
X134970446Y-72877100D01*
X134973601Y-72909132D01*
X134973600Y-79908070D01*
X134935034Y-79891681D01*
X134855076Y-79874992D01*
X134635000Y-79997148D01*
X134635000Y-81915000D01*
X134655000Y-81915000D01*
X134655000Y-82169000D01*
X134635000Y-82169000D01*
X134635000Y-84086852D01*
X134855076Y-84209008D01*
X134935034Y-84192319D01*
X135192702Y-84082823D01*
X135424057Y-83925162D01*
X135620208Y-83725395D01*
X135773618Y-83491200D01*
X135878391Y-83231576D01*
X135930500Y-82956500D01*
X135930500Y-82333266D01*
X137059120Y-83461887D01*
X137079536Y-83486764D01*
X137178816Y-83568241D01*
X137292083Y-83628783D01*
X137414985Y-83666065D01*
X137542799Y-83678654D01*
X137574821Y-83675500D01*
X139734378Y-83675500D01*
X139766400Y-83678654D01*
X139798422Y-83675500D01*
X139894214Y-83666065D01*
X140017117Y-83628783D01*
X140130384Y-83568241D01*
X140229664Y-83486764D01*
X140250085Y-83461881D01*
X141347562Y-82364405D01*
X141350271Y-82378026D01*
X141437111Y-82587677D01*
X141563183Y-82776357D01*
X141723643Y-82936817D01*
X141912323Y-83062889D01*
X142121974Y-83149729D01*
X142344538Y-83194000D01*
X142571462Y-83194000D01*
X142794026Y-83149729D01*
X143003677Y-83062889D01*
X143192357Y-82936817D01*
X143352817Y-82776357D01*
X143478889Y-82587677D01*
X143565729Y-82378026D01*
X143607307Y-82169000D01*
X144485500Y-82169000D01*
X144485500Y-82956500D01*
X144537609Y-83231576D01*
X144642382Y-83491200D01*
X144795792Y-83725395D01*
X144991943Y-83925162D01*
X145223298Y-84082823D01*
X145480966Y-84192319D01*
X145560924Y-84209008D01*
X145781000Y-84086852D01*
X145781000Y-82169000D01*
X144485500Y-82169000D01*
X143607307Y-82169000D01*
X143610000Y-82155462D01*
X143610000Y-81928538D01*
X143565729Y-81705974D01*
X143478889Y-81496323D01*
X143352817Y-81307643D01*
X143270723Y-81225549D01*
X144462000Y-81225549D01*
X144485500Y-81223234D01*
X144485500Y-81915000D01*
X145781000Y-81915000D01*
X145781000Y-79997148D01*
X145560924Y-79874992D01*
X145480966Y-79891681D01*
X145223298Y-80001177D01*
X144991943Y-80158838D01*
X144991549Y-80159239D01*
X144991549Y-79188000D01*
X144981374Y-79084690D01*
X144951239Y-78985350D01*
X144902304Y-78893798D01*
X144864379Y-78847587D01*
X147434367Y-76277600D01*
X147787481Y-76277600D01*
X147773815Y-76288815D01*
X147694463Y-76385506D01*
X147635498Y-76495820D01*
X147599188Y-76615518D01*
X147586928Y-76740000D01*
X147590000Y-77454250D01*
X147748750Y-77613000D01*
X149098000Y-77613000D01*
X149098000Y-77593000D01*
X149352000Y-77593000D01*
X149352000Y-77613000D01*
X150701250Y-77613000D01*
X150860000Y-77454250D01*
X150863072Y-76740000D01*
X150850812Y-76615518D01*
X150814502Y-76495820D01*
X150755537Y-76385506D01*
X150676185Y-76288815D01*
X150605367Y-76230696D01*
X150718284Y-76170341D01*
X150817564Y-76088864D01*
X150837985Y-76063981D01*
X152584387Y-74317580D01*
X152609264Y-74297164D01*
X152690741Y-74197884D01*
X152751283Y-74084617D01*
X152788565Y-73961714D01*
X152798000Y-73865922D01*
X152798000Y-73865915D01*
X152801153Y-73833901D01*
X152798000Y-73801886D01*
X152798000Y-44650921D01*
X152801154Y-44618899D01*
X152788565Y-44491085D01*
X152751283Y-44368183D01*
X152693483Y-44260046D01*
X152690741Y-44254916D01*
X152609264Y-44155636D01*
X152584388Y-44135221D01*
X151672000Y-43222834D01*
X151672000Y-43126599D01*
X151636376Y-42947504D01*
X151566496Y-42778801D01*
X151465048Y-42626972D01*
X151335928Y-42497852D01*
X151184099Y-42396404D01*
X151015396Y-42326524D01*
X150836301Y-42290900D01*
X150653699Y-42290900D01*
X150474604Y-42326524D01*
X150305901Y-42396404D01*
X150154072Y-42497852D01*
X150024952Y-42626972D01*
X149923504Y-42778801D01*
X149853624Y-42947504D01*
X149818000Y-43126599D01*
X149818000Y-43309201D01*
X149853624Y-43488296D01*
X149923504Y-43656999D01*
X150024952Y-43808828D01*
X150154072Y-43937948D01*
X150305901Y-44039396D01*
X150474604Y-44109276D01*
X150653699Y-44144900D01*
X150749934Y-44144900D01*
X151494000Y-44888967D01*
X151494000Y-45745134D01*
X151338600Y-45589734D01*
X151338600Y-45493499D01*
X151302976Y-45314404D01*
X151233096Y-45145701D01*
X151131648Y-44993872D01*
X151002528Y-44864752D01*
X150850699Y-44763304D01*
X150681996Y-44693424D01*
X150502901Y-44657800D01*
X150320299Y-44657800D01*
X150141204Y-44693424D01*
X149972501Y-44763304D01*
X149820672Y-44864752D01*
X149691552Y-44993872D01*
X149590104Y-45145701D01*
X149520224Y-45314404D01*
X149484600Y-45493499D01*
X149484600Y-45676101D01*
X149520224Y-45855196D01*
X149590104Y-46023899D01*
X149691552Y-46175728D01*
X149820672Y-46304848D01*
X149947813Y-46389800D01*
X147735222Y-46389800D01*
X147703200Y-46386646D01*
X147687445Y-46388198D01*
X147548701Y-46360600D01*
X147514557Y-46360600D01*
X147521476Y-46343896D01*
X147557100Y-46164801D01*
X147557100Y-45982199D01*
X147521476Y-45803104D01*
X147451596Y-45634401D01*
X147350148Y-45482572D01*
X147221028Y-45353452D01*
X147069199Y-45252004D01*
X146900496Y-45182124D01*
X146880171Y-45178081D01*
X146914300Y-45006501D01*
X146914300Y-44823899D01*
X146878676Y-44644804D01*
X146808796Y-44476101D01*
X146707348Y-44324272D01*
X146578228Y-44195152D01*
X146426399Y-44093704D01*
X146257696Y-44023824D01*
X146078601Y-43988200D01*
X145895999Y-43988200D01*
X145716904Y-44023824D01*
X145548201Y-44093704D01*
X145396372Y-44195152D01*
X145267252Y-44324272D01*
X145165804Y-44476101D01*
X145095924Y-44644804D01*
X145060300Y-44823899D01*
X145060300Y-44920134D01*
X144669614Y-45310820D01*
X144644737Y-45331236D01*
X144563260Y-45430516D01*
X144549112Y-45456986D01*
X144502717Y-45543784D01*
X144465435Y-45666686D01*
X144452846Y-45794500D01*
X144456001Y-45826532D01*
X144456000Y-55927750D01*
X144456000Y-56129568D01*
X144417770Y-56055924D01*
X144360000Y-55983776D01*
X144360000Y-55927750D01*
X144201250Y-55769000D01*
X144100987Y-55779734D01*
X144058000Y-55793342D01*
X144015013Y-55779734D01*
X143914750Y-55769000D01*
X143756000Y-55927750D01*
X143756000Y-55983776D01*
X143698230Y-56055924D01*
X143660000Y-56129568D01*
X143660000Y-55927750D01*
X143501250Y-55769000D01*
X143400987Y-55779734D01*
X143281736Y-55817483D01*
X143178177Y-55874451D01*
X142833000Y-55874451D01*
X142729690Y-55884626D01*
X142658000Y-55906373D01*
X142586310Y-55884626D01*
X142483000Y-55874451D01*
X142133000Y-55874451D01*
X142029690Y-55884626D01*
X141958000Y-55906373D01*
X141886310Y-55884626D01*
X141783000Y-55874451D01*
X141433000Y-55874451D01*
X141329690Y-55884626D01*
X141258000Y-55906373D01*
X141186310Y-55884626D01*
X141083000Y-55874451D01*
X140733000Y-55874451D01*
X140629690Y-55884626D01*
X140558000Y-55906373D01*
X140486310Y-55884626D01*
X140383000Y-55874451D01*
X140037823Y-55874451D01*
X139934264Y-55817483D01*
X139815013Y-55779734D01*
X139714750Y-55769000D01*
X139556000Y-55927750D01*
X139556000Y-56178452D01*
X139543761Y-56201350D01*
X139513626Y-56300690D01*
X139503451Y-56404000D01*
X139503451Y-57551000D01*
X139460000Y-57551000D01*
X139460000Y-57531000D01*
X138856750Y-57531000D01*
X138698000Y-57689750D01*
X138694974Y-58396312D01*
X138705734Y-58520933D01*
X138740599Y-58641059D01*
X138798230Y-58752076D01*
X138851048Y-58818040D01*
X138817500Y-58986699D01*
X138817500Y-59169301D01*
X138853124Y-59348396D01*
X138923004Y-59517099D01*
X139024452Y-59668928D01*
X139153572Y-59798048D01*
X139305401Y-59899496D01*
X139474104Y-59969376D01*
X139653199Y-60005000D01*
X139835801Y-60005000D01*
X140014896Y-59969376D01*
X140139208Y-59917884D01*
X140164672Y-59943348D01*
X140316501Y-60044796D01*
X140485204Y-60114676D01*
X140664299Y-60150300D01*
X140846901Y-60150300D01*
X140977796Y-60124263D01*
X141002717Y-60206416D01*
X141063259Y-60319683D01*
X141144736Y-60418964D01*
X141169618Y-60439385D01*
X142578800Y-61848567D01*
X142578800Y-61944801D01*
X142614424Y-62123896D01*
X142684304Y-62292599D01*
X142785752Y-62444428D01*
X142914872Y-62573548D01*
X143066701Y-62674996D01*
X143235404Y-62744876D01*
X143414499Y-62780500D01*
X143597101Y-62780500D01*
X143776196Y-62744876D01*
X143944899Y-62674996D01*
X144012600Y-62629760D01*
X144012600Y-62631824D01*
X143944552Y-62699872D01*
X143843104Y-62851701D01*
X143773224Y-63020404D01*
X143737600Y-63199499D01*
X143737600Y-63382101D01*
X143773224Y-63561196D01*
X143843104Y-63729899D01*
X143944552Y-63881728D01*
X144073672Y-64010848D01*
X144225501Y-64112296D01*
X144394204Y-64182176D01*
X144573299Y-64217800D01*
X144755901Y-64217800D01*
X144767201Y-64215552D01*
X144767200Y-72455433D01*
X144033494Y-73189139D01*
X144025374Y-73106690D01*
X143995239Y-73007350D01*
X143946304Y-72915798D01*
X143880448Y-72835552D01*
X143800202Y-72769696D01*
X143708650Y-72720761D01*
X143609310Y-72690626D01*
X143506000Y-72680451D01*
X143332700Y-72680451D01*
X143332700Y-72607549D01*
X143506000Y-72607549D01*
X143609310Y-72597374D01*
X143708650Y-72567239D01*
X143800202Y-72518304D01*
X143880448Y-72452448D01*
X143946304Y-72372202D01*
X143995239Y-72280650D01*
X144025374Y-72181310D01*
X144035549Y-72078000D01*
X144035549Y-71178000D01*
X144025374Y-71074690D01*
X143995239Y-70975350D01*
X143946304Y-70883798D01*
X143909841Y-70839367D01*
X143898565Y-70724886D01*
X143861283Y-70601983D01*
X143800741Y-70488716D01*
X143719264Y-70389436D01*
X143619984Y-70307959D01*
X143506717Y-70247417D01*
X143383814Y-70210135D01*
X143290845Y-70200978D01*
X141185100Y-68095234D01*
X141185100Y-67998999D01*
X141149476Y-67819904D01*
X141079596Y-67651201D01*
X141028496Y-67574723D01*
X141095396Y-67474599D01*
X141165276Y-67305896D01*
X141200900Y-67126801D01*
X141200900Y-66944199D01*
X141165276Y-66765104D01*
X141095396Y-66596401D01*
X140993948Y-66444572D01*
X140864828Y-66315452D01*
X140712999Y-66214004D01*
X140544296Y-66144124D01*
X140365201Y-66108500D01*
X140182599Y-66108500D01*
X140003504Y-66144124D01*
X139834801Y-66214004D01*
X139682972Y-66315452D01*
X139553852Y-66444572D01*
X139452404Y-66596401D01*
X139382524Y-66765104D01*
X139346900Y-66944199D01*
X139346900Y-67040433D01*
X137459019Y-68928315D01*
X137449123Y-68936437D01*
X137306472Y-69031752D01*
X137238424Y-69099800D01*
X135425514Y-69099800D01*
X135393499Y-69096647D01*
X135361485Y-69099800D01*
X135361478Y-69099800D01*
X135278327Y-69107990D01*
X135265685Y-69109235D01*
X135142783Y-69146517D01*
X135029516Y-69207059D01*
X134930236Y-69288536D01*
X134909820Y-69313413D01*
X133596388Y-70626846D01*
X133569239Y-70537350D01*
X133520304Y-70445798D01*
X133454448Y-70365552D01*
X133374202Y-70299696D01*
X133282650Y-70250761D01*
X133183310Y-70220626D01*
X133080000Y-70210451D01*
X131080000Y-70210451D01*
X130976690Y-70220626D01*
X130877350Y-70250761D01*
X130785798Y-70299696D01*
X130705552Y-70365552D01*
X130639696Y-70445798D01*
X130590761Y-70537350D01*
X130560626Y-70636690D01*
X130550451Y-70740000D01*
X128060000Y-70740000D01*
X128060000Y-56411688D01*
X138694974Y-56411688D01*
X138698000Y-57118250D01*
X138856750Y-57277000D01*
X139460000Y-57277000D01*
X139460000Y-55927750D01*
X139301250Y-55769000D01*
X139200987Y-55779734D01*
X139081736Y-55817483D01*
X138972140Y-55877772D01*
X138876412Y-55958284D01*
X138798230Y-56055924D01*
X138740599Y-56166941D01*
X138705734Y-56287067D01*
X138694974Y-56411688D01*
X128060000Y-56411688D01*
X128060000Y-48637997D01*
X139085800Y-48637997D01*
X139085800Y-48781203D01*
X139113738Y-48921658D01*
X139168541Y-49053964D01*
X139248102Y-49173036D01*
X139349364Y-49274298D01*
X139468436Y-49353859D01*
X139600742Y-49408662D01*
X139741197Y-49436600D01*
X139797000Y-49436600D01*
X139797000Y-49441603D01*
X139799824Y-49455800D01*
X139741197Y-49455800D01*
X139600742Y-49483738D01*
X139468436Y-49538541D01*
X139349364Y-49618102D01*
X139248102Y-49719364D01*
X139168541Y-49838436D01*
X139113738Y-49970742D01*
X139085800Y-50111197D01*
X139085800Y-50254403D01*
X139113738Y-50394858D01*
X139168541Y-50527164D01*
X139248102Y-50646236D01*
X139349364Y-50747498D01*
X139468436Y-50827059D01*
X139600742Y-50881862D01*
X139741197Y-50909800D01*
X139847800Y-50909800D01*
X139847800Y-50965603D01*
X139875738Y-51106058D01*
X139930541Y-51238364D01*
X140010102Y-51357436D01*
X140111364Y-51458698D01*
X140230436Y-51538259D01*
X140362742Y-51593062D01*
X140503197Y-51621000D01*
X140646403Y-51621000D01*
X140786858Y-51593062D01*
X140919164Y-51538259D01*
X141038236Y-51458698D01*
X141139498Y-51357436D01*
X141219059Y-51238364D01*
X141273862Y-51106058D01*
X141301800Y-50965603D01*
X141301800Y-50909800D01*
X141321000Y-50909800D01*
X141321000Y-50965603D01*
X141348938Y-51106058D01*
X141403741Y-51238364D01*
X141483302Y-51357436D01*
X141584564Y-51458698D01*
X141703636Y-51538259D01*
X141835942Y-51593062D01*
X141976397Y-51621000D01*
X142119603Y-51621000D01*
X142260058Y-51593062D01*
X142392364Y-51538259D01*
X142511436Y-51458698D01*
X142612698Y-51357436D01*
X142692259Y-51238364D01*
X142747062Y-51106058D01*
X142775000Y-50965603D01*
X142775000Y-50909800D01*
X142881603Y-50909800D01*
X143022058Y-50881862D01*
X143154364Y-50827059D01*
X143273436Y-50747498D01*
X143374698Y-50646236D01*
X143454259Y-50527164D01*
X143509062Y-50394858D01*
X143537000Y-50254403D01*
X143537000Y-50111197D01*
X143509062Y-49970742D01*
X143454259Y-49838436D01*
X143374698Y-49719364D01*
X143273436Y-49618102D01*
X143154364Y-49538541D01*
X143022058Y-49483738D01*
X142881603Y-49455800D01*
X142775000Y-49455800D01*
X142775000Y-49436600D01*
X142881603Y-49436600D01*
X143022058Y-49408662D01*
X143154364Y-49353859D01*
X143273436Y-49274298D01*
X143374698Y-49173036D01*
X143454259Y-49053964D01*
X143509062Y-48921658D01*
X143537000Y-48781203D01*
X143537000Y-48637997D01*
X143509062Y-48497542D01*
X143454259Y-48365236D01*
X143374698Y-48246164D01*
X143273436Y-48144902D01*
X143154364Y-48065341D01*
X143022058Y-48010538D01*
X142881603Y-47982600D01*
X142772176Y-47982600D01*
X142775000Y-47968403D01*
X142775000Y-47825197D01*
X142747062Y-47684742D01*
X142692259Y-47552436D01*
X142612698Y-47433364D01*
X142511436Y-47332102D01*
X142392364Y-47252541D01*
X142260058Y-47197738D01*
X142119603Y-47169800D01*
X141976397Y-47169800D01*
X141835942Y-47197738D01*
X141703636Y-47252541D01*
X141584564Y-47332102D01*
X141483302Y-47433364D01*
X141403741Y-47552436D01*
X141348938Y-47684742D01*
X141321000Y-47825197D01*
X141321000Y-47968403D01*
X141323824Y-47982600D01*
X141248176Y-47982600D01*
X141251000Y-47968403D01*
X141251000Y-47825197D01*
X141223062Y-47684742D01*
X141168259Y-47552436D01*
X141088698Y-47433364D01*
X140987436Y-47332102D01*
X140868364Y-47252541D01*
X140736058Y-47197738D01*
X140595603Y-47169800D01*
X140452397Y-47169800D01*
X140311942Y-47197738D01*
X140179636Y-47252541D01*
X140060564Y-47332102D01*
X139959302Y-47433364D01*
X139879741Y-47552436D01*
X139824938Y-47684742D01*
X139797000Y-47825197D01*
X139797000Y-47968403D01*
X139799824Y-47982600D01*
X139741197Y-47982600D01*
X139600742Y-48010538D01*
X139468436Y-48065341D01*
X139349364Y-48144902D01*
X139248102Y-48246164D01*
X139168541Y-48365236D01*
X139113738Y-48497542D01*
X139085800Y-48637997D01*
X128060000Y-48637997D01*
X128060000Y-41128500D01*
X153118000Y-41128500D01*
X153118001Y-75601391D01*
G37*
G04 #@! TD.AperFunction*
D21*
X136901748Y-79927858D02*
X136887605Y-79942000D01*
X136901748Y-79956143D01*
X136722143Y-80135748D01*
X136708000Y-80121605D01*
X136693858Y-80135748D01*
X136514253Y-79956143D01*
X136528395Y-79942000D01*
X136514253Y-79927858D01*
X136693858Y-79748253D01*
X136708000Y-79762395D01*
X136722143Y-79748253D01*
X136901748Y-79927858D01*
G04 #@! TA.AperFunction,Conductor*
D22*
G36*
X136901748Y-79927858D02*
G01*
X136887605Y-79942000D01*
X136901748Y-79956143D01*
X136722143Y-80135748D01*
X136708000Y-80121605D01*
X136693858Y-80135748D01*
X136514253Y-79956143D01*
X136528395Y-79942000D01*
X136514253Y-79927858D01*
X136693858Y-79748253D01*
X136708000Y-79762395D01*
X136722143Y-79748253D01*
X136901748Y-79927858D01*
G37*
G04 #@! TD.AperFunction*
D21*
X139827000Y-73533000D02*
X139847000Y-73533000D01*
X139847000Y-73787000D01*
X139827000Y-73787000D01*
X139827000Y-75565000D01*
X139847000Y-75565000D01*
X139847000Y-75819000D01*
X139827000Y-75819000D01*
X139827000Y-77597000D01*
X139847000Y-77597000D01*
X139847000Y-77851000D01*
X139827000Y-77851000D01*
X139827000Y-77871000D01*
X139573000Y-77871000D01*
X139573000Y-77851000D01*
X139553000Y-77851000D01*
X139553000Y-77597000D01*
X139573000Y-77597000D01*
X139573000Y-75819000D01*
X139553000Y-75819000D01*
X139553000Y-75565000D01*
X139573000Y-75565000D01*
X139573000Y-73787000D01*
X139553000Y-73787000D01*
X139553000Y-73533000D01*
X139573000Y-73533000D01*
X139573000Y-73513000D01*
X139827000Y-73513000D01*
X139827000Y-73533000D01*
G04 #@! TA.AperFunction,Conductor*
D22*
G36*
X139827000Y-73533000D02*
G01*
X139847000Y-73533000D01*
X139847000Y-73787000D01*
X139827000Y-73787000D01*
X139827000Y-75565000D01*
X139847000Y-75565000D01*
X139847000Y-75819000D01*
X139827000Y-75819000D01*
X139827000Y-77597000D01*
X139847000Y-77597000D01*
X139847000Y-77851000D01*
X139827000Y-77851000D01*
X139827000Y-77871000D01*
X139573000Y-77871000D01*
X139573000Y-77851000D01*
X139553000Y-77851000D01*
X139553000Y-77597000D01*
X139573000Y-77597000D01*
X139573000Y-75819000D01*
X139553000Y-75819000D01*
X139553000Y-75565000D01*
X139573000Y-75565000D01*
X139573000Y-73787000D01*
X139553000Y-73787000D01*
X139553000Y-73533000D01*
X139573000Y-73533000D01*
X139573000Y-73513000D01*
X139827000Y-73513000D01*
X139827000Y-73533000D01*
G37*
G04 #@! TD.AperFunction*
D21*
X145808604Y-46512599D02*
X145910052Y-46664428D01*
X145978101Y-46732477D01*
X145978100Y-47462278D01*
X145974946Y-47494300D01*
X145987535Y-47622114D01*
X146006419Y-47684365D01*
X146024817Y-47745016D01*
X146085359Y-47858283D01*
X146166836Y-47957564D01*
X146191719Y-47977985D01*
X147675020Y-49461287D01*
X147695436Y-49486164D01*
X147794716Y-49567641D01*
X147907983Y-49628183D01*
X148030885Y-49665465D01*
X148158700Y-49678054D01*
X148190722Y-49674900D01*
X150267124Y-49674900D01*
X150335172Y-49742948D01*
X150487001Y-49844396D01*
X150655704Y-49914276D01*
X150834799Y-49949900D01*
X151017401Y-49949900D01*
X151043400Y-49944728D01*
X151043401Y-72876500D01*
X151037299Y-72876500D01*
X150858204Y-72912124D01*
X150694257Y-72980034D01*
X150714239Y-72942650D01*
X150744374Y-72843310D01*
X150754549Y-72740000D01*
X150754549Y-70740000D01*
X150744374Y-70636690D01*
X150714239Y-70537350D01*
X150665304Y-70445798D01*
X150599448Y-70365552D01*
X150519202Y-70299696D01*
X150427650Y-70250761D01*
X150328310Y-70220626D01*
X150225000Y-70210451D01*
X148225000Y-70210451D01*
X148121690Y-70220626D01*
X148022350Y-70250761D01*
X147930798Y-70299696D01*
X147850552Y-70365552D01*
X147784696Y-70445798D01*
X147735761Y-70537350D01*
X147705626Y-70636690D01*
X147695451Y-70740000D01*
X147695451Y-72740000D01*
X147705626Y-72843310D01*
X147735761Y-72942650D01*
X147784696Y-73034202D01*
X147850552Y-73114448D01*
X147930798Y-73180304D01*
X148022350Y-73229239D01*
X148121690Y-73259374D01*
X148225000Y-73269549D01*
X148271366Y-73269549D01*
X148259124Y-73299104D01*
X148223500Y-73478199D01*
X148223500Y-73660801D01*
X148259124Y-73839896D01*
X148329004Y-74008599D01*
X148430452Y-74160428D01*
X148559572Y-74289548D01*
X148711401Y-74390996D01*
X148880104Y-74460876D01*
X149059199Y-74496500D01*
X149241801Y-74496500D01*
X149420896Y-74460876D01*
X149589599Y-74390996D01*
X149741428Y-74289548D01*
X149870548Y-74160428D01*
X149971996Y-74008599D01*
X150041876Y-73839896D01*
X150077500Y-73660801D01*
X150077500Y-73478199D01*
X150041876Y-73299104D01*
X150029634Y-73269549D01*
X150225000Y-73269549D01*
X150328310Y-73259374D01*
X150389729Y-73240742D01*
X150307104Y-73364401D01*
X150237224Y-73533104D01*
X150201600Y-73712199D01*
X150201600Y-73894801D01*
X150237224Y-74073896D01*
X150307104Y-74242599D01*
X150408552Y-74394428D01*
X150535979Y-74521855D01*
X150084234Y-74973600D01*
X147196314Y-74973600D01*
X147164299Y-74970447D01*
X147132285Y-74973600D01*
X147132278Y-74973600D01*
X147049127Y-74981790D01*
X147036485Y-74983035D01*
X146913583Y-75020317D01*
X146800316Y-75080859D01*
X146701036Y-75162336D01*
X146680620Y-75187213D01*
X144035549Y-77832285D01*
X144035549Y-77274000D01*
X144025374Y-77170690D01*
X143995239Y-77071350D01*
X143946304Y-76979798D01*
X143908000Y-76933124D01*
X143908000Y-76554861D01*
X143950202Y-76532304D01*
X144030448Y-76466448D01*
X144096304Y-76386202D01*
X144145239Y-76294650D01*
X144175374Y-76195310D01*
X144185549Y-76092000D01*
X144185549Y-75292000D01*
X144175374Y-75188690D01*
X144145239Y-75089350D01*
X144096304Y-74997798D01*
X144083982Y-74982784D01*
X145857588Y-73209179D01*
X145882464Y-73188764D01*
X145963941Y-73089484D01*
X146024483Y-72976217D01*
X146054030Y-72878812D01*
X146061765Y-72853315D01*
X146074354Y-72725500D01*
X146071200Y-72693478D01*
X146071200Y-59327911D01*
X146171984Y-59274041D01*
X146271264Y-59192564D01*
X146352741Y-59093284D01*
X146413283Y-58980017D01*
X146436383Y-58903867D01*
X146460000Y-58880250D01*
X146460000Y-58761322D01*
X146463154Y-58729300D01*
X146460000Y-58697278D01*
X146460000Y-58678432D01*
X146498230Y-58752076D01*
X146556000Y-58824224D01*
X146556000Y-58880250D01*
X146714750Y-59039000D01*
X146815013Y-59028266D01*
X146858000Y-59014658D01*
X146900987Y-59028266D01*
X147001250Y-59039000D01*
X147160000Y-58880250D01*
X147160000Y-58824224D01*
X147217770Y-58752076D01*
X147256000Y-58678432D01*
X147256000Y-58880250D01*
X147414750Y-59039000D01*
X147515013Y-59028266D01*
X147634264Y-58990517D01*
X147743860Y-58930228D01*
X147839588Y-58849716D01*
X147917770Y-58752076D01*
X147975401Y-58641059D01*
X148010266Y-58520933D01*
X148021026Y-58396312D01*
X148018000Y-57689750D01*
X147859250Y-57531000D01*
X147256000Y-57531000D01*
X147256000Y-57627750D01*
X147160000Y-57531750D01*
X147160000Y-57531000D01*
X147061000Y-57531000D01*
X147061000Y-57277000D01*
X147160000Y-57277000D01*
X147160000Y-57276250D01*
X147256000Y-57180250D01*
X147256000Y-57277000D01*
X147859250Y-57277000D01*
X148018000Y-57118250D01*
X148021026Y-56411688D01*
X148010266Y-56287067D01*
X147975401Y-56166941D01*
X147917770Y-56055924D01*
X147839588Y-55958284D01*
X147743860Y-55877772D01*
X147634264Y-55817483D01*
X147515013Y-55779734D01*
X147414750Y-55769000D01*
X147256000Y-55927750D01*
X147256000Y-56129568D01*
X147217770Y-56055924D01*
X147160000Y-55983776D01*
X147160000Y-55927750D01*
X147001250Y-55769000D01*
X146900987Y-55779734D01*
X146858000Y-55793342D01*
X146815013Y-55779734D01*
X146714750Y-55769000D01*
X146556000Y-55927750D01*
X146556000Y-55983776D01*
X146498230Y-56055924D01*
X146460000Y-56129568D01*
X146460000Y-55927750D01*
X146301250Y-55769000D01*
X146200987Y-55779734D01*
X146081736Y-55817483D01*
X145978177Y-55874451D01*
X145760000Y-55874451D01*
X145760000Y-46395260D01*
X145808604Y-46512599D01*
G04 #@! TA.AperFunction,Conductor*
D22*
G36*
X145808604Y-46512599D02*
G01*
X145910052Y-46664428D01*
X145978101Y-46732477D01*
X145978100Y-47462278D01*
X145974946Y-47494300D01*
X145987535Y-47622114D01*
X146006419Y-47684365D01*
X146024817Y-47745016D01*
X146085359Y-47858283D01*
X146166836Y-47957564D01*
X146191719Y-47977985D01*
X147675020Y-49461287D01*
X147695436Y-49486164D01*
X147794716Y-49567641D01*
X147907983Y-49628183D01*
X148030885Y-49665465D01*
X148158700Y-49678054D01*
X148190722Y-49674900D01*
X150267124Y-49674900D01*
X150335172Y-49742948D01*
X150487001Y-49844396D01*
X150655704Y-49914276D01*
X150834799Y-49949900D01*
X151017401Y-49949900D01*
X151043400Y-49944728D01*
X151043401Y-72876500D01*
X151037299Y-72876500D01*
X150858204Y-72912124D01*
X150694257Y-72980034D01*
X150714239Y-72942650D01*
X150744374Y-72843310D01*
X150754549Y-72740000D01*
X150754549Y-70740000D01*
X150744374Y-70636690D01*
X150714239Y-70537350D01*
X150665304Y-70445798D01*
X150599448Y-70365552D01*
X150519202Y-70299696D01*
X150427650Y-70250761D01*
X150328310Y-70220626D01*
X150225000Y-70210451D01*
X148225000Y-70210451D01*
X148121690Y-70220626D01*
X148022350Y-70250761D01*
X147930798Y-70299696D01*
X147850552Y-70365552D01*
X147784696Y-70445798D01*
X147735761Y-70537350D01*
X147705626Y-70636690D01*
X147695451Y-70740000D01*
X147695451Y-72740000D01*
X147705626Y-72843310D01*
X147735761Y-72942650D01*
X147784696Y-73034202D01*
X147850552Y-73114448D01*
X147930798Y-73180304D01*
X148022350Y-73229239D01*
X148121690Y-73259374D01*
X148225000Y-73269549D01*
X148271366Y-73269549D01*
X148259124Y-73299104D01*
X148223500Y-73478199D01*
X148223500Y-73660801D01*
X148259124Y-73839896D01*
X148329004Y-74008599D01*
X148430452Y-74160428D01*
X148559572Y-74289548D01*
X148711401Y-74390996D01*
X148880104Y-74460876D01*
X149059199Y-74496500D01*
X149241801Y-74496500D01*
X149420896Y-74460876D01*
X149589599Y-74390996D01*
X149741428Y-74289548D01*
X149870548Y-74160428D01*
X149971996Y-74008599D01*
X150041876Y-73839896D01*
X150077500Y-73660801D01*
X150077500Y-73478199D01*
X150041876Y-73299104D01*
X150029634Y-73269549D01*
X150225000Y-73269549D01*
X150328310Y-73259374D01*
X150389729Y-73240742D01*
X150307104Y-73364401D01*
X150237224Y-73533104D01*
X150201600Y-73712199D01*
X150201600Y-73894801D01*
X150237224Y-74073896D01*
X150307104Y-74242599D01*
X150408552Y-74394428D01*
X150535979Y-74521855D01*
X150084234Y-74973600D01*
X147196314Y-74973600D01*
X147164299Y-74970447D01*
X147132285Y-74973600D01*
X147132278Y-74973600D01*
X147049127Y-74981790D01*
X147036485Y-74983035D01*
X146913583Y-75020317D01*
X146800316Y-75080859D01*
X146701036Y-75162336D01*
X146680620Y-75187213D01*
X144035549Y-77832285D01*
X144035549Y-77274000D01*
X144025374Y-77170690D01*
X143995239Y-77071350D01*
X143946304Y-76979798D01*
X143908000Y-76933124D01*
X143908000Y-76554861D01*
X143950202Y-76532304D01*
X144030448Y-76466448D01*
X144096304Y-76386202D01*
X144145239Y-76294650D01*
X144175374Y-76195310D01*
X144185549Y-76092000D01*
X144185549Y-75292000D01*
X144175374Y-75188690D01*
X144145239Y-75089350D01*
X144096304Y-74997798D01*
X144083982Y-74982784D01*
X145857588Y-73209179D01*
X145882464Y-73188764D01*
X145963941Y-73089484D01*
X146024483Y-72976217D01*
X146054030Y-72878812D01*
X146061765Y-72853315D01*
X146074354Y-72725500D01*
X146071200Y-72693478D01*
X146071200Y-59327911D01*
X146171984Y-59274041D01*
X146271264Y-59192564D01*
X146352741Y-59093284D01*
X146413283Y-58980017D01*
X146436383Y-58903867D01*
X146460000Y-58880250D01*
X146460000Y-58761322D01*
X146463154Y-58729300D01*
X146460000Y-58697278D01*
X146460000Y-58678432D01*
X146498230Y-58752076D01*
X146556000Y-58824224D01*
X146556000Y-58880250D01*
X146714750Y-59039000D01*
X146815013Y-59028266D01*
X146858000Y-59014658D01*
X146900987Y-59028266D01*
X147001250Y-59039000D01*
X147160000Y-58880250D01*
X147160000Y-58824224D01*
X147217770Y-58752076D01*
X147256000Y-58678432D01*
X147256000Y-58880250D01*
X147414750Y-59039000D01*
X147515013Y-59028266D01*
X147634264Y-58990517D01*
X147743860Y-58930228D01*
X147839588Y-58849716D01*
X147917770Y-58752076D01*
X147975401Y-58641059D01*
X148010266Y-58520933D01*
X148021026Y-58396312D01*
X148018000Y-57689750D01*
X147859250Y-57531000D01*
X147256000Y-57531000D01*
X147256000Y-57627750D01*
X147160000Y-57531750D01*
X147160000Y-57531000D01*
X147061000Y-57531000D01*
X147061000Y-57277000D01*
X147160000Y-57277000D01*
X147160000Y-57276250D01*
X147256000Y-57180250D01*
X147256000Y-57277000D01*
X147859250Y-57277000D01*
X148018000Y-57118250D01*
X148021026Y-56411688D01*
X148010266Y-56287067D01*
X147975401Y-56166941D01*
X147917770Y-56055924D01*
X147839588Y-55958284D01*
X147743860Y-55877772D01*
X147634264Y-55817483D01*
X147515013Y-55779734D01*
X147414750Y-55769000D01*
X147256000Y-55927750D01*
X147256000Y-56129568D01*
X147217770Y-56055924D01*
X147160000Y-55983776D01*
X147160000Y-55927750D01*
X147001250Y-55769000D01*
X146900987Y-55779734D01*
X146858000Y-55793342D01*
X146815013Y-55779734D01*
X146714750Y-55769000D01*
X146556000Y-55927750D01*
X146556000Y-55983776D01*
X146498230Y-56055924D01*
X146460000Y-56129568D01*
X146460000Y-55927750D01*
X146301250Y-55769000D01*
X146200987Y-55779734D01*
X146081736Y-55817483D01*
X145978177Y-55874451D01*
X145760000Y-55874451D01*
X145760000Y-46395260D01*
X145808604Y-46512599D01*
G37*
G04 #@! TD.AperFunction*
D21*
X142097608Y-74658026D02*
X142056000Y-74653928D01*
X141941750Y-74657000D01*
X141783000Y-74815750D01*
X141783000Y-75032707D01*
X141776117Y-75045584D01*
X141738835Y-75168486D01*
X141726246Y-75296300D01*
X141729401Y-75328332D01*
X141729400Y-76744451D01*
X141582600Y-76744451D01*
X141582600Y-74639549D01*
X142006000Y-74639549D01*
X142109310Y-74629374D01*
X142133640Y-74621993D01*
X142097608Y-74658026D01*
G04 #@! TA.AperFunction,Conductor*
D22*
G36*
X142097608Y-74658026D02*
G01*
X142056000Y-74653928D01*
X141941750Y-74657000D01*
X141783000Y-74815750D01*
X141783000Y-75032707D01*
X141776117Y-75045584D01*
X141738835Y-75168486D01*
X141726246Y-75296300D01*
X141729401Y-75328332D01*
X141729400Y-76744451D01*
X141582600Y-76744451D01*
X141582600Y-74639549D01*
X142006000Y-74639549D01*
X142109310Y-74629374D01*
X142133640Y-74621993D01*
X142097608Y-74658026D01*
G37*
G04 #@! TD.AperFunction*
D21*
X139627724Y-68770900D02*
X139553152Y-68845472D01*
X139451704Y-68997301D01*
X139381824Y-69166004D01*
X139346200Y-69345099D01*
X139346200Y-69527701D01*
X139381824Y-69706796D01*
X139451704Y-69875499D01*
X139553152Y-70027328D01*
X139682272Y-70156448D01*
X139834101Y-70257896D01*
X140002804Y-70327776D01*
X140181899Y-70363400D01*
X140364501Y-70363400D01*
X140543596Y-70327776D01*
X140698815Y-70263481D01*
X141190505Y-70755171D01*
X141131552Y-70803552D01*
X141065696Y-70883798D01*
X141016761Y-70975350D01*
X141009731Y-70998526D01*
X140929983Y-71022717D01*
X140837446Y-71072179D01*
X140838072Y-71003000D01*
X140825812Y-70878518D01*
X140789502Y-70758820D01*
X140730537Y-70648506D01*
X140651185Y-70551815D01*
X140554494Y-70472463D01*
X140444180Y-70413498D01*
X140324482Y-70377188D01*
X140200000Y-70364928D01*
X139985750Y-70368000D01*
X139827000Y-70526750D01*
X139827000Y-71501000D01*
X139847000Y-71501000D01*
X139847000Y-71755000D01*
X139827000Y-71755000D01*
X139827000Y-71775000D01*
X139573000Y-71775000D01*
X139573000Y-71755000D01*
X139553000Y-71755000D01*
X139553000Y-71501000D01*
X139573000Y-71501000D01*
X139573000Y-70526750D01*
X139414250Y-70368000D01*
X139200000Y-70364928D01*
X139075518Y-70377188D01*
X138955820Y-70413498D01*
X138845506Y-70472463D01*
X138748815Y-70551815D01*
X138669463Y-70648506D01*
X138638446Y-70706534D01*
X138574448Y-70628552D01*
X138494202Y-70562696D01*
X138415400Y-70520576D01*
X138488328Y-70471848D01*
X138617448Y-70342728D01*
X138718896Y-70190899D01*
X138788776Y-70022196D01*
X138824400Y-69843101D01*
X138824400Y-69660499D01*
X138788776Y-69481404D01*
X138777437Y-69454029D01*
X139544145Y-68687321D01*
X139627724Y-68770900D01*
G04 #@! TA.AperFunction,Conductor*
D22*
G36*
X139627724Y-68770900D02*
G01*
X139553152Y-68845472D01*
X139451704Y-68997301D01*
X139381824Y-69166004D01*
X139346200Y-69345099D01*
X139346200Y-69527701D01*
X139381824Y-69706796D01*
X139451704Y-69875499D01*
X139553152Y-70027328D01*
X139682272Y-70156448D01*
X139834101Y-70257896D01*
X140002804Y-70327776D01*
X140181899Y-70363400D01*
X140364501Y-70363400D01*
X140543596Y-70327776D01*
X140698815Y-70263481D01*
X141190505Y-70755171D01*
X141131552Y-70803552D01*
X141065696Y-70883798D01*
X141016761Y-70975350D01*
X141009731Y-70998526D01*
X140929983Y-71022717D01*
X140837446Y-71072179D01*
X140838072Y-71003000D01*
X140825812Y-70878518D01*
X140789502Y-70758820D01*
X140730537Y-70648506D01*
X140651185Y-70551815D01*
X140554494Y-70472463D01*
X140444180Y-70413498D01*
X140324482Y-70377188D01*
X140200000Y-70364928D01*
X139985750Y-70368000D01*
X139827000Y-70526750D01*
X139827000Y-71501000D01*
X139847000Y-71501000D01*
X139847000Y-71755000D01*
X139827000Y-71755000D01*
X139827000Y-71775000D01*
X139573000Y-71775000D01*
X139573000Y-71755000D01*
X139553000Y-71755000D01*
X139553000Y-71501000D01*
X139573000Y-71501000D01*
X139573000Y-70526750D01*
X139414250Y-70368000D01*
X139200000Y-70364928D01*
X139075518Y-70377188D01*
X138955820Y-70413498D01*
X138845506Y-70472463D01*
X138748815Y-70551815D01*
X138669463Y-70648506D01*
X138638446Y-70706534D01*
X138574448Y-70628552D01*
X138494202Y-70562696D01*
X138415400Y-70520576D01*
X138488328Y-70471848D01*
X138617448Y-70342728D01*
X138718896Y-70190899D01*
X138788776Y-70022196D01*
X138824400Y-69843101D01*
X138824400Y-69660499D01*
X138788776Y-69481404D01*
X138777437Y-69454029D01*
X139544145Y-68687321D01*
X139627724Y-68770900D01*
G37*
G04 #@! TD.AperFunction*
M02*
