G04 #@! TF.GenerationSoftware,KiCad,Pcbnew,(5.1.7)-1*
G04 #@! TF.CreationDate,2021-10-09T11:46:55+02:00*
G04 #@! TF.ProjectId,20210211_eduino,32303231-3032-4313-915f-656475696e6f,v1.0*
G04 #@! TF.SameCoordinates,Original*
G04 #@! TF.FileFunction,Paste,Bot*
G04 #@! TF.FilePolarity,Positive*
%FSLAX46Y46*%
G04 Gerber Fmt 4.6, Leading zero omitted, Abs format (unit mm)*
G04 Created by KiCad (PCBNEW (5.1.7)-1) date 2021-10-09 11:46:55*
%MOMM*%
%LPD*%
G01*
G04 APERTURE LIST*
%ADD10R,0.750000X0.800000*%
%ADD11R,0.900000X0.500000*%
%ADD12R,1.700000X0.900000*%
%ADD13R,2.000000X1.500000*%
%ADD14R,2.000000X3.800000*%
%ADD15C,1.524000*%
%ADD16R,0.500000X0.900000*%
%ADD17R,3.000000X1.500000*%
G04 APERTURE END LIST*
D10*
X129032000Y-43422000D03*
X129032000Y-41922000D03*
D11*
X129032000Y-48577500D03*
X129032000Y-47077500D03*
D12*
X151892000Y-71858400D03*
X151892000Y-75258400D03*
X147828000Y-75258400D03*
X147828000Y-71858400D03*
G36*
G01*
X149660000Y-40997100D02*
X149660000Y-41754900D01*
G75*
G02*
X149588900Y-41826000I-71100J0D01*
G01*
X148231100Y-41826000D01*
G75*
G02*
X148160000Y-41754900I0J71100D01*
G01*
X148160000Y-40997100D01*
G75*
G02*
X148231100Y-40926000I71100J0D01*
G01*
X149588900Y-40926000D01*
G75*
G02*
X149660000Y-40997100I0J-71100D01*
G01*
G37*
G36*
G01*
X149660000Y-42497100D02*
X149660000Y-43254900D01*
G75*
G02*
X149588900Y-43326000I-71100J0D01*
G01*
X148231100Y-43326000D01*
G75*
G02*
X148160000Y-43254900I0J71100D01*
G01*
X148160000Y-42497100D01*
G75*
G02*
X148231100Y-42426000I71100J0D01*
G01*
X149588900Y-42426000D01*
G75*
G02*
X149660000Y-42497100I0J-71100D01*
G01*
G37*
G36*
G01*
X149660000Y-43997100D02*
X149660000Y-44754900D01*
G75*
G02*
X149588900Y-44826000I-71100J0D01*
G01*
X148231100Y-44826000D01*
G75*
G02*
X148160000Y-44754900I0J71100D01*
G01*
X148160000Y-43997100D01*
G75*
G02*
X148231100Y-43926000I71100J0D01*
G01*
X149588900Y-43926000D01*
G75*
G02*
X149660000Y-43997100I0J-71100D01*
G01*
G37*
G36*
G01*
X149660000Y-45497100D02*
X149660000Y-46254900D01*
G75*
G02*
X149588900Y-46326000I-71100J0D01*
G01*
X148231100Y-46326000D01*
G75*
G02*
X148160000Y-46254900I0J71100D01*
G01*
X148160000Y-45497100D01*
G75*
G02*
X148231100Y-45426000I71100J0D01*
G01*
X149588900Y-45426000D01*
G75*
G02*
X149660000Y-45497100I0J-71100D01*
G01*
G37*
G36*
G01*
X149660000Y-46997100D02*
X149660000Y-47754900D01*
G75*
G02*
X149588900Y-47826000I-71100J0D01*
G01*
X148231100Y-47826000D01*
G75*
G02*
X148160000Y-47754900I0J71100D01*
G01*
X148160000Y-46997100D01*
G75*
G02*
X148231100Y-46926000I71100J0D01*
G01*
X149588900Y-46926000D01*
G75*
G02*
X149660000Y-46997100I0J-71100D01*
G01*
G37*
G36*
G01*
X149660000Y-48497100D02*
X149660000Y-49254900D01*
G75*
G02*
X149588900Y-49326000I-71100J0D01*
G01*
X148231100Y-49326000D01*
G75*
G02*
X148160000Y-49254900I0J71100D01*
G01*
X148160000Y-48497100D01*
G75*
G02*
X148231100Y-48426000I71100J0D01*
G01*
X149588900Y-48426000D01*
G75*
G02*
X149660000Y-48497100I0J-71100D01*
G01*
G37*
G36*
G01*
X149660000Y-49997100D02*
X149660000Y-50754900D01*
G75*
G02*
X149588900Y-50826000I-71100J0D01*
G01*
X148231100Y-50826000D01*
G75*
G02*
X148160000Y-50754900I0J71100D01*
G01*
X148160000Y-49997100D01*
G75*
G02*
X148231100Y-49926000I71100J0D01*
G01*
X149588900Y-49926000D01*
G75*
G02*
X149660000Y-49997100I0J-71100D01*
G01*
G37*
G36*
G01*
X149660000Y-51497100D02*
X149660000Y-52254900D01*
G75*
G02*
X149588900Y-52326000I-71100J0D01*
G01*
X148231100Y-52326000D01*
G75*
G02*
X148160000Y-52254900I0J71100D01*
G01*
X148160000Y-51497100D01*
G75*
G02*
X148231100Y-51426000I71100J0D01*
G01*
X149588900Y-51426000D01*
G75*
G02*
X149660000Y-51497100I0J-71100D01*
G01*
G37*
G36*
G01*
X149660000Y-52997100D02*
X149660000Y-53754900D01*
G75*
G02*
X149588900Y-53826000I-71100J0D01*
G01*
X148231100Y-53826000D01*
G75*
G02*
X148160000Y-53754900I0J71100D01*
G01*
X148160000Y-52997100D01*
G75*
G02*
X148231100Y-52926000I71100J0D01*
G01*
X149588900Y-52926000D01*
G75*
G02*
X149660000Y-52997100I0J-71100D01*
G01*
G37*
G36*
G01*
X149660000Y-54497100D02*
X149660000Y-55254900D01*
G75*
G02*
X149588900Y-55326000I-71100J0D01*
G01*
X148231100Y-55326000D01*
G75*
G02*
X148160000Y-55254900I0J71100D01*
G01*
X148160000Y-54497100D01*
G75*
G02*
X148231100Y-54426000I71100J0D01*
G01*
X149588900Y-54426000D01*
G75*
G02*
X149660000Y-54497100I0J-71100D01*
G01*
G37*
G36*
G01*
X149660000Y-55997100D02*
X149660000Y-56754900D01*
G75*
G02*
X149588900Y-56826000I-71100J0D01*
G01*
X148231100Y-56826000D01*
G75*
G02*
X148160000Y-56754900I0J71100D01*
G01*
X148160000Y-55997100D01*
G75*
G02*
X148231100Y-55926000I71100J0D01*
G01*
X149588900Y-55926000D01*
G75*
G02*
X149660000Y-55997100I0J-71100D01*
G01*
G37*
G36*
G01*
X149660000Y-57497100D02*
X149660000Y-58254900D01*
G75*
G02*
X149588900Y-58326000I-71100J0D01*
G01*
X148231100Y-58326000D01*
G75*
G02*
X148160000Y-58254900I0J71100D01*
G01*
X148160000Y-57497100D01*
G75*
G02*
X148231100Y-57426000I71100J0D01*
G01*
X149588900Y-57426000D01*
G75*
G02*
X149660000Y-57497100I0J-71100D01*
G01*
G37*
G36*
G01*
X149660000Y-58997100D02*
X149660000Y-59754900D01*
G75*
G02*
X149588900Y-59826000I-71100J0D01*
G01*
X148231100Y-59826000D01*
G75*
G02*
X148160000Y-59754900I0J71100D01*
G01*
X148160000Y-58997100D01*
G75*
G02*
X148231100Y-58926000I71100J0D01*
G01*
X149588900Y-58926000D01*
G75*
G02*
X149660000Y-58997100I0J-71100D01*
G01*
G37*
G36*
G01*
X149660000Y-60497100D02*
X149660000Y-61254900D01*
G75*
G02*
X149588900Y-61326000I-71100J0D01*
G01*
X148231100Y-61326000D01*
G75*
G02*
X148160000Y-61254900I0J71100D01*
G01*
X148160000Y-60497100D01*
G75*
G02*
X148231100Y-60426000I71100J0D01*
G01*
X149588900Y-60426000D01*
G75*
G02*
X149660000Y-60497100I0J-71100D01*
G01*
G37*
G36*
G01*
X149660000Y-61997100D02*
X149660000Y-62754900D01*
G75*
G02*
X149588900Y-62826000I-71100J0D01*
G01*
X148231100Y-62826000D01*
G75*
G02*
X148160000Y-62754900I0J71100D01*
G01*
X148160000Y-61997100D01*
G75*
G02*
X148231100Y-61926000I71100J0D01*
G01*
X149588900Y-61926000D01*
G75*
G02*
X149660000Y-61997100I0J-71100D01*
G01*
G37*
G36*
G01*
X149660000Y-63497100D02*
X149660000Y-64254900D01*
G75*
G02*
X149588900Y-64326000I-71100J0D01*
G01*
X148231100Y-64326000D01*
G75*
G02*
X148160000Y-64254900I0J71100D01*
G01*
X148160000Y-63497100D01*
G75*
G02*
X148231100Y-63426000I71100J0D01*
G01*
X149588900Y-63426000D01*
G75*
G02*
X149660000Y-63497100I0J-71100D01*
G01*
G37*
G36*
G01*
X147288900Y-65376000D02*
X146531100Y-65376000D01*
G75*
G02*
X146460000Y-65304900I0J71100D01*
G01*
X146460000Y-63947100D01*
G75*
G02*
X146531100Y-63876000I71100J0D01*
G01*
X147288900Y-63876000D01*
G75*
G02*
X147360000Y-63947100I0J-71100D01*
G01*
X147360000Y-65304900D01*
G75*
G02*
X147288900Y-65376000I-71100J0D01*
G01*
G37*
G36*
G01*
X145788900Y-65376000D02*
X145031100Y-65376000D01*
G75*
G02*
X144960000Y-65304900I0J71100D01*
G01*
X144960000Y-63947100D01*
G75*
G02*
X145031100Y-63876000I71100J0D01*
G01*
X145788900Y-63876000D01*
G75*
G02*
X145860000Y-63947100I0J-71100D01*
G01*
X145860000Y-65304900D01*
G75*
G02*
X145788900Y-65376000I-71100J0D01*
G01*
G37*
G36*
G01*
X144288900Y-65376000D02*
X143531100Y-65376000D01*
G75*
G02*
X143460000Y-65304900I0J71100D01*
G01*
X143460000Y-63947100D01*
G75*
G02*
X143531100Y-63876000I71100J0D01*
G01*
X144288900Y-63876000D01*
G75*
G02*
X144360000Y-63947100I0J-71100D01*
G01*
X144360000Y-65304900D01*
G75*
G02*
X144288900Y-65376000I-71100J0D01*
G01*
G37*
G36*
G01*
X142788900Y-65376000D02*
X142031100Y-65376000D01*
G75*
G02*
X141960000Y-65304900I0J71100D01*
G01*
X141960000Y-63947100D01*
G75*
G02*
X142031100Y-63876000I71100J0D01*
G01*
X142788900Y-63876000D01*
G75*
G02*
X142860000Y-63947100I0J-71100D01*
G01*
X142860000Y-65304900D01*
G75*
G02*
X142788900Y-65376000I-71100J0D01*
G01*
G37*
G36*
G01*
X141288900Y-65376000D02*
X140531100Y-65376000D01*
G75*
G02*
X140460000Y-65304900I0J71100D01*
G01*
X140460000Y-63947100D01*
G75*
G02*
X140531100Y-63876000I71100J0D01*
G01*
X141288900Y-63876000D01*
G75*
G02*
X141360000Y-63947100I0J-71100D01*
G01*
X141360000Y-65304900D01*
G75*
G02*
X141288900Y-65376000I-71100J0D01*
G01*
G37*
G36*
G01*
X139788900Y-65376000D02*
X139031100Y-65376000D01*
G75*
G02*
X138960000Y-65304900I0J71100D01*
G01*
X138960000Y-63947100D01*
G75*
G02*
X139031100Y-63876000I71100J0D01*
G01*
X139788900Y-63876000D01*
G75*
G02*
X139860000Y-63947100I0J-71100D01*
G01*
X139860000Y-65304900D01*
G75*
G02*
X139788900Y-65376000I-71100J0D01*
G01*
G37*
G36*
G01*
X138288900Y-65376000D02*
X137531100Y-65376000D01*
G75*
G02*
X137460000Y-65304900I0J71100D01*
G01*
X137460000Y-63947100D01*
G75*
G02*
X137531100Y-63876000I71100J0D01*
G01*
X138288900Y-63876000D01*
G75*
G02*
X138360000Y-63947100I0J-71100D01*
G01*
X138360000Y-65304900D01*
G75*
G02*
X138288900Y-65376000I-71100J0D01*
G01*
G37*
G36*
G01*
X136788900Y-65376000D02*
X136031100Y-65376000D01*
G75*
G02*
X135960000Y-65304900I0J71100D01*
G01*
X135960000Y-63947100D01*
G75*
G02*
X136031100Y-63876000I71100J0D01*
G01*
X136788900Y-63876000D01*
G75*
G02*
X136860000Y-63947100I0J-71100D01*
G01*
X136860000Y-65304900D01*
G75*
G02*
X136788900Y-65376000I-71100J0D01*
G01*
G37*
G36*
G01*
X135288900Y-65376000D02*
X134531100Y-65376000D01*
G75*
G02*
X134460000Y-65304900I0J71100D01*
G01*
X134460000Y-63947100D01*
G75*
G02*
X134531100Y-63876000I71100J0D01*
G01*
X135288900Y-63876000D01*
G75*
G02*
X135360000Y-63947100I0J-71100D01*
G01*
X135360000Y-65304900D01*
G75*
G02*
X135288900Y-65376000I-71100J0D01*
G01*
G37*
G36*
G01*
X133788900Y-65376000D02*
X133031100Y-65376000D01*
G75*
G02*
X132960000Y-65304900I0J71100D01*
G01*
X132960000Y-63947100D01*
G75*
G02*
X133031100Y-63876000I71100J0D01*
G01*
X133788900Y-63876000D01*
G75*
G02*
X133860000Y-63947100I0J-71100D01*
G01*
X133860000Y-65304900D01*
G75*
G02*
X133788900Y-65376000I-71100J0D01*
G01*
G37*
G36*
G01*
X130660000Y-64254900D02*
X130660000Y-63497100D01*
G75*
G02*
X130731100Y-63426000I71100J0D01*
G01*
X132088900Y-63426000D01*
G75*
G02*
X132160000Y-63497100I0J-71100D01*
G01*
X132160000Y-64254900D01*
G75*
G02*
X132088900Y-64326000I-71100J0D01*
G01*
X130731100Y-64326000D01*
G75*
G02*
X130660000Y-64254900I0J71100D01*
G01*
G37*
G36*
G01*
X130660000Y-62754900D02*
X130660000Y-61997100D01*
G75*
G02*
X130731100Y-61926000I71100J0D01*
G01*
X132088900Y-61926000D01*
G75*
G02*
X132160000Y-61997100I0J-71100D01*
G01*
X132160000Y-62754900D01*
G75*
G02*
X132088900Y-62826000I-71100J0D01*
G01*
X130731100Y-62826000D01*
G75*
G02*
X130660000Y-62754900I0J71100D01*
G01*
G37*
G36*
G01*
X130660000Y-61254900D02*
X130660000Y-60497100D01*
G75*
G02*
X130731100Y-60426000I71100J0D01*
G01*
X132088900Y-60426000D01*
G75*
G02*
X132160000Y-60497100I0J-71100D01*
G01*
X132160000Y-61254900D01*
G75*
G02*
X132088900Y-61326000I-71100J0D01*
G01*
X130731100Y-61326000D01*
G75*
G02*
X130660000Y-61254900I0J71100D01*
G01*
G37*
G36*
G01*
X130660000Y-59754900D02*
X130660000Y-58997100D01*
G75*
G02*
X130731100Y-58926000I71100J0D01*
G01*
X132088900Y-58926000D01*
G75*
G02*
X132160000Y-58997100I0J-71100D01*
G01*
X132160000Y-59754900D01*
G75*
G02*
X132088900Y-59826000I-71100J0D01*
G01*
X130731100Y-59826000D01*
G75*
G02*
X130660000Y-59754900I0J71100D01*
G01*
G37*
G36*
G01*
X130660000Y-58254900D02*
X130660000Y-57497100D01*
G75*
G02*
X130731100Y-57426000I71100J0D01*
G01*
X132088900Y-57426000D01*
G75*
G02*
X132160000Y-57497100I0J-71100D01*
G01*
X132160000Y-58254900D01*
G75*
G02*
X132088900Y-58326000I-71100J0D01*
G01*
X130731100Y-58326000D01*
G75*
G02*
X130660000Y-58254900I0J71100D01*
G01*
G37*
G36*
G01*
X130660000Y-56754900D02*
X130660000Y-55997100D01*
G75*
G02*
X130731100Y-55926000I71100J0D01*
G01*
X132088900Y-55926000D01*
G75*
G02*
X132160000Y-55997100I0J-71100D01*
G01*
X132160000Y-56754900D01*
G75*
G02*
X132088900Y-56826000I-71100J0D01*
G01*
X130731100Y-56826000D01*
G75*
G02*
X130660000Y-56754900I0J71100D01*
G01*
G37*
G36*
G01*
X130660000Y-55254900D02*
X130660000Y-54497100D01*
G75*
G02*
X130731100Y-54426000I71100J0D01*
G01*
X132088900Y-54426000D01*
G75*
G02*
X132160000Y-54497100I0J-71100D01*
G01*
X132160000Y-55254900D01*
G75*
G02*
X132088900Y-55326000I-71100J0D01*
G01*
X130731100Y-55326000D01*
G75*
G02*
X130660000Y-55254900I0J71100D01*
G01*
G37*
G36*
G01*
X130660000Y-53754900D02*
X130660000Y-52997100D01*
G75*
G02*
X130731100Y-52926000I71100J0D01*
G01*
X132088900Y-52926000D01*
G75*
G02*
X132160000Y-52997100I0J-71100D01*
G01*
X132160000Y-53754900D01*
G75*
G02*
X132088900Y-53826000I-71100J0D01*
G01*
X130731100Y-53826000D01*
G75*
G02*
X130660000Y-53754900I0J71100D01*
G01*
G37*
G36*
G01*
X130660000Y-52254900D02*
X130660000Y-51497100D01*
G75*
G02*
X130731100Y-51426000I71100J0D01*
G01*
X132088900Y-51426000D01*
G75*
G02*
X132160000Y-51497100I0J-71100D01*
G01*
X132160000Y-52254900D01*
G75*
G02*
X132088900Y-52326000I-71100J0D01*
G01*
X130731100Y-52326000D01*
G75*
G02*
X130660000Y-52254900I0J71100D01*
G01*
G37*
G36*
G01*
X130660000Y-50754900D02*
X130660000Y-49997100D01*
G75*
G02*
X130731100Y-49926000I71100J0D01*
G01*
X132088900Y-49926000D01*
G75*
G02*
X132160000Y-49997100I0J-71100D01*
G01*
X132160000Y-50754900D01*
G75*
G02*
X132088900Y-50826000I-71100J0D01*
G01*
X130731100Y-50826000D01*
G75*
G02*
X130660000Y-50754900I0J71100D01*
G01*
G37*
G36*
G01*
X130660000Y-49254900D02*
X130660000Y-48497100D01*
G75*
G02*
X130731100Y-48426000I71100J0D01*
G01*
X132088900Y-48426000D01*
G75*
G02*
X132160000Y-48497100I0J-71100D01*
G01*
X132160000Y-49254900D01*
G75*
G02*
X132088900Y-49326000I-71100J0D01*
G01*
X130731100Y-49326000D01*
G75*
G02*
X130660000Y-49254900I0J71100D01*
G01*
G37*
G36*
G01*
X130660000Y-47754900D02*
X130660000Y-46997100D01*
G75*
G02*
X130731100Y-46926000I71100J0D01*
G01*
X132088900Y-46926000D01*
G75*
G02*
X132160000Y-46997100I0J-71100D01*
G01*
X132160000Y-47754900D01*
G75*
G02*
X132088900Y-47826000I-71100J0D01*
G01*
X130731100Y-47826000D01*
G75*
G02*
X130660000Y-47754900I0J71100D01*
G01*
G37*
G36*
G01*
X130660000Y-46254900D02*
X130660000Y-45497100D01*
G75*
G02*
X130731100Y-45426000I71100J0D01*
G01*
X132088900Y-45426000D01*
G75*
G02*
X132160000Y-45497100I0J-71100D01*
G01*
X132160000Y-46254900D01*
G75*
G02*
X132088900Y-46326000I-71100J0D01*
G01*
X130731100Y-46326000D01*
G75*
G02*
X130660000Y-46254900I0J71100D01*
G01*
G37*
G36*
G01*
X130660000Y-44754900D02*
X130660000Y-43997100D01*
G75*
G02*
X130731100Y-43926000I71100J0D01*
G01*
X132088900Y-43926000D01*
G75*
G02*
X132160000Y-43997100I0J-71100D01*
G01*
X132160000Y-44754900D01*
G75*
G02*
X132088900Y-44826000I-71100J0D01*
G01*
X130731100Y-44826000D01*
G75*
G02*
X130660000Y-44754900I0J71100D01*
G01*
G37*
G36*
G01*
X130660000Y-43254900D02*
X130660000Y-42497100D01*
G75*
G02*
X130731100Y-42426000I71100J0D01*
G01*
X132088900Y-42426000D01*
G75*
G02*
X132160000Y-42497100I0J-71100D01*
G01*
X132160000Y-43254900D01*
G75*
G02*
X132088900Y-43326000I-71100J0D01*
G01*
X130731100Y-43326000D01*
G75*
G02*
X130660000Y-43254900I0J71100D01*
G01*
G37*
G36*
G01*
X130660000Y-41754900D02*
X130660000Y-40997100D01*
G75*
G02*
X130731100Y-40926000I71100J0D01*
G01*
X132088900Y-40926000D01*
G75*
G02*
X132160000Y-40997100I0J-71100D01*
G01*
X132160000Y-41754900D01*
G75*
G02*
X132088900Y-41826000I-71100J0D01*
G01*
X130731100Y-41826000D01*
G75*
G02*
X130660000Y-41754900I0J71100D01*
G01*
G37*
G36*
G01*
X142250000Y-48414100D02*
X142250000Y-47487900D01*
G75*
G02*
X142336900Y-47401000I86900J0D01*
G01*
X143263100Y-47401000D01*
G75*
G02*
X143350000Y-47487900I0J-86900D01*
G01*
X143350000Y-48414100D01*
G75*
G02*
X143263100Y-48501000I-86900J0D01*
G01*
X142336900Y-48501000D01*
G75*
G02*
X142250000Y-48414100I0J86900D01*
G01*
G37*
G36*
G01*
X140750000Y-48414100D02*
X140750000Y-47487900D01*
G75*
G02*
X140836900Y-47401000I86900J0D01*
G01*
X141763100Y-47401000D01*
G75*
G02*
X141850000Y-47487900I0J-86900D01*
G01*
X141850000Y-48414100D01*
G75*
G02*
X141763100Y-48501000I-86900J0D01*
G01*
X140836900Y-48501000D01*
G75*
G02*
X140750000Y-48414100I0J86900D01*
G01*
G37*
G36*
G01*
X139250000Y-48414100D02*
X139250000Y-47487900D01*
G75*
G02*
X139336900Y-47401000I86900J0D01*
G01*
X140263100Y-47401000D01*
G75*
G02*
X140350000Y-47487900I0J-86900D01*
G01*
X140350000Y-48414100D01*
G75*
G02*
X140263100Y-48501000I-86900J0D01*
G01*
X139336900Y-48501000D01*
G75*
G02*
X139250000Y-48414100I0J86900D01*
G01*
G37*
G36*
G01*
X142250000Y-49914100D02*
X142250000Y-48987900D01*
G75*
G02*
X142336900Y-48901000I86900J0D01*
G01*
X143263100Y-48901000D01*
G75*
G02*
X143350000Y-48987900I0J-86900D01*
G01*
X143350000Y-49914100D01*
G75*
G02*
X143263100Y-50001000I-86900J0D01*
G01*
X142336900Y-50001000D01*
G75*
G02*
X142250000Y-49914100I0J86900D01*
G01*
G37*
G36*
G01*
X140750000Y-49914100D02*
X140750000Y-48987900D01*
G75*
G02*
X140836900Y-48901000I86900J0D01*
G01*
X141763100Y-48901000D01*
G75*
G02*
X141850000Y-48987900I0J-86900D01*
G01*
X141850000Y-49914100D01*
G75*
G02*
X141763100Y-50001000I-86900J0D01*
G01*
X140836900Y-50001000D01*
G75*
G02*
X140750000Y-49914100I0J86900D01*
G01*
G37*
G36*
G01*
X139250000Y-49914100D02*
X139250000Y-48987900D01*
G75*
G02*
X139336900Y-48901000I86900J0D01*
G01*
X140263100Y-48901000D01*
G75*
G02*
X140350000Y-48987900I0J-86900D01*
G01*
X140350000Y-49914100D01*
G75*
G02*
X140263100Y-50001000I-86900J0D01*
G01*
X139336900Y-50001000D01*
G75*
G02*
X139250000Y-49914100I0J86900D01*
G01*
G37*
G36*
G01*
X142250000Y-51414100D02*
X142250000Y-50487900D01*
G75*
G02*
X142336900Y-50401000I86900J0D01*
G01*
X143263100Y-50401000D01*
G75*
G02*
X143350000Y-50487900I0J-86900D01*
G01*
X143350000Y-51414100D01*
G75*
G02*
X143263100Y-51501000I-86900J0D01*
G01*
X142336900Y-51501000D01*
G75*
G02*
X142250000Y-51414100I0J86900D01*
G01*
G37*
G36*
G01*
X140750000Y-51414100D02*
X140750000Y-50487900D01*
G75*
G02*
X140836900Y-50401000I86900J0D01*
G01*
X141763100Y-50401000D01*
G75*
G02*
X141850000Y-50487900I0J-86900D01*
G01*
X141850000Y-51414100D01*
G75*
G02*
X141763100Y-51501000I-86900J0D01*
G01*
X140836900Y-51501000D01*
G75*
G02*
X140750000Y-51414100I0J86900D01*
G01*
G37*
G36*
G01*
X139250000Y-51414100D02*
X139250000Y-50487900D01*
G75*
G02*
X139336900Y-50401000I86900J0D01*
G01*
X140263100Y-50401000D01*
G75*
G02*
X140350000Y-50487900I0J-86900D01*
G01*
X140350000Y-51414100D01*
G75*
G02*
X140263100Y-51501000I-86900J0D01*
G01*
X139336900Y-51501000D01*
G75*
G02*
X139250000Y-51414100I0J86900D01*
G01*
G37*
D13*
X128930000Y-77039500D03*
X128930000Y-72439500D03*
X128930000Y-74739500D03*
D14*
X135230000Y-74739500D03*
D15*
X152248000Y-50190400D03*
X152248000Y-47650400D03*
X152248000Y-45110400D03*
X152248000Y-42570400D03*
D16*
X148641000Y-78689200D03*
X147141000Y-78689200D03*
X150290000Y-78689200D03*
X151790000Y-78689200D03*
D17*
X135788000Y-70053200D03*
X145948000Y-70053200D03*
M02*
