M48
; DRILL file {KiCad (5.1.7)-1} date 10/09/21 11:46:58
; FORMAT={-:-/ absolute / metric / decimal}
; #@! TF.CreationDate,2021-10-09T11:46:58+02:00
; #@! TF.GenerationSoftware,Kicad,Pcbnew,(5.1.7)-1
; #@! TF.FileFunction,Plated,1,2,PTH
FMAT,2
METRIC
T1C0.250
T2C0.400
T3C1.000
T4C1.050
%
G90
G05
T2
X134.417Y-69.596
X134.849Y-51.816
X134.849Y-52.781
X134.874Y-53.797
X134.874Y-54.915
X136.475Y-77.938
X137.59Y-73.77
X137.897Y-69.752
X138.8Y-71.699
X139.7Y-77.212
X139.744Y-59.078
X140.258Y-68.09
X140.273Y-69.436
X140.274Y-67.035
X140.283Y-73.484
X140.756Y-59.223
X141.656Y-74.71
X142.051Y-78.847
X142.619Y-59.414
X142.847Y-50.982
X143.506Y-61.853
X143.789Y-53.238
X144.665Y-63.291
X144.831Y-44.221
X145.948Y-54.077
X145.987Y-44.915
X146.63Y-46.073
X147.457Y-47.288
X149.15Y-73.569
X150.412Y-45.585
X150.639Y-47.042
X150.745Y-43.218
X150.926Y-49.023
X151.129Y-73.803
X152.806Y-74.117
T3
X136.708Y-79.942
X139.208Y-79.942
X141.208Y-79.942
X143.708Y-79.942
T1
G00X139.813Y-48.71
M15
G01X139.813Y-48.71
M16
G05
G00X139.813Y-50.183
M15
G01X139.813Y-50.183
M16
G05
G00X140.524Y-47.897
M15
G01X140.524Y-47.897
M16
G05
G00X140.524Y-49.37
M15
G01X140.524Y-49.37
M16
G05
G00X140.575Y-50.894
M15
G01X140.575Y-50.894
M16
G05
G00X141.286Y-48.71
M15
G01X141.286Y-48.71
M16
G05
G00X141.337Y-50.183
M15
G01X141.337Y-50.183
M16
G05
G00X142.048Y-47.897
M15
G01X142.048Y-47.897
M16
G05
G00X142.048Y-49.421
M15
G01X142.048Y-49.421
M16
G05
G00X142.048Y-50.894
M15
G01X142.048Y-50.894
M16
G05
G00X142.81Y-48.71
M15
G01X142.81Y-48.71
M16
G05
G00X142.81Y-50.183
M15
G01X142.81Y-50.183
M16
G05
T4
G00X134.508Y-81.267
M15
G01X134.508Y-82.817
M16
G05
G00X145.908Y-81.267
M15
G01X145.908Y-82.817
M16
G05
T0
M30
