G04 #@! TF.GenerationSoftware,KiCad,Pcbnew,(5.1.7)-1*
G04 #@! TF.CreationDate,2021-10-09T11:46:55+02:00*
G04 #@! TF.ProjectId,20210211_eduino,32303231-3032-4313-915f-656475696e6f,v1.0*
G04 #@! TF.SameCoordinates,Original*
G04 #@! TF.FileFunction,Copper,L2,Bot*
G04 #@! TF.FilePolarity,Positive*
%FSLAX46Y46*%
G04 Gerber Fmt 4.6, Leading zero omitted, Abs format (unit mm)*
G04 Created by KiCad (PCBNEW (5.1.7)-1) date 2021-10-09 11:46:55*
%MOMM*%
%LPD*%
G01*
G04 APERTURE LIST*
G04 #@! TA.AperFunction,ComponentPad*
%ADD10O,1.575000X3.150000*%
G04 #@! TD*
G04 #@! TA.AperFunction,ComponentPad*
%ADD11C,1.508000*%
G04 #@! TD*
G04 #@! TA.AperFunction,ComponentPad*
%ADD12R,1.508000X1.508000*%
G04 #@! TD*
G04 #@! TA.AperFunction,SMDPad,CuDef*
%ADD13R,0.750000X0.800000*%
G04 #@! TD*
G04 #@! TA.AperFunction,SMDPad,CuDef*
%ADD14R,0.900000X0.500000*%
G04 #@! TD*
G04 #@! TA.AperFunction,SMDPad,CuDef*
%ADD15R,1.700000X0.900000*%
G04 #@! TD*
G04 #@! TA.AperFunction,ComponentPad*
%ADD16C,0.400000*%
G04 #@! TD*
G04 #@! TA.AperFunction,SMDPad,CuDef*
%ADD17R,2.000000X1.500000*%
G04 #@! TD*
G04 #@! TA.AperFunction,SMDPad,CuDef*
%ADD18R,2.000000X3.800000*%
G04 #@! TD*
G04 #@! TA.AperFunction,SMDPad,CuDef*
%ADD19C,1.524000*%
G04 #@! TD*
G04 #@! TA.AperFunction,SMDPad,CuDef*
%ADD20R,0.500000X0.900000*%
G04 #@! TD*
G04 #@! TA.AperFunction,SMDPad,CuDef*
%ADD21R,3.000000X1.500000*%
G04 #@! TD*
G04 #@! TA.AperFunction,ViaPad*
%ADD22C,0.800000*%
G04 #@! TD*
G04 #@! TA.AperFunction,Conductor*
%ADD23C,0.250000*%
G04 #@! TD*
G04 #@! TA.AperFunction,Conductor*
%ADD24C,0.254000*%
G04 #@! TD*
G04 #@! TA.AperFunction,Conductor*
%ADD25C,0.100000*%
G04 #@! TD*
G04 APERTURE END LIST*
D10*
X145908000Y-82042000D03*
X134508000Y-82042000D03*
D11*
X136708000Y-79942000D03*
X139208000Y-79942000D03*
X141208000Y-79942000D03*
D12*
X143708000Y-79942000D03*
D13*
X129032000Y-43422000D03*
X129032000Y-41922000D03*
D14*
X129032000Y-48577500D03*
X129032000Y-47077500D03*
D15*
X151892000Y-71858400D03*
X151892000Y-75258400D03*
X147828000Y-75258400D03*
X147828000Y-71858400D03*
G04 #@! TA.AperFunction,SMDPad,CuDef*
G36*
G01*
X149660000Y-40997100D02*
X149660000Y-41754900D01*
G75*
G02*
X149588900Y-41826000I-71100J0D01*
G01*
X148231100Y-41826000D01*
G75*
G02*
X148160000Y-41754900I0J71100D01*
G01*
X148160000Y-40997100D01*
G75*
G02*
X148231100Y-40926000I71100J0D01*
G01*
X149588900Y-40926000D01*
G75*
G02*
X149660000Y-40997100I0J-71100D01*
G01*
G37*
G04 #@! TD.AperFunction*
G04 #@! TA.AperFunction,SMDPad,CuDef*
G36*
G01*
X149660000Y-42497100D02*
X149660000Y-43254900D01*
G75*
G02*
X149588900Y-43326000I-71100J0D01*
G01*
X148231100Y-43326000D01*
G75*
G02*
X148160000Y-43254900I0J71100D01*
G01*
X148160000Y-42497100D01*
G75*
G02*
X148231100Y-42426000I71100J0D01*
G01*
X149588900Y-42426000D01*
G75*
G02*
X149660000Y-42497100I0J-71100D01*
G01*
G37*
G04 #@! TD.AperFunction*
G04 #@! TA.AperFunction,SMDPad,CuDef*
G36*
G01*
X149660000Y-43997100D02*
X149660000Y-44754900D01*
G75*
G02*
X149588900Y-44826000I-71100J0D01*
G01*
X148231100Y-44826000D01*
G75*
G02*
X148160000Y-44754900I0J71100D01*
G01*
X148160000Y-43997100D01*
G75*
G02*
X148231100Y-43926000I71100J0D01*
G01*
X149588900Y-43926000D01*
G75*
G02*
X149660000Y-43997100I0J-71100D01*
G01*
G37*
G04 #@! TD.AperFunction*
G04 #@! TA.AperFunction,SMDPad,CuDef*
G36*
G01*
X149660000Y-45497100D02*
X149660000Y-46254900D01*
G75*
G02*
X149588900Y-46326000I-71100J0D01*
G01*
X148231100Y-46326000D01*
G75*
G02*
X148160000Y-46254900I0J71100D01*
G01*
X148160000Y-45497100D01*
G75*
G02*
X148231100Y-45426000I71100J0D01*
G01*
X149588900Y-45426000D01*
G75*
G02*
X149660000Y-45497100I0J-71100D01*
G01*
G37*
G04 #@! TD.AperFunction*
G04 #@! TA.AperFunction,SMDPad,CuDef*
G36*
G01*
X149660000Y-46997100D02*
X149660000Y-47754900D01*
G75*
G02*
X149588900Y-47826000I-71100J0D01*
G01*
X148231100Y-47826000D01*
G75*
G02*
X148160000Y-47754900I0J71100D01*
G01*
X148160000Y-46997100D01*
G75*
G02*
X148231100Y-46926000I71100J0D01*
G01*
X149588900Y-46926000D01*
G75*
G02*
X149660000Y-46997100I0J-71100D01*
G01*
G37*
G04 #@! TD.AperFunction*
G04 #@! TA.AperFunction,SMDPad,CuDef*
G36*
G01*
X149660000Y-48497100D02*
X149660000Y-49254900D01*
G75*
G02*
X149588900Y-49326000I-71100J0D01*
G01*
X148231100Y-49326000D01*
G75*
G02*
X148160000Y-49254900I0J71100D01*
G01*
X148160000Y-48497100D01*
G75*
G02*
X148231100Y-48426000I71100J0D01*
G01*
X149588900Y-48426000D01*
G75*
G02*
X149660000Y-48497100I0J-71100D01*
G01*
G37*
G04 #@! TD.AperFunction*
G04 #@! TA.AperFunction,SMDPad,CuDef*
G36*
G01*
X149660000Y-49997100D02*
X149660000Y-50754900D01*
G75*
G02*
X149588900Y-50826000I-71100J0D01*
G01*
X148231100Y-50826000D01*
G75*
G02*
X148160000Y-50754900I0J71100D01*
G01*
X148160000Y-49997100D01*
G75*
G02*
X148231100Y-49926000I71100J0D01*
G01*
X149588900Y-49926000D01*
G75*
G02*
X149660000Y-49997100I0J-71100D01*
G01*
G37*
G04 #@! TD.AperFunction*
G04 #@! TA.AperFunction,SMDPad,CuDef*
G36*
G01*
X149660000Y-51497100D02*
X149660000Y-52254900D01*
G75*
G02*
X149588900Y-52326000I-71100J0D01*
G01*
X148231100Y-52326000D01*
G75*
G02*
X148160000Y-52254900I0J71100D01*
G01*
X148160000Y-51497100D01*
G75*
G02*
X148231100Y-51426000I71100J0D01*
G01*
X149588900Y-51426000D01*
G75*
G02*
X149660000Y-51497100I0J-71100D01*
G01*
G37*
G04 #@! TD.AperFunction*
G04 #@! TA.AperFunction,SMDPad,CuDef*
G36*
G01*
X149660000Y-52997100D02*
X149660000Y-53754900D01*
G75*
G02*
X149588900Y-53826000I-71100J0D01*
G01*
X148231100Y-53826000D01*
G75*
G02*
X148160000Y-53754900I0J71100D01*
G01*
X148160000Y-52997100D01*
G75*
G02*
X148231100Y-52926000I71100J0D01*
G01*
X149588900Y-52926000D01*
G75*
G02*
X149660000Y-52997100I0J-71100D01*
G01*
G37*
G04 #@! TD.AperFunction*
G04 #@! TA.AperFunction,SMDPad,CuDef*
G36*
G01*
X149660000Y-54497100D02*
X149660000Y-55254900D01*
G75*
G02*
X149588900Y-55326000I-71100J0D01*
G01*
X148231100Y-55326000D01*
G75*
G02*
X148160000Y-55254900I0J71100D01*
G01*
X148160000Y-54497100D01*
G75*
G02*
X148231100Y-54426000I71100J0D01*
G01*
X149588900Y-54426000D01*
G75*
G02*
X149660000Y-54497100I0J-71100D01*
G01*
G37*
G04 #@! TD.AperFunction*
G04 #@! TA.AperFunction,SMDPad,CuDef*
G36*
G01*
X149660000Y-55997100D02*
X149660000Y-56754900D01*
G75*
G02*
X149588900Y-56826000I-71100J0D01*
G01*
X148231100Y-56826000D01*
G75*
G02*
X148160000Y-56754900I0J71100D01*
G01*
X148160000Y-55997100D01*
G75*
G02*
X148231100Y-55926000I71100J0D01*
G01*
X149588900Y-55926000D01*
G75*
G02*
X149660000Y-55997100I0J-71100D01*
G01*
G37*
G04 #@! TD.AperFunction*
G04 #@! TA.AperFunction,SMDPad,CuDef*
G36*
G01*
X149660000Y-57497100D02*
X149660000Y-58254900D01*
G75*
G02*
X149588900Y-58326000I-71100J0D01*
G01*
X148231100Y-58326000D01*
G75*
G02*
X148160000Y-58254900I0J71100D01*
G01*
X148160000Y-57497100D01*
G75*
G02*
X148231100Y-57426000I71100J0D01*
G01*
X149588900Y-57426000D01*
G75*
G02*
X149660000Y-57497100I0J-71100D01*
G01*
G37*
G04 #@! TD.AperFunction*
G04 #@! TA.AperFunction,SMDPad,CuDef*
G36*
G01*
X149660000Y-58997100D02*
X149660000Y-59754900D01*
G75*
G02*
X149588900Y-59826000I-71100J0D01*
G01*
X148231100Y-59826000D01*
G75*
G02*
X148160000Y-59754900I0J71100D01*
G01*
X148160000Y-58997100D01*
G75*
G02*
X148231100Y-58926000I71100J0D01*
G01*
X149588900Y-58926000D01*
G75*
G02*
X149660000Y-58997100I0J-71100D01*
G01*
G37*
G04 #@! TD.AperFunction*
G04 #@! TA.AperFunction,SMDPad,CuDef*
G36*
G01*
X149660000Y-60497100D02*
X149660000Y-61254900D01*
G75*
G02*
X149588900Y-61326000I-71100J0D01*
G01*
X148231100Y-61326000D01*
G75*
G02*
X148160000Y-61254900I0J71100D01*
G01*
X148160000Y-60497100D01*
G75*
G02*
X148231100Y-60426000I71100J0D01*
G01*
X149588900Y-60426000D01*
G75*
G02*
X149660000Y-60497100I0J-71100D01*
G01*
G37*
G04 #@! TD.AperFunction*
G04 #@! TA.AperFunction,SMDPad,CuDef*
G36*
G01*
X149660000Y-61997100D02*
X149660000Y-62754900D01*
G75*
G02*
X149588900Y-62826000I-71100J0D01*
G01*
X148231100Y-62826000D01*
G75*
G02*
X148160000Y-62754900I0J71100D01*
G01*
X148160000Y-61997100D01*
G75*
G02*
X148231100Y-61926000I71100J0D01*
G01*
X149588900Y-61926000D01*
G75*
G02*
X149660000Y-61997100I0J-71100D01*
G01*
G37*
G04 #@! TD.AperFunction*
G04 #@! TA.AperFunction,SMDPad,CuDef*
G36*
G01*
X149660000Y-63497100D02*
X149660000Y-64254900D01*
G75*
G02*
X149588900Y-64326000I-71100J0D01*
G01*
X148231100Y-64326000D01*
G75*
G02*
X148160000Y-64254900I0J71100D01*
G01*
X148160000Y-63497100D01*
G75*
G02*
X148231100Y-63426000I71100J0D01*
G01*
X149588900Y-63426000D01*
G75*
G02*
X149660000Y-63497100I0J-71100D01*
G01*
G37*
G04 #@! TD.AperFunction*
G04 #@! TA.AperFunction,SMDPad,CuDef*
G36*
G01*
X147288900Y-65376000D02*
X146531100Y-65376000D01*
G75*
G02*
X146460000Y-65304900I0J71100D01*
G01*
X146460000Y-63947100D01*
G75*
G02*
X146531100Y-63876000I71100J0D01*
G01*
X147288900Y-63876000D01*
G75*
G02*
X147360000Y-63947100I0J-71100D01*
G01*
X147360000Y-65304900D01*
G75*
G02*
X147288900Y-65376000I-71100J0D01*
G01*
G37*
G04 #@! TD.AperFunction*
G04 #@! TA.AperFunction,SMDPad,CuDef*
G36*
G01*
X145788900Y-65376000D02*
X145031100Y-65376000D01*
G75*
G02*
X144960000Y-65304900I0J71100D01*
G01*
X144960000Y-63947100D01*
G75*
G02*
X145031100Y-63876000I71100J0D01*
G01*
X145788900Y-63876000D01*
G75*
G02*
X145860000Y-63947100I0J-71100D01*
G01*
X145860000Y-65304900D01*
G75*
G02*
X145788900Y-65376000I-71100J0D01*
G01*
G37*
G04 #@! TD.AperFunction*
G04 #@! TA.AperFunction,SMDPad,CuDef*
G36*
G01*
X144288900Y-65376000D02*
X143531100Y-65376000D01*
G75*
G02*
X143460000Y-65304900I0J71100D01*
G01*
X143460000Y-63947100D01*
G75*
G02*
X143531100Y-63876000I71100J0D01*
G01*
X144288900Y-63876000D01*
G75*
G02*
X144360000Y-63947100I0J-71100D01*
G01*
X144360000Y-65304900D01*
G75*
G02*
X144288900Y-65376000I-71100J0D01*
G01*
G37*
G04 #@! TD.AperFunction*
G04 #@! TA.AperFunction,SMDPad,CuDef*
G36*
G01*
X142788900Y-65376000D02*
X142031100Y-65376000D01*
G75*
G02*
X141960000Y-65304900I0J71100D01*
G01*
X141960000Y-63947100D01*
G75*
G02*
X142031100Y-63876000I71100J0D01*
G01*
X142788900Y-63876000D01*
G75*
G02*
X142860000Y-63947100I0J-71100D01*
G01*
X142860000Y-65304900D01*
G75*
G02*
X142788900Y-65376000I-71100J0D01*
G01*
G37*
G04 #@! TD.AperFunction*
G04 #@! TA.AperFunction,SMDPad,CuDef*
G36*
G01*
X141288900Y-65376000D02*
X140531100Y-65376000D01*
G75*
G02*
X140460000Y-65304900I0J71100D01*
G01*
X140460000Y-63947100D01*
G75*
G02*
X140531100Y-63876000I71100J0D01*
G01*
X141288900Y-63876000D01*
G75*
G02*
X141360000Y-63947100I0J-71100D01*
G01*
X141360000Y-65304900D01*
G75*
G02*
X141288900Y-65376000I-71100J0D01*
G01*
G37*
G04 #@! TD.AperFunction*
G04 #@! TA.AperFunction,SMDPad,CuDef*
G36*
G01*
X139788900Y-65376000D02*
X139031100Y-65376000D01*
G75*
G02*
X138960000Y-65304900I0J71100D01*
G01*
X138960000Y-63947100D01*
G75*
G02*
X139031100Y-63876000I71100J0D01*
G01*
X139788900Y-63876000D01*
G75*
G02*
X139860000Y-63947100I0J-71100D01*
G01*
X139860000Y-65304900D01*
G75*
G02*
X139788900Y-65376000I-71100J0D01*
G01*
G37*
G04 #@! TD.AperFunction*
G04 #@! TA.AperFunction,SMDPad,CuDef*
G36*
G01*
X138288900Y-65376000D02*
X137531100Y-65376000D01*
G75*
G02*
X137460000Y-65304900I0J71100D01*
G01*
X137460000Y-63947100D01*
G75*
G02*
X137531100Y-63876000I71100J0D01*
G01*
X138288900Y-63876000D01*
G75*
G02*
X138360000Y-63947100I0J-71100D01*
G01*
X138360000Y-65304900D01*
G75*
G02*
X138288900Y-65376000I-71100J0D01*
G01*
G37*
G04 #@! TD.AperFunction*
G04 #@! TA.AperFunction,SMDPad,CuDef*
G36*
G01*
X136788900Y-65376000D02*
X136031100Y-65376000D01*
G75*
G02*
X135960000Y-65304900I0J71100D01*
G01*
X135960000Y-63947100D01*
G75*
G02*
X136031100Y-63876000I71100J0D01*
G01*
X136788900Y-63876000D01*
G75*
G02*
X136860000Y-63947100I0J-71100D01*
G01*
X136860000Y-65304900D01*
G75*
G02*
X136788900Y-65376000I-71100J0D01*
G01*
G37*
G04 #@! TD.AperFunction*
G04 #@! TA.AperFunction,SMDPad,CuDef*
G36*
G01*
X135288900Y-65376000D02*
X134531100Y-65376000D01*
G75*
G02*
X134460000Y-65304900I0J71100D01*
G01*
X134460000Y-63947100D01*
G75*
G02*
X134531100Y-63876000I71100J0D01*
G01*
X135288900Y-63876000D01*
G75*
G02*
X135360000Y-63947100I0J-71100D01*
G01*
X135360000Y-65304900D01*
G75*
G02*
X135288900Y-65376000I-71100J0D01*
G01*
G37*
G04 #@! TD.AperFunction*
G04 #@! TA.AperFunction,SMDPad,CuDef*
G36*
G01*
X133788900Y-65376000D02*
X133031100Y-65376000D01*
G75*
G02*
X132960000Y-65304900I0J71100D01*
G01*
X132960000Y-63947100D01*
G75*
G02*
X133031100Y-63876000I71100J0D01*
G01*
X133788900Y-63876000D01*
G75*
G02*
X133860000Y-63947100I0J-71100D01*
G01*
X133860000Y-65304900D01*
G75*
G02*
X133788900Y-65376000I-71100J0D01*
G01*
G37*
G04 #@! TD.AperFunction*
G04 #@! TA.AperFunction,SMDPad,CuDef*
G36*
G01*
X130660000Y-64254900D02*
X130660000Y-63497100D01*
G75*
G02*
X130731100Y-63426000I71100J0D01*
G01*
X132088900Y-63426000D01*
G75*
G02*
X132160000Y-63497100I0J-71100D01*
G01*
X132160000Y-64254900D01*
G75*
G02*
X132088900Y-64326000I-71100J0D01*
G01*
X130731100Y-64326000D01*
G75*
G02*
X130660000Y-64254900I0J71100D01*
G01*
G37*
G04 #@! TD.AperFunction*
G04 #@! TA.AperFunction,SMDPad,CuDef*
G36*
G01*
X130660000Y-62754900D02*
X130660000Y-61997100D01*
G75*
G02*
X130731100Y-61926000I71100J0D01*
G01*
X132088900Y-61926000D01*
G75*
G02*
X132160000Y-61997100I0J-71100D01*
G01*
X132160000Y-62754900D01*
G75*
G02*
X132088900Y-62826000I-71100J0D01*
G01*
X130731100Y-62826000D01*
G75*
G02*
X130660000Y-62754900I0J71100D01*
G01*
G37*
G04 #@! TD.AperFunction*
G04 #@! TA.AperFunction,SMDPad,CuDef*
G36*
G01*
X130660000Y-61254900D02*
X130660000Y-60497100D01*
G75*
G02*
X130731100Y-60426000I71100J0D01*
G01*
X132088900Y-60426000D01*
G75*
G02*
X132160000Y-60497100I0J-71100D01*
G01*
X132160000Y-61254900D01*
G75*
G02*
X132088900Y-61326000I-71100J0D01*
G01*
X130731100Y-61326000D01*
G75*
G02*
X130660000Y-61254900I0J71100D01*
G01*
G37*
G04 #@! TD.AperFunction*
G04 #@! TA.AperFunction,SMDPad,CuDef*
G36*
G01*
X130660000Y-59754900D02*
X130660000Y-58997100D01*
G75*
G02*
X130731100Y-58926000I71100J0D01*
G01*
X132088900Y-58926000D01*
G75*
G02*
X132160000Y-58997100I0J-71100D01*
G01*
X132160000Y-59754900D01*
G75*
G02*
X132088900Y-59826000I-71100J0D01*
G01*
X130731100Y-59826000D01*
G75*
G02*
X130660000Y-59754900I0J71100D01*
G01*
G37*
G04 #@! TD.AperFunction*
G04 #@! TA.AperFunction,SMDPad,CuDef*
G36*
G01*
X130660000Y-58254900D02*
X130660000Y-57497100D01*
G75*
G02*
X130731100Y-57426000I71100J0D01*
G01*
X132088900Y-57426000D01*
G75*
G02*
X132160000Y-57497100I0J-71100D01*
G01*
X132160000Y-58254900D01*
G75*
G02*
X132088900Y-58326000I-71100J0D01*
G01*
X130731100Y-58326000D01*
G75*
G02*
X130660000Y-58254900I0J71100D01*
G01*
G37*
G04 #@! TD.AperFunction*
G04 #@! TA.AperFunction,SMDPad,CuDef*
G36*
G01*
X130660000Y-56754900D02*
X130660000Y-55997100D01*
G75*
G02*
X130731100Y-55926000I71100J0D01*
G01*
X132088900Y-55926000D01*
G75*
G02*
X132160000Y-55997100I0J-71100D01*
G01*
X132160000Y-56754900D01*
G75*
G02*
X132088900Y-56826000I-71100J0D01*
G01*
X130731100Y-56826000D01*
G75*
G02*
X130660000Y-56754900I0J71100D01*
G01*
G37*
G04 #@! TD.AperFunction*
G04 #@! TA.AperFunction,SMDPad,CuDef*
G36*
G01*
X130660000Y-55254900D02*
X130660000Y-54497100D01*
G75*
G02*
X130731100Y-54426000I71100J0D01*
G01*
X132088900Y-54426000D01*
G75*
G02*
X132160000Y-54497100I0J-71100D01*
G01*
X132160000Y-55254900D01*
G75*
G02*
X132088900Y-55326000I-71100J0D01*
G01*
X130731100Y-55326000D01*
G75*
G02*
X130660000Y-55254900I0J71100D01*
G01*
G37*
G04 #@! TD.AperFunction*
G04 #@! TA.AperFunction,SMDPad,CuDef*
G36*
G01*
X130660000Y-53754900D02*
X130660000Y-52997100D01*
G75*
G02*
X130731100Y-52926000I71100J0D01*
G01*
X132088900Y-52926000D01*
G75*
G02*
X132160000Y-52997100I0J-71100D01*
G01*
X132160000Y-53754900D01*
G75*
G02*
X132088900Y-53826000I-71100J0D01*
G01*
X130731100Y-53826000D01*
G75*
G02*
X130660000Y-53754900I0J71100D01*
G01*
G37*
G04 #@! TD.AperFunction*
G04 #@! TA.AperFunction,SMDPad,CuDef*
G36*
G01*
X130660000Y-52254900D02*
X130660000Y-51497100D01*
G75*
G02*
X130731100Y-51426000I71100J0D01*
G01*
X132088900Y-51426000D01*
G75*
G02*
X132160000Y-51497100I0J-71100D01*
G01*
X132160000Y-52254900D01*
G75*
G02*
X132088900Y-52326000I-71100J0D01*
G01*
X130731100Y-52326000D01*
G75*
G02*
X130660000Y-52254900I0J71100D01*
G01*
G37*
G04 #@! TD.AperFunction*
G04 #@! TA.AperFunction,SMDPad,CuDef*
G36*
G01*
X130660000Y-50754900D02*
X130660000Y-49997100D01*
G75*
G02*
X130731100Y-49926000I71100J0D01*
G01*
X132088900Y-49926000D01*
G75*
G02*
X132160000Y-49997100I0J-71100D01*
G01*
X132160000Y-50754900D01*
G75*
G02*
X132088900Y-50826000I-71100J0D01*
G01*
X130731100Y-50826000D01*
G75*
G02*
X130660000Y-50754900I0J71100D01*
G01*
G37*
G04 #@! TD.AperFunction*
G04 #@! TA.AperFunction,SMDPad,CuDef*
G36*
G01*
X130660000Y-49254900D02*
X130660000Y-48497100D01*
G75*
G02*
X130731100Y-48426000I71100J0D01*
G01*
X132088900Y-48426000D01*
G75*
G02*
X132160000Y-48497100I0J-71100D01*
G01*
X132160000Y-49254900D01*
G75*
G02*
X132088900Y-49326000I-71100J0D01*
G01*
X130731100Y-49326000D01*
G75*
G02*
X130660000Y-49254900I0J71100D01*
G01*
G37*
G04 #@! TD.AperFunction*
G04 #@! TA.AperFunction,SMDPad,CuDef*
G36*
G01*
X130660000Y-47754900D02*
X130660000Y-46997100D01*
G75*
G02*
X130731100Y-46926000I71100J0D01*
G01*
X132088900Y-46926000D01*
G75*
G02*
X132160000Y-46997100I0J-71100D01*
G01*
X132160000Y-47754900D01*
G75*
G02*
X132088900Y-47826000I-71100J0D01*
G01*
X130731100Y-47826000D01*
G75*
G02*
X130660000Y-47754900I0J71100D01*
G01*
G37*
G04 #@! TD.AperFunction*
G04 #@! TA.AperFunction,SMDPad,CuDef*
G36*
G01*
X130660000Y-46254900D02*
X130660000Y-45497100D01*
G75*
G02*
X130731100Y-45426000I71100J0D01*
G01*
X132088900Y-45426000D01*
G75*
G02*
X132160000Y-45497100I0J-71100D01*
G01*
X132160000Y-46254900D01*
G75*
G02*
X132088900Y-46326000I-71100J0D01*
G01*
X130731100Y-46326000D01*
G75*
G02*
X130660000Y-46254900I0J71100D01*
G01*
G37*
G04 #@! TD.AperFunction*
G04 #@! TA.AperFunction,SMDPad,CuDef*
G36*
G01*
X130660000Y-44754900D02*
X130660000Y-43997100D01*
G75*
G02*
X130731100Y-43926000I71100J0D01*
G01*
X132088900Y-43926000D01*
G75*
G02*
X132160000Y-43997100I0J-71100D01*
G01*
X132160000Y-44754900D01*
G75*
G02*
X132088900Y-44826000I-71100J0D01*
G01*
X130731100Y-44826000D01*
G75*
G02*
X130660000Y-44754900I0J71100D01*
G01*
G37*
G04 #@! TD.AperFunction*
G04 #@! TA.AperFunction,SMDPad,CuDef*
G36*
G01*
X130660000Y-43254900D02*
X130660000Y-42497100D01*
G75*
G02*
X130731100Y-42426000I71100J0D01*
G01*
X132088900Y-42426000D01*
G75*
G02*
X132160000Y-42497100I0J-71100D01*
G01*
X132160000Y-43254900D01*
G75*
G02*
X132088900Y-43326000I-71100J0D01*
G01*
X130731100Y-43326000D01*
G75*
G02*
X130660000Y-43254900I0J71100D01*
G01*
G37*
G04 #@! TD.AperFunction*
G04 #@! TA.AperFunction,SMDPad,CuDef*
G36*
G01*
X130660000Y-41754900D02*
X130660000Y-40997100D01*
G75*
G02*
X130731100Y-40926000I71100J0D01*
G01*
X132088900Y-40926000D01*
G75*
G02*
X132160000Y-40997100I0J-71100D01*
G01*
X132160000Y-41754900D01*
G75*
G02*
X132088900Y-41826000I-71100J0D01*
G01*
X130731100Y-41826000D01*
G75*
G02*
X130660000Y-41754900I0J71100D01*
G01*
G37*
G04 #@! TD.AperFunction*
G04 #@! TA.AperFunction,SMDPad,CuDef*
G36*
G01*
X142250000Y-48414100D02*
X142250000Y-47487900D01*
G75*
G02*
X142336900Y-47401000I86900J0D01*
G01*
X143263100Y-47401000D01*
G75*
G02*
X143350000Y-47487900I0J-86900D01*
G01*
X143350000Y-48414100D01*
G75*
G02*
X143263100Y-48501000I-86900J0D01*
G01*
X142336900Y-48501000D01*
G75*
G02*
X142250000Y-48414100I0J86900D01*
G01*
G37*
G04 #@! TD.AperFunction*
G04 #@! TA.AperFunction,SMDPad,CuDef*
G36*
G01*
X140750000Y-48414100D02*
X140750000Y-47487900D01*
G75*
G02*
X140836900Y-47401000I86900J0D01*
G01*
X141763100Y-47401000D01*
G75*
G02*
X141850000Y-47487900I0J-86900D01*
G01*
X141850000Y-48414100D01*
G75*
G02*
X141763100Y-48501000I-86900J0D01*
G01*
X140836900Y-48501000D01*
G75*
G02*
X140750000Y-48414100I0J86900D01*
G01*
G37*
G04 #@! TD.AperFunction*
G04 #@! TA.AperFunction,SMDPad,CuDef*
G36*
G01*
X139250000Y-48414100D02*
X139250000Y-47487900D01*
G75*
G02*
X139336900Y-47401000I86900J0D01*
G01*
X140263100Y-47401000D01*
G75*
G02*
X140350000Y-47487900I0J-86900D01*
G01*
X140350000Y-48414100D01*
G75*
G02*
X140263100Y-48501000I-86900J0D01*
G01*
X139336900Y-48501000D01*
G75*
G02*
X139250000Y-48414100I0J86900D01*
G01*
G37*
G04 #@! TD.AperFunction*
G04 #@! TA.AperFunction,SMDPad,CuDef*
G36*
G01*
X142250000Y-49914100D02*
X142250000Y-48987900D01*
G75*
G02*
X142336900Y-48901000I86900J0D01*
G01*
X143263100Y-48901000D01*
G75*
G02*
X143350000Y-48987900I0J-86900D01*
G01*
X143350000Y-49914100D01*
G75*
G02*
X143263100Y-50001000I-86900J0D01*
G01*
X142336900Y-50001000D01*
G75*
G02*
X142250000Y-49914100I0J86900D01*
G01*
G37*
G04 #@! TD.AperFunction*
G04 #@! TA.AperFunction,SMDPad,CuDef*
G36*
G01*
X140750000Y-49914100D02*
X140750000Y-48987900D01*
G75*
G02*
X140836900Y-48901000I86900J0D01*
G01*
X141763100Y-48901000D01*
G75*
G02*
X141850000Y-48987900I0J-86900D01*
G01*
X141850000Y-49914100D01*
G75*
G02*
X141763100Y-50001000I-86900J0D01*
G01*
X140836900Y-50001000D01*
G75*
G02*
X140750000Y-49914100I0J86900D01*
G01*
G37*
G04 #@! TD.AperFunction*
G04 #@! TA.AperFunction,SMDPad,CuDef*
G36*
G01*
X139250000Y-49914100D02*
X139250000Y-48987900D01*
G75*
G02*
X139336900Y-48901000I86900J0D01*
G01*
X140263100Y-48901000D01*
G75*
G02*
X140350000Y-48987900I0J-86900D01*
G01*
X140350000Y-49914100D01*
G75*
G02*
X140263100Y-50001000I-86900J0D01*
G01*
X139336900Y-50001000D01*
G75*
G02*
X139250000Y-49914100I0J86900D01*
G01*
G37*
G04 #@! TD.AperFunction*
G04 #@! TA.AperFunction,SMDPad,CuDef*
G36*
G01*
X142250000Y-51414100D02*
X142250000Y-50487900D01*
G75*
G02*
X142336900Y-50401000I86900J0D01*
G01*
X143263100Y-50401000D01*
G75*
G02*
X143350000Y-50487900I0J-86900D01*
G01*
X143350000Y-51414100D01*
G75*
G02*
X143263100Y-51501000I-86900J0D01*
G01*
X142336900Y-51501000D01*
G75*
G02*
X142250000Y-51414100I0J86900D01*
G01*
G37*
G04 #@! TD.AperFunction*
G04 #@! TA.AperFunction,SMDPad,CuDef*
G36*
G01*
X140750000Y-51414100D02*
X140750000Y-50487900D01*
G75*
G02*
X140836900Y-50401000I86900J0D01*
G01*
X141763100Y-50401000D01*
G75*
G02*
X141850000Y-50487900I0J-86900D01*
G01*
X141850000Y-51414100D01*
G75*
G02*
X141763100Y-51501000I-86900J0D01*
G01*
X140836900Y-51501000D01*
G75*
G02*
X140750000Y-51414100I0J86900D01*
G01*
G37*
G04 #@! TD.AperFunction*
G04 #@! TA.AperFunction,SMDPad,CuDef*
G36*
G01*
X139250000Y-51414100D02*
X139250000Y-50487900D01*
G75*
G02*
X139336900Y-50401000I86900J0D01*
G01*
X140263100Y-50401000D01*
G75*
G02*
X140350000Y-50487900I0J-86900D01*
G01*
X140350000Y-51414100D01*
G75*
G02*
X140263100Y-51501000I-86900J0D01*
G01*
X139336900Y-51501000D01*
G75*
G02*
X139250000Y-51414100I0J86900D01*
G01*
G37*
G04 #@! TD.AperFunction*
D16*
X142810000Y-48709600D03*
X142048000Y-47896800D03*
X140524000Y-47896800D03*
X139812800Y-48709600D03*
X139812800Y-50182800D03*
X140574800Y-50894000D03*
X142048000Y-50894000D03*
X142810000Y-50182800D03*
X142048000Y-49420800D03*
X140524000Y-49370000D03*
X141286000Y-48709600D03*
X141336800Y-50182800D03*
D17*
X128930000Y-77039500D03*
X128930000Y-72439500D03*
X128930000Y-74739500D03*
D18*
X135230000Y-74739500D03*
D19*
X152248000Y-50190400D03*
X152248000Y-47650400D03*
X152248000Y-45110400D03*
X152248000Y-42570400D03*
D20*
X148641000Y-78689200D03*
X147141000Y-78689200D03*
X150290000Y-78689200D03*
X151790000Y-78689200D03*
D21*
X135788000Y-70053200D03*
X145948000Y-70053200D03*
D22*
X134416800Y-69596000D03*
X150745000Y-43217900D03*
X152806400Y-74117200D03*
X139700000Y-77212500D03*
X138800002Y-71699188D03*
X140282803Y-73483597D03*
X141655800Y-74710002D03*
X145948400Y-54076600D03*
X142846984Y-50981947D03*
X143789400Y-53238400D03*
X144830800Y-44221400D03*
X134848600Y-51816000D03*
X134848600Y-52781200D03*
X134874000Y-53797200D03*
X134874000Y-54914800D03*
X142051400Y-78846600D03*
X136475300Y-77937500D03*
X145987300Y-44915200D03*
X137589997Y-73770003D03*
X140273200Y-69436400D03*
X140258100Y-68090300D03*
X151128600Y-73803500D03*
X150411600Y-45584800D03*
X139744500Y-59078000D03*
X142619200Y-59414500D03*
X140755600Y-59223300D03*
X143505800Y-61853500D03*
X144664600Y-63290800D03*
X146630100Y-46073500D03*
X150926100Y-49022900D03*
X147457400Y-47287600D03*
X150638600Y-47041800D03*
X137897400Y-69751800D03*
X140273900Y-67035500D03*
X149150500Y-73569500D03*
D23*
X152248000Y-45110400D02*
X150745100Y-43607500D01*
X150745100Y-43607500D02*
X150745100Y-43217900D01*
X150745100Y-43217900D02*
X150745000Y-43217900D01*
X143708000Y-79942000D02*
X143708000Y-78862700D01*
X143708000Y-78862700D02*
X137284800Y-72439500D01*
X137284800Y-72439500D02*
X128930000Y-72439500D01*
X139700000Y-77212500D02*
X137922000Y-78990500D01*
X137659500Y-78990500D02*
X136708000Y-79942000D01*
X137922000Y-78990500D02*
X137659500Y-78990500D01*
X138800002Y-72000796D02*
X140282803Y-73483597D01*
X138800002Y-71699188D02*
X138800002Y-72000796D01*
X140429395Y-73483597D02*
X141655800Y-74710002D01*
X140282803Y-73483597D02*
X140429395Y-73483597D01*
X142822800Y-50951000D02*
X142800000Y-50951000D01*
X145948400Y-54076600D02*
X142822800Y-50951000D01*
X144627600Y-54076600D02*
X145948400Y-54076600D01*
X143789400Y-53238400D02*
X144627600Y-54076600D01*
X142329199Y-48421801D02*
X142800000Y-47951000D01*
X141770801Y-48421801D02*
X142329199Y-48421801D01*
X141300000Y-47951000D02*
X141770801Y-48421801D01*
X143335001Y-48457599D02*
X143335001Y-48961601D01*
X142284999Y-48457599D02*
X142557999Y-48184599D01*
X142557999Y-48184599D02*
X143062001Y-48184599D01*
X141846799Y-48457599D02*
X142284999Y-48457599D01*
X141033999Y-48184599D02*
X141573799Y-48184599D01*
X140760999Y-48457599D02*
X141033999Y-48184599D01*
X140337801Y-48457599D02*
X140760999Y-48457599D01*
X140064801Y-48184599D02*
X140337801Y-48457599D01*
X139560799Y-48184599D02*
X140064801Y-48184599D01*
X139287799Y-48457599D02*
X139560799Y-48184599D01*
X141573799Y-48184599D02*
X141846799Y-48457599D01*
X139287799Y-48961601D02*
X139287799Y-48457599D01*
X143335001Y-48961601D02*
X142845602Y-49451000D01*
X139560799Y-49234601D02*
X139287799Y-48961601D01*
X139611599Y-49234601D02*
X139560799Y-49234601D01*
X142845602Y-49451000D02*
X142800000Y-49451000D01*
X143062001Y-48184599D02*
X143335001Y-48457599D01*
X140271999Y-49895001D02*
X139611599Y-49234601D01*
X140776001Y-49895001D02*
X140271999Y-49895001D01*
X141300000Y-49371002D02*
X140776001Y-49895001D01*
X141300000Y-49451000D02*
X141300000Y-49371002D01*
X140831999Y-51419001D02*
X141300000Y-50951000D01*
X140268001Y-51419001D02*
X140831999Y-51419001D01*
X139800000Y-50951000D02*
X140268001Y-51419001D01*
X148910000Y-41376000D02*
X146990400Y-41376000D01*
X144830800Y-43535600D02*
X144830800Y-44221400D01*
X146990400Y-41376000D02*
X144830800Y-43535600D01*
X129578000Y-41376000D02*
X129032000Y-41922000D01*
X131410000Y-41376000D02*
X129578000Y-41376000D01*
X128930000Y-74739500D02*
X130255300Y-74739500D01*
X135230000Y-75464400D02*
X130980200Y-75464400D01*
X130980200Y-75464400D02*
X130255300Y-74739500D01*
X135230000Y-75464400D02*
X135230000Y-76964800D01*
X135230000Y-74739500D02*
X135230000Y-75464400D01*
X136475300Y-77937500D02*
X135502600Y-76964800D01*
X135502600Y-76964800D02*
X135230000Y-76964800D01*
X142051400Y-78846600D02*
X141142300Y-77937500D01*
X150290000Y-78689200D02*
X149714700Y-78689200D01*
X149714700Y-78689200D02*
X149714700Y-78833000D01*
X149714700Y-78833000D02*
X149083100Y-79464600D01*
X149083100Y-79464600D02*
X147916400Y-79464600D01*
X147916400Y-79464600D02*
X147141000Y-78689200D01*
X145514400Y-79740500D02*
X144795100Y-80459800D01*
X144795100Y-80459800D02*
X144795100Y-80881000D01*
X144795100Y-80881000D02*
X144607700Y-81068400D01*
X144607700Y-81068400D02*
X142857100Y-81068400D01*
X142857100Y-81068400D02*
X142617300Y-80828600D01*
X142617300Y-80828600D02*
X142617300Y-79412500D01*
X142617300Y-79412500D02*
X142051400Y-78846600D01*
X146853400Y-78689200D02*
X146565700Y-78689200D01*
X146565700Y-78689200D02*
X145514400Y-79740500D01*
X145514400Y-79740500D02*
X137720700Y-71946800D01*
X137720700Y-71946800D02*
X134964300Y-71946800D01*
X134964300Y-71946800D02*
X129032000Y-66014500D01*
X129032000Y-66014500D02*
X129032000Y-48577500D01*
X147141000Y-78689200D02*
X146853400Y-78689200D01*
X145987300Y-44915200D02*
X148026500Y-42876000D01*
X148026500Y-42876000D02*
X148910000Y-42876000D01*
X141142300Y-77937500D02*
X141142300Y-77108900D01*
X141142300Y-77108900D02*
X139014200Y-74980800D01*
X138800794Y-74980800D02*
X137589997Y-73770003D01*
X139014200Y-74980800D02*
X138800794Y-74980800D01*
X147828000Y-75258400D02*
X144429800Y-75258400D01*
X144429800Y-75258400D02*
X138087500Y-68916100D01*
X138087500Y-68916100D02*
X134828900Y-68916100D01*
X134828900Y-68916100D02*
X130284100Y-64371300D01*
X130284100Y-64371300D02*
X130284100Y-48617300D01*
X130284100Y-48617300D02*
X129319600Y-47652800D01*
X129319600Y-47652800D02*
X129032000Y-47652800D01*
X129032000Y-47077500D02*
X129032000Y-47652800D01*
X129032000Y-43422000D02*
X129032000Y-47077500D01*
X129732300Y-43422000D02*
X130278300Y-42876000D01*
X130278300Y-42876000D02*
X131410000Y-42876000D01*
X129032000Y-43422000D02*
X129732300Y-43422000D01*
X137910000Y-64626000D02*
X137910000Y-67073200D01*
X137910000Y-67073200D02*
X140273200Y-69436400D01*
X139410000Y-64626000D02*
X139410000Y-67242200D01*
X139410000Y-67242200D02*
X140258100Y-68090300D01*
X151892000Y-75258400D02*
X151892000Y-74483100D01*
X151128600Y-73803500D02*
X151808200Y-74483100D01*
X151808200Y-74483100D02*
X151892000Y-74483100D01*
X148910000Y-44376000D02*
X149202800Y-44376000D01*
X149202800Y-44376000D02*
X150411600Y-45584800D01*
X148910000Y-57876000D02*
X140946500Y-57876000D01*
X140946500Y-57876000D02*
X139744500Y-59078000D01*
X148910000Y-59376000D02*
X142657700Y-59376000D01*
X142657700Y-59376000D02*
X142619200Y-59414500D01*
X148910000Y-60876000D02*
X142408300Y-60876000D01*
X142408300Y-60876000D02*
X140755600Y-59223300D01*
X148910000Y-62376000D02*
X144028300Y-62376000D01*
X144028300Y-62376000D02*
X143505800Y-61853500D01*
X146910000Y-64626000D02*
X146910000Y-64499900D01*
X146910000Y-64499900D02*
X145700900Y-63290800D01*
X145700900Y-63290800D02*
X144664600Y-63290800D01*
X146630100Y-46073500D02*
X135188800Y-46073500D01*
X135188800Y-46073500D02*
X133886300Y-47376000D01*
X133886300Y-47376000D02*
X131410000Y-47376000D01*
X152248000Y-50190400D02*
X151080500Y-49022900D01*
X151080500Y-49022900D02*
X150926100Y-49022900D01*
X147457400Y-47287600D02*
X147213400Y-47043600D01*
X147213400Y-47043600D02*
X136762700Y-47043600D01*
X136762700Y-47043600D02*
X134930300Y-48876000D01*
X134930300Y-48876000D02*
X131410000Y-48876000D01*
X152248000Y-47650400D02*
X151247200Y-47650400D01*
X151247200Y-47650400D02*
X150638600Y-47041800D01*
X148641000Y-78689200D02*
X148065700Y-78689200D01*
X137897400Y-69751800D02*
X145822100Y-77676500D01*
X145822100Y-77676500D02*
X147340600Y-77676500D01*
X147340600Y-77676500D02*
X148065700Y-78401600D01*
X148065700Y-78401600D02*
X148065700Y-78689200D01*
X143910000Y-64626000D02*
X143910000Y-64748800D01*
X143910000Y-64748800D02*
X141623300Y-67035500D01*
X141623300Y-67035500D02*
X140273900Y-67035500D01*
X149150500Y-73569500D02*
X146754200Y-73569500D01*
X146754200Y-73569500D02*
X144122600Y-70937900D01*
X144122600Y-70937900D02*
X144122600Y-67852400D01*
X144122600Y-67852400D02*
X145410000Y-66565000D01*
X145410000Y-66565000D02*
X145410000Y-64626000D01*
X149150500Y-73569500D02*
X149150500Y-76049700D01*
X149150500Y-76049700D02*
X151214700Y-78113900D01*
X151214700Y-78113900D02*
X151214700Y-78689200D01*
X151790000Y-78689200D02*
X151214700Y-78689200D01*
X145948000Y-70053200D02*
X145948000Y-68977900D01*
X145948000Y-68977900D02*
X149986200Y-64939700D01*
X149986200Y-64939700D02*
X149986200Y-48312800D01*
X149986200Y-48312800D02*
X149049400Y-47376000D01*
X149049400Y-47376000D02*
X148910000Y-47376000D01*
D24*
X136768501Y-74209102D02*
X136869949Y-74360931D01*
X136999069Y-74490051D01*
X137150898Y-74591499D01*
X137319601Y-74661379D01*
X137498696Y-74697003D01*
X137594931Y-74697003D01*
X138317114Y-75419187D01*
X138337530Y-75444064D01*
X138436810Y-75525541D01*
X138550077Y-75586083D01*
X138600541Y-75601391D01*
X138672979Y-75623365D01*
X138741442Y-75630108D01*
X140490300Y-77378967D01*
X140490300Y-77905478D01*
X140487146Y-77937500D01*
X140499735Y-78065314D01*
X140528511Y-78160176D01*
X140537017Y-78188216D01*
X140597559Y-78301483D01*
X140679036Y-78400764D01*
X140703918Y-78421185D01*
X140966646Y-78683912D01*
X140834346Y-78710228D01*
X140601219Y-78806793D01*
X140391410Y-78946982D01*
X140212982Y-79125410D01*
X140208000Y-79132866D01*
X140203018Y-79125410D01*
X140024590Y-78946982D01*
X139814781Y-78806793D01*
X139581654Y-78710228D01*
X139334167Y-78661000D01*
X139081833Y-78661000D01*
X138834346Y-78710228D01*
X138601219Y-78806793D01*
X138391410Y-78946982D01*
X138212982Y-79125410D01*
X138072793Y-79335219D01*
X138015564Y-79473380D01*
X137968063Y-79341771D01*
X137907127Y-79227765D01*
X137667851Y-79161754D01*
X136887605Y-79942000D01*
X136901748Y-79956143D01*
X136722143Y-80135748D01*
X136708000Y-80121605D01*
X136693858Y-80135748D01*
X136514253Y-79956143D01*
X136528395Y-79942000D01*
X135748149Y-79161754D01*
X135508873Y-79227765D01*
X135392574Y-79475426D01*
X135326826Y-79741018D01*
X135314155Y-80014334D01*
X135325885Y-80091937D01*
X135192702Y-80001177D01*
X134935034Y-79891681D01*
X134855076Y-79874992D01*
X134635000Y-79997148D01*
X134635000Y-81915000D01*
X135930500Y-81915000D01*
X135930500Y-81127500D01*
X135894125Y-80935483D01*
X135927755Y-80901853D01*
X135993765Y-81141127D01*
X136241426Y-81257426D01*
X136507018Y-81323174D01*
X136780334Y-81335845D01*
X137050870Y-81294951D01*
X137089997Y-81280829D01*
X137063183Y-81307643D01*
X136937111Y-81496323D01*
X136850271Y-81705974D01*
X136806000Y-81928538D01*
X136806000Y-82155462D01*
X136850271Y-82378026D01*
X136937111Y-82587677D01*
X137063183Y-82776357D01*
X137223643Y-82936817D01*
X137412323Y-83062889D01*
X137621974Y-83149729D01*
X137844538Y-83194000D01*
X138071462Y-83194000D01*
X138294026Y-83149729D01*
X138503677Y-83062889D01*
X138692357Y-82936817D01*
X138852817Y-82776357D01*
X138978889Y-82587677D01*
X139065729Y-82378026D01*
X139110000Y-82155462D01*
X139110000Y-81928538D01*
X139065729Y-81705974D01*
X138978889Y-81496323D01*
X138852817Y-81307643D01*
X138692357Y-81147183D01*
X138503677Y-81021111D01*
X138294026Y-80934271D01*
X138071462Y-80890000D01*
X137844538Y-80890000D01*
X137705277Y-80917701D01*
X137784293Y-80838685D01*
X137667853Y-80722245D01*
X137907127Y-80656235D01*
X138018799Y-80418428D01*
X138072793Y-80548781D01*
X138212982Y-80758590D01*
X138391410Y-80937018D01*
X138601219Y-81077207D01*
X138834346Y-81173772D01*
X139081833Y-81223000D01*
X139334167Y-81223000D01*
X139581654Y-81173772D01*
X139814781Y-81077207D01*
X140024590Y-80937018D01*
X140203018Y-80758590D01*
X140208000Y-80751134D01*
X140212982Y-80758590D01*
X140391410Y-80937018D01*
X140601219Y-81077207D01*
X140834346Y-81173772D01*
X141081833Y-81223000D01*
X141334167Y-81223000D01*
X141581654Y-81173772D01*
X141814781Y-81077207D01*
X141978245Y-80967985D01*
X141985203Y-80990923D01*
X141912323Y-81021111D01*
X141723643Y-81147183D01*
X141563183Y-81307643D01*
X141437111Y-81496323D01*
X141350271Y-81705974D01*
X141306000Y-81928538D01*
X141306000Y-82155462D01*
X141350271Y-82378026D01*
X141437111Y-82587677D01*
X141563183Y-82776357D01*
X141723643Y-82936817D01*
X141912323Y-83062889D01*
X142121974Y-83149729D01*
X142344538Y-83194000D01*
X142571462Y-83194000D01*
X142794026Y-83149729D01*
X143003677Y-83062889D01*
X143192357Y-82936817D01*
X143352817Y-82776357D01*
X143478889Y-82587677D01*
X143565729Y-82378026D01*
X143607307Y-82169000D01*
X144485500Y-82169000D01*
X144485500Y-82956500D01*
X144537609Y-83231576D01*
X144642382Y-83491200D01*
X144795792Y-83725395D01*
X144991943Y-83925162D01*
X145223298Y-84082823D01*
X145480966Y-84192319D01*
X145560924Y-84209008D01*
X145781000Y-84086852D01*
X145781000Y-82169000D01*
X144485500Y-82169000D01*
X143607307Y-82169000D01*
X143610000Y-82155462D01*
X143610000Y-81928538D01*
X143568599Y-81720400D01*
X144485500Y-81720400D01*
X144485500Y-81915000D01*
X145781000Y-81915000D01*
X145781000Y-81895000D01*
X146035000Y-81895000D01*
X146035000Y-81915000D01*
X146055000Y-81915000D01*
X146055000Y-82169000D01*
X146035000Y-82169000D01*
X146035000Y-84086852D01*
X146255076Y-84209008D01*
X146335034Y-84192319D01*
X146514001Y-84116267D01*
X146514001Y-84284000D01*
X133902000Y-84284000D01*
X133902000Y-84116267D01*
X134080966Y-84192319D01*
X134160924Y-84209008D01*
X134381000Y-84086852D01*
X134381000Y-82169000D01*
X134635000Y-82169000D01*
X134635000Y-84086852D01*
X134855076Y-84209008D01*
X134935034Y-84192319D01*
X135192702Y-84082823D01*
X135424057Y-83925162D01*
X135620208Y-83725395D01*
X135773618Y-83491200D01*
X135878391Y-83231576D01*
X135930500Y-82956500D01*
X135930500Y-82169000D01*
X134635000Y-82169000D01*
X134381000Y-82169000D01*
X134361000Y-82169000D01*
X134361000Y-81915000D01*
X134381000Y-81915000D01*
X134381000Y-79997148D01*
X134160924Y-79874992D01*
X134080966Y-79891681D01*
X133902000Y-79967733D01*
X133902000Y-79910108D01*
X133904670Y-79883000D01*
X133894012Y-79774789D01*
X133862448Y-79670737D01*
X133811191Y-79574842D01*
X133742211Y-79490789D01*
X133658158Y-79421809D01*
X133562263Y-79370552D01*
X133458211Y-79338988D01*
X133377109Y-79331000D01*
X133377108Y-79331000D01*
X133350000Y-79328330D01*
X133322891Y-79331000D01*
X128060000Y-79331000D01*
X128060000Y-78427013D01*
X128644250Y-78424500D01*
X128803000Y-78265750D01*
X128803000Y-77166500D01*
X129057000Y-77166500D01*
X129057000Y-78265750D01*
X129215750Y-78424500D01*
X129930000Y-78427572D01*
X130054482Y-78415312D01*
X130174180Y-78379002D01*
X130284494Y-78320037D01*
X130381185Y-78240685D01*
X130460537Y-78143994D01*
X130519502Y-78033680D01*
X130555812Y-77913982D01*
X130568072Y-77789500D01*
X130565000Y-77325250D01*
X130406250Y-77166500D01*
X129057000Y-77166500D01*
X128803000Y-77166500D01*
X128783000Y-77166500D01*
X128783000Y-76912500D01*
X128803000Y-76912500D01*
X128803000Y-76892500D01*
X129057000Y-76892500D01*
X129057000Y-76912500D01*
X130406250Y-76912500D01*
X130565000Y-76753750D01*
X130568072Y-76289500D01*
X130555812Y-76165018D01*
X130519502Y-76045320D01*
X130460537Y-75935006D01*
X130381185Y-75838315D01*
X130347901Y-75811000D01*
X130370304Y-75783702D01*
X130372788Y-75779055D01*
X130496520Y-75902787D01*
X130516936Y-75927664D01*
X130616216Y-76009141D01*
X130729483Y-76069683D01*
X130852385Y-76106965D01*
X130865027Y-76108210D01*
X130948178Y-76116400D01*
X130948185Y-76116400D01*
X130980199Y-76119553D01*
X131012214Y-76116400D01*
X133700451Y-76116400D01*
X133700451Y-76639500D01*
X133710626Y-76742810D01*
X133740761Y-76842150D01*
X133789696Y-76933702D01*
X133855552Y-77013948D01*
X133935798Y-77079804D01*
X134027350Y-77128739D01*
X134126690Y-77158874D01*
X134230000Y-77169049D01*
X134610621Y-77169049D01*
X134624717Y-77215517D01*
X134685259Y-77328784D01*
X134766736Y-77428064D01*
X134866016Y-77509541D01*
X134979283Y-77570083D01*
X135102186Y-77607365D01*
X135197978Y-77616800D01*
X135230000Y-77619954D01*
X135235178Y-77619444D01*
X135548300Y-77932567D01*
X135548300Y-78028801D01*
X135583924Y-78207896D01*
X135653804Y-78376599D01*
X135755252Y-78528428D01*
X135884372Y-78657548D01*
X136003935Y-78737437D01*
X135993765Y-78742873D01*
X135927754Y-78982149D01*
X136708000Y-79762395D01*
X137488246Y-78982149D01*
X137422235Y-78742873D01*
X137174574Y-78626574D01*
X137112555Y-78611221D01*
X137195348Y-78528428D01*
X137296796Y-78376599D01*
X137366676Y-78207896D01*
X137402300Y-78028801D01*
X137402300Y-77846199D01*
X137366676Y-77667104D01*
X137296796Y-77498401D01*
X137195348Y-77346572D01*
X137066228Y-77217452D01*
X136914399Y-77116004D01*
X136745696Y-77046124D01*
X136600446Y-77017232D01*
X136604448Y-77013948D01*
X136670304Y-76933702D01*
X136719239Y-76842150D01*
X136749374Y-76742810D01*
X136759549Y-76639500D01*
X136759549Y-74187490D01*
X136768501Y-74209102D01*
G04 #@! TA.AperFunction,Conductor*
D25*
G36*
X136768501Y-74209102D02*
G01*
X136869949Y-74360931D01*
X136999069Y-74490051D01*
X137150898Y-74591499D01*
X137319601Y-74661379D01*
X137498696Y-74697003D01*
X137594931Y-74697003D01*
X138317114Y-75419187D01*
X138337530Y-75444064D01*
X138436810Y-75525541D01*
X138550077Y-75586083D01*
X138600541Y-75601391D01*
X138672979Y-75623365D01*
X138741442Y-75630108D01*
X140490300Y-77378967D01*
X140490300Y-77905478D01*
X140487146Y-77937500D01*
X140499735Y-78065314D01*
X140528511Y-78160176D01*
X140537017Y-78188216D01*
X140597559Y-78301483D01*
X140679036Y-78400764D01*
X140703918Y-78421185D01*
X140966646Y-78683912D01*
X140834346Y-78710228D01*
X140601219Y-78806793D01*
X140391410Y-78946982D01*
X140212982Y-79125410D01*
X140208000Y-79132866D01*
X140203018Y-79125410D01*
X140024590Y-78946982D01*
X139814781Y-78806793D01*
X139581654Y-78710228D01*
X139334167Y-78661000D01*
X139081833Y-78661000D01*
X138834346Y-78710228D01*
X138601219Y-78806793D01*
X138391410Y-78946982D01*
X138212982Y-79125410D01*
X138072793Y-79335219D01*
X138015564Y-79473380D01*
X137968063Y-79341771D01*
X137907127Y-79227765D01*
X137667851Y-79161754D01*
X136887605Y-79942000D01*
X136901748Y-79956143D01*
X136722143Y-80135748D01*
X136708000Y-80121605D01*
X136693858Y-80135748D01*
X136514253Y-79956143D01*
X136528395Y-79942000D01*
X135748149Y-79161754D01*
X135508873Y-79227765D01*
X135392574Y-79475426D01*
X135326826Y-79741018D01*
X135314155Y-80014334D01*
X135325885Y-80091937D01*
X135192702Y-80001177D01*
X134935034Y-79891681D01*
X134855076Y-79874992D01*
X134635000Y-79997148D01*
X134635000Y-81915000D01*
X135930500Y-81915000D01*
X135930500Y-81127500D01*
X135894125Y-80935483D01*
X135927755Y-80901853D01*
X135993765Y-81141127D01*
X136241426Y-81257426D01*
X136507018Y-81323174D01*
X136780334Y-81335845D01*
X137050870Y-81294951D01*
X137089997Y-81280829D01*
X137063183Y-81307643D01*
X136937111Y-81496323D01*
X136850271Y-81705974D01*
X136806000Y-81928538D01*
X136806000Y-82155462D01*
X136850271Y-82378026D01*
X136937111Y-82587677D01*
X137063183Y-82776357D01*
X137223643Y-82936817D01*
X137412323Y-83062889D01*
X137621974Y-83149729D01*
X137844538Y-83194000D01*
X138071462Y-83194000D01*
X138294026Y-83149729D01*
X138503677Y-83062889D01*
X138692357Y-82936817D01*
X138852817Y-82776357D01*
X138978889Y-82587677D01*
X139065729Y-82378026D01*
X139110000Y-82155462D01*
X139110000Y-81928538D01*
X139065729Y-81705974D01*
X138978889Y-81496323D01*
X138852817Y-81307643D01*
X138692357Y-81147183D01*
X138503677Y-81021111D01*
X138294026Y-80934271D01*
X138071462Y-80890000D01*
X137844538Y-80890000D01*
X137705277Y-80917701D01*
X137784293Y-80838685D01*
X137667853Y-80722245D01*
X137907127Y-80656235D01*
X138018799Y-80418428D01*
X138072793Y-80548781D01*
X138212982Y-80758590D01*
X138391410Y-80937018D01*
X138601219Y-81077207D01*
X138834346Y-81173772D01*
X139081833Y-81223000D01*
X139334167Y-81223000D01*
X139581654Y-81173772D01*
X139814781Y-81077207D01*
X140024590Y-80937018D01*
X140203018Y-80758590D01*
X140208000Y-80751134D01*
X140212982Y-80758590D01*
X140391410Y-80937018D01*
X140601219Y-81077207D01*
X140834346Y-81173772D01*
X141081833Y-81223000D01*
X141334167Y-81223000D01*
X141581654Y-81173772D01*
X141814781Y-81077207D01*
X141978245Y-80967985D01*
X141985203Y-80990923D01*
X141912323Y-81021111D01*
X141723643Y-81147183D01*
X141563183Y-81307643D01*
X141437111Y-81496323D01*
X141350271Y-81705974D01*
X141306000Y-81928538D01*
X141306000Y-82155462D01*
X141350271Y-82378026D01*
X141437111Y-82587677D01*
X141563183Y-82776357D01*
X141723643Y-82936817D01*
X141912323Y-83062889D01*
X142121974Y-83149729D01*
X142344538Y-83194000D01*
X142571462Y-83194000D01*
X142794026Y-83149729D01*
X143003677Y-83062889D01*
X143192357Y-82936817D01*
X143352817Y-82776357D01*
X143478889Y-82587677D01*
X143565729Y-82378026D01*
X143607307Y-82169000D01*
X144485500Y-82169000D01*
X144485500Y-82956500D01*
X144537609Y-83231576D01*
X144642382Y-83491200D01*
X144795792Y-83725395D01*
X144991943Y-83925162D01*
X145223298Y-84082823D01*
X145480966Y-84192319D01*
X145560924Y-84209008D01*
X145781000Y-84086852D01*
X145781000Y-82169000D01*
X144485500Y-82169000D01*
X143607307Y-82169000D01*
X143610000Y-82155462D01*
X143610000Y-81928538D01*
X143568599Y-81720400D01*
X144485500Y-81720400D01*
X144485500Y-81915000D01*
X145781000Y-81915000D01*
X145781000Y-81895000D01*
X146035000Y-81895000D01*
X146035000Y-81915000D01*
X146055000Y-81915000D01*
X146055000Y-82169000D01*
X146035000Y-82169000D01*
X146035000Y-84086852D01*
X146255076Y-84209008D01*
X146335034Y-84192319D01*
X146514001Y-84116267D01*
X146514001Y-84284000D01*
X133902000Y-84284000D01*
X133902000Y-84116267D01*
X134080966Y-84192319D01*
X134160924Y-84209008D01*
X134381000Y-84086852D01*
X134381000Y-82169000D01*
X134635000Y-82169000D01*
X134635000Y-84086852D01*
X134855076Y-84209008D01*
X134935034Y-84192319D01*
X135192702Y-84082823D01*
X135424057Y-83925162D01*
X135620208Y-83725395D01*
X135773618Y-83491200D01*
X135878391Y-83231576D01*
X135930500Y-82956500D01*
X135930500Y-82169000D01*
X134635000Y-82169000D01*
X134381000Y-82169000D01*
X134361000Y-82169000D01*
X134361000Y-81915000D01*
X134381000Y-81915000D01*
X134381000Y-79997148D01*
X134160924Y-79874992D01*
X134080966Y-79891681D01*
X133902000Y-79967733D01*
X133902000Y-79910108D01*
X133904670Y-79883000D01*
X133894012Y-79774789D01*
X133862448Y-79670737D01*
X133811191Y-79574842D01*
X133742211Y-79490789D01*
X133658158Y-79421809D01*
X133562263Y-79370552D01*
X133458211Y-79338988D01*
X133377109Y-79331000D01*
X133377108Y-79331000D01*
X133350000Y-79328330D01*
X133322891Y-79331000D01*
X128060000Y-79331000D01*
X128060000Y-78427013D01*
X128644250Y-78424500D01*
X128803000Y-78265750D01*
X128803000Y-77166500D01*
X129057000Y-77166500D01*
X129057000Y-78265750D01*
X129215750Y-78424500D01*
X129930000Y-78427572D01*
X130054482Y-78415312D01*
X130174180Y-78379002D01*
X130284494Y-78320037D01*
X130381185Y-78240685D01*
X130460537Y-78143994D01*
X130519502Y-78033680D01*
X130555812Y-77913982D01*
X130568072Y-77789500D01*
X130565000Y-77325250D01*
X130406250Y-77166500D01*
X129057000Y-77166500D01*
X128803000Y-77166500D01*
X128783000Y-77166500D01*
X128783000Y-76912500D01*
X128803000Y-76912500D01*
X128803000Y-76892500D01*
X129057000Y-76892500D01*
X129057000Y-76912500D01*
X130406250Y-76912500D01*
X130565000Y-76753750D01*
X130568072Y-76289500D01*
X130555812Y-76165018D01*
X130519502Y-76045320D01*
X130460537Y-75935006D01*
X130381185Y-75838315D01*
X130347901Y-75811000D01*
X130370304Y-75783702D01*
X130372788Y-75779055D01*
X130496520Y-75902787D01*
X130516936Y-75927664D01*
X130616216Y-76009141D01*
X130729483Y-76069683D01*
X130852385Y-76106965D01*
X130865027Y-76108210D01*
X130948178Y-76116400D01*
X130948185Y-76116400D01*
X130980199Y-76119553D01*
X131012214Y-76116400D01*
X133700451Y-76116400D01*
X133700451Y-76639500D01*
X133710626Y-76742810D01*
X133740761Y-76842150D01*
X133789696Y-76933702D01*
X133855552Y-77013948D01*
X133935798Y-77079804D01*
X134027350Y-77128739D01*
X134126690Y-77158874D01*
X134230000Y-77169049D01*
X134610621Y-77169049D01*
X134624717Y-77215517D01*
X134685259Y-77328784D01*
X134766736Y-77428064D01*
X134866016Y-77509541D01*
X134979283Y-77570083D01*
X135102186Y-77607365D01*
X135197978Y-77616800D01*
X135230000Y-77619954D01*
X135235178Y-77619444D01*
X135548300Y-77932567D01*
X135548300Y-78028801D01*
X135583924Y-78207896D01*
X135653804Y-78376599D01*
X135755252Y-78528428D01*
X135884372Y-78657548D01*
X136003935Y-78737437D01*
X135993765Y-78742873D01*
X135927754Y-78982149D01*
X136708000Y-79762395D01*
X137488246Y-78982149D01*
X137422235Y-78742873D01*
X137174574Y-78626574D01*
X137112555Y-78611221D01*
X137195348Y-78528428D01*
X137296796Y-78376599D01*
X137366676Y-78207896D01*
X137402300Y-78028801D01*
X137402300Y-77846199D01*
X137366676Y-77667104D01*
X137296796Y-77498401D01*
X137195348Y-77346572D01*
X137066228Y-77217452D01*
X136914399Y-77116004D01*
X136745696Y-77046124D01*
X136600446Y-77017232D01*
X136604448Y-77013948D01*
X136670304Y-76933702D01*
X136719239Y-76842150D01*
X136749374Y-76742810D01*
X136759549Y-76639500D01*
X136759549Y-74187490D01*
X136768501Y-74209102D01*
G37*
G04 #@! TD.AperFunction*
D24*
X150655704Y-49914276D02*
X150834799Y-49949900D01*
X150981585Y-49949900D01*
X150959000Y-50063445D01*
X150959000Y-50317355D01*
X151008535Y-50566387D01*
X151105703Y-50800970D01*
X151246768Y-51012090D01*
X151426310Y-51191632D01*
X151637430Y-51332697D01*
X151872013Y-51429865D01*
X152121045Y-51479400D01*
X152374955Y-51479400D01*
X152623987Y-51429865D01*
X152858570Y-51332697D01*
X153069690Y-51191632D01*
X153118000Y-51143322D01*
X153118001Y-70895513D01*
X153096494Y-70877863D01*
X152986180Y-70818898D01*
X152866482Y-70782588D01*
X152742000Y-70770328D01*
X152177750Y-70773400D01*
X152019000Y-70932150D01*
X152019000Y-71731400D01*
X152039000Y-71731400D01*
X152039000Y-71985400D01*
X152019000Y-71985400D01*
X152019000Y-72784650D01*
X152177750Y-72943400D01*
X152742000Y-72946472D01*
X152866482Y-72934212D01*
X152986180Y-72897902D01*
X153096494Y-72838937D01*
X153118001Y-72821287D01*
X153118001Y-74435844D01*
X153116448Y-74433952D01*
X153036202Y-74368096D01*
X152944650Y-74319161D01*
X152845310Y-74289026D01*
X152742000Y-74278851D01*
X152511379Y-74278851D01*
X152497283Y-74232383D01*
X152436741Y-74119116D01*
X152355264Y-74019836D01*
X152255984Y-73938359D01*
X152142717Y-73877817D01*
X152117262Y-73870095D01*
X152055600Y-73808433D01*
X152055600Y-73712199D01*
X152019976Y-73533104D01*
X151950096Y-73364401D01*
X151848648Y-73212572D01*
X151719528Y-73083452D01*
X151567699Y-72982004D01*
X151476211Y-72944108D01*
X151606250Y-72943400D01*
X151765000Y-72784650D01*
X151765000Y-71985400D01*
X150565750Y-71985400D01*
X150407000Y-72144150D01*
X150403928Y-72308400D01*
X150416188Y-72432882D01*
X150452498Y-72552580D01*
X150511463Y-72662894D01*
X150590815Y-72759585D01*
X150687506Y-72838937D01*
X150797820Y-72897902D01*
X150852497Y-72914488D01*
X150689501Y-72982004D01*
X150537672Y-73083452D01*
X150408552Y-73212572D01*
X150307104Y-73364401D01*
X150237224Y-73533104D01*
X150201600Y-73712199D01*
X150201600Y-73894801D01*
X150237224Y-74073896D01*
X150307104Y-74242599D01*
X150408552Y-74394428D01*
X150537672Y-74523548D01*
X150581165Y-74552609D01*
X150552761Y-74605750D01*
X150522626Y-74705090D01*
X150512451Y-74808400D01*
X150512451Y-75708400D01*
X150522626Y-75811710D01*
X150552761Y-75911050D01*
X150601696Y-76002602D01*
X150667552Y-76082848D01*
X150747798Y-76148704D01*
X150839350Y-76197639D01*
X150938690Y-76227774D01*
X151042000Y-76237949D01*
X152742000Y-76237949D01*
X152845310Y-76227774D01*
X152944650Y-76197639D01*
X153036202Y-76148704D01*
X153116448Y-76082848D01*
X153118001Y-76080956D01*
X153118000Y-79331000D01*
X152532530Y-79331000D01*
X152559374Y-79242510D01*
X152569549Y-79139200D01*
X152569549Y-78239200D01*
X152559374Y-78135890D01*
X152529239Y-78036550D01*
X152480304Y-77944998D01*
X152414448Y-77864752D01*
X152334202Y-77798896D01*
X152242650Y-77749961D01*
X152143310Y-77719826D01*
X152040000Y-77709651D01*
X151726396Y-77709651D01*
X151677964Y-77650636D01*
X151653088Y-77630221D01*
X149802500Y-75779634D01*
X149802500Y-74228476D01*
X149870548Y-74160428D01*
X149971996Y-74008599D01*
X150041876Y-73839896D01*
X150077500Y-73660801D01*
X150077500Y-73478199D01*
X150041876Y-73299104D01*
X149971996Y-73130401D01*
X149870548Y-72978572D01*
X149741428Y-72849452D01*
X149589599Y-72748004D01*
X149420896Y-72678124D01*
X149241801Y-72642500D01*
X149219438Y-72642500D01*
X149267502Y-72552580D01*
X149303812Y-72432882D01*
X149316072Y-72308400D01*
X149313000Y-72144150D01*
X149154250Y-71985400D01*
X147955000Y-71985400D01*
X147955000Y-72005400D01*
X147701000Y-72005400D01*
X147701000Y-71985400D01*
X146501750Y-71985400D01*
X146343000Y-72144150D01*
X146341309Y-72234543D01*
X145439515Y-71332749D01*
X146347379Y-71332749D01*
X146339928Y-71408400D01*
X146343000Y-71572650D01*
X146501750Y-71731400D01*
X147701000Y-71731400D01*
X147701000Y-71711400D01*
X147955000Y-71711400D01*
X147955000Y-71731400D01*
X149154250Y-71731400D01*
X149313000Y-71572650D01*
X149316072Y-71408400D01*
X150403928Y-71408400D01*
X150407000Y-71572650D01*
X150565750Y-71731400D01*
X151765000Y-71731400D01*
X151765000Y-70932150D01*
X151606250Y-70773400D01*
X151042000Y-70770328D01*
X150917518Y-70782588D01*
X150797820Y-70818898D01*
X150687506Y-70877863D01*
X150590815Y-70957215D01*
X150511463Y-71053906D01*
X150452498Y-71164220D01*
X150416188Y-71283918D01*
X150403928Y-71408400D01*
X149316072Y-71408400D01*
X149303812Y-71283918D01*
X149267502Y-71164220D01*
X149208537Y-71053906D01*
X149129185Y-70957215D01*
X149032494Y-70877863D01*
X148922180Y-70818898D01*
X148802482Y-70782588D01*
X148678000Y-70770328D01*
X148113750Y-70773400D01*
X147961597Y-70925553D01*
X147967374Y-70906510D01*
X147977549Y-70803200D01*
X147977549Y-69303200D01*
X147967374Y-69199890D01*
X147937239Y-69100550D01*
X147888304Y-69008998D01*
X147822448Y-68928752D01*
X147742202Y-68862896D01*
X147650650Y-68813961D01*
X147551310Y-68783826D01*
X147448000Y-68773651D01*
X147074315Y-68773651D01*
X150424588Y-65423379D01*
X150449464Y-65402964D01*
X150530941Y-65303684D01*
X150591483Y-65190417D01*
X150615033Y-65112783D01*
X150628765Y-65067515D01*
X150641354Y-64939701D01*
X150638200Y-64907679D01*
X150638200Y-49907026D01*
X150655704Y-49914276D01*
G04 #@! TA.AperFunction,Conductor*
D25*
G36*
X150655704Y-49914276D02*
G01*
X150834799Y-49949900D01*
X150981585Y-49949900D01*
X150959000Y-50063445D01*
X150959000Y-50317355D01*
X151008535Y-50566387D01*
X151105703Y-50800970D01*
X151246768Y-51012090D01*
X151426310Y-51191632D01*
X151637430Y-51332697D01*
X151872013Y-51429865D01*
X152121045Y-51479400D01*
X152374955Y-51479400D01*
X152623987Y-51429865D01*
X152858570Y-51332697D01*
X153069690Y-51191632D01*
X153118000Y-51143322D01*
X153118001Y-70895513D01*
X153096494Y-70877863D01*
X152986180Y-70818898D01*
X152866482Y-70782588D01*
X152742000Y-70770328D01*
X152177750Y-70773400D01*
X152019000Y-70932150D01*
X152019000Y-71731400D01*
X152039000Y-71731400D01*
X152039000Y-71985400D01*
X152019000Y-71985400D01*
X152019000Y-72784650D01*
X152177750Y-72943400D01*
X152742000Y-72946472D01*
X152866482Y-72934212D01*
X152986180Y-72897902D01*
X153096494Y-72838937D01*
X153118001Y-72821287D01*
X153118001Y-74435844D01*
X153116448Y-74433952D01*
X153036202Y-74368096D01*
X152944650Y-74319161D01*
X152845310Y-74289026D01*
X152742000Y-74278851D01*
X152511379Y-74278851D01*
X152497283Y-74232383D01*
X152436741Y-74119116D01*
X152355264Y-74019836D01*
X152255984Y-73938359D01*
X152142717Y-73877817D01*
X152117262Y-73870095D01*
X152055600Y-73808433D01*
X152055600Y-73712199D01*
X152019976Y-73533104D01*
X151950096Y-73364401D01*
X151848648Y-73212572D01*
X151719528Y-73083452D01*
X151567699Y-72982004D01*
X151476211Y-72944108D01*
X151606250Y-72943400D01*
X151765000Y-72784650D01*
X151765000Y-71985400D01*
X150565750Y-71985400D01*
X150407000Y-72144150D01*
X150403928Y-72308400D01*
X150416188Y-72432882D01*
X150452498Y-72552580D01*
X150511463Y-72662894D01*
X150590815Y-72759585D01*
X150687506Y-72838937D01*
X150797820Y-72897902D01*
X150852497Y-72914488D01*
X150689501Y-72982004D01*
X150537672Y-73083452D01*
X150408552Y-73212572D01*
X150307104Y-73364401D01*
X150237224Y-73533104D01*
X150201600Y-73712199D01*
X150201600Y-73894801D01*
X150237224Y-74073896D01*
X150307104Y-74242599D01*
X150408552Y-74394428D01*
X150537672Y-74523548D01*
X150581165Y-74552609D01*
X150552761Y-74605750D01*
X150522626Y-74705090D01*
X150512451Y-74808400D01*
X150512451Y-75708400D01*
X150522626Y-75811710D01*
X150552761Y-75911050D01*
X150601696Y-76002602D01*
X150667552Y-76082848D01*
X150747798Y-76148704D01*
X150839350Y-76197639D01*
X150938690Y-76227774D01*
X151042000Y-76237949D01*
X152742000Y-76237949D01*
X152845310Y-76227774D01*
X152944650Y-76197639D01*
X153036202Y-76148704D01*
X153116448Y-76082848D01*
X153118001Y-76080956D01*
X153118000Y-79331000D01*
X152532530Y-79331000D01*
X152559374Y-79242510D01*
X152569549Y-79139200D01*
X152569549Y-78239200D01*
X152559374Y-78135890D01*
X152529239Y-78036550D01*
X152480304Y-77944998D01*
X152414448Y-77864752D01*
X152334202Y-77798896D01*
X152242650Y-77749961D01*
X152143310Y-77719826D01*
X152040000Y-77709651D01*
X151726396Y-77709651D01*
X151677964Y-77650636D01*
X151653088Y-77630221D01*
X149802500Y-75779634D01*
X149802500Y-74228476D01*
X149870548Y-74160428D01*
X149971996Y-74008599D01*
X150041876Y-73839896D01*
X150077500Y-73660801D01*
X150077500Y-73478199D01*
X150041876Y-73299104D01*
X149971996Y-73130401D01*
X149870548Y-72978572D01*
X149741428Y-72849452D01*
X149589599Y-72748004D01*
X149420896Y-72678124D01*
X149241801Y-72642500D01*
X149219438Y-72642500D01*
X149267502Y-72552580D01*
X149303812Y-72432882D01*
X149316072Y-72308400D01*
X149313000Y-72144150D01*
X149154250Y-71985400D01*
X147955000Y-71985400D01*
X147955000Y-72005400D01*
X147701000Y-72005400D01*
X147701000Y-71985400D01*
X146501750Y-71985400D01*
X146343000Y-72144150D01*
X146341309Y-72234543D01*
X145439515Y-71332749D01*
X146347379Y-71332749D01*
X146339928Y-71408400D01*
X146343000Y-71572650D01*
X146501750Y-71731400D01*
X147701000Y-71731400D01*
X147701000Y-71711400D01*
X147955000Y-71711400D01*
X147955000Y-71731400D01*
X149154250Y-71731400D01*
X149313000Y-71572650D01*
X149316072Y-71408400D01*
X150403928Y-71408400D01*
X150407000Y-71572650D01*
X150565750Y-71731400D01*
X151765000Y-71731400D01*
X151765000Y-70932150D01*
X151606250Y-70773400D01*
X151042000Y-70770328D01*
X150917518Y-70782588D01*
X150797820Y-70818898D01*
X150687506Y-70877863D01*
X150590815Y-70957215D01*
X150511463Y-71053906D01*
X150452498Y-71164220D01*
X150416188Y-71283918D01*
X150403928Y-71408400D01*
X149316072Y-71408400D01*
X149303812Y-71283918D01*
X149267502Y-71164220D01*
X149208537Y-71053906D01*
X149129185Y-70957215D01*
X149032494Y-70877863D01*
X148922180Y-70818898D01*
X148802482Y-70782588D01*
X148678000Y-70770328D01*
X148113750Y-70773400D01*
X147961597Y-70925553D01*
X147967374Y-70906510D01*
X147977549Y-70803200D01*
X147977549Y-69303200D01*
X147967374Y-69199890D01*
X147937239Y-69100550D01*
X147888304Y-69008998D01*
X147822448Y-68928752D01*
X147742202Y-68862896D01*
X147650650Y-68813961D01*
X147551310Y-68783826D01*
X147448000Y-68773651D01*
X147074315Y-68773651D01*
X150424588Y-65423379D01*
X150449464Y-65402964D01*
X150530941Y-65303684D01*
X150591483Y-65190417D01*
X150615033Y-65112783D01*
X150628765Y-65067515D01*
X150641354Y-64939701D01*
X150638200Y-64907679D01*
X150638200Y-49907026D01*
X150655704Y-49914276D01*
G37*
G04 #@! TD.AperFunction*
D24*
X145338420Y-78114887D02*
X145358836Y-78139764D01*
X145458116Y-78221241D01*
X145571383Y-78281783D01*
X145694285Y-78319065D01*
X145822099Y-78331654D01*
X145854121Y-78328500D01*
X146004333Y-78328500D01*
X145514400Y-78818433D01*
X138204385Y-71508419D01*
X138183964Y-71483536D01*
X138084684Y-71402059D01*
X137971417Y-71341517D01*
X137848514Y-71304235D01*
X137752722Y-71294800D01*
X137720700Y-71291646D01*
X137690111Y-71294659D01*
X137739185Y-71254385D01*
X137818537Y-71157694D01*
X137877502Y-71047380D01*
X137913812Y-70927682D01*
X137926072Y-70803200D01*
X137925401Y-70701868D01*
X145338420Y-78114887D01*
G04 #@! TA.AperFunction,Conductor*
D25*
G36*
X145338420Y-78114887D02*
G01*
X145358836Y-78139764D01*
X145458116Y-78221241D01*
X145571383Y-78281783D01*
X145694285Y-78319065D01*
X145822099Y-78331654D01*
X145854121Y-78328500D01*
X146004333Y-78328500D01*
X145514400Y-78818433D01*
X138204385Y-71508419D01*
X138183964Y-71483536D01*
X138084684Y-71402059D01*
X137971417Y-71341517D01*
X137848514Y-71304235D01*
X137752722Y-71294800D01*
X137720700Y-71291646D01*
X137690111Y-71294659D01*
X137739185Y-71254385D01*
X137818537Y-71157694D01*
X137877502Y-71047380D01*
X137913812Y-70927682D01*
X137926072Y-70803200D01*
X137925401Y-70701868D01*
X145338420Y-78114887D01*
G37*
G04 #@! TD.AperFunction*
D24*
X135915000Y-69926200D02*
X135935000Y-69926200D01*
X135935000Y-70180200D01*
X135915000Y-70180200D01*
X135915000Y-70200200D01*
X135661000Y-70200200D01*
X135661000Y-70180200D01*
X135641000Y-70180200D01*
X135641000Y-69926200D01*
X135661000Y-69926200D01*
X135661000Y-69906200D01*
X135915000Y-69906200D01*
X135915000Y-69926200D01*
G04 #@! TA.AperFunction,Conductor*
D25*
G36*
X135915000Y-69926200D02*
G01*
X135935000Y-69926200D01*
X135935000Y-70180200D01*
X135915000Y-70180200D01*
X135915000Y-70200200D01*
X135661000Y-70200200D01*
X135661000Y-70180200D01*
X135641000Y-70180200D01*
X135641000Y-69926200D01*
X135661000Y-69926200D01*
X135661000Y-69906200D01*
X135915000Y-69906200D01*
X135915000Y-69926200D01*
G37*
G04 #@! TD.AperFunction*
D24*
X138773750Y-47824000D02*
X139673000Y-47824000D01*
X139673000Y-47804000D01*
X139801216Y-47804000D01*
X139797000Y-47825197D01*
X139797000Y-47968403D01*
X139799824Y-47982600D01*
X139741197Y-47982600D01*
X139600742Y-48010538D01*
X139468436Y-48065341D01*
X139449490Y-48078000D01*
X138773750Y-48078000D01*
X138615000Y-48236750D01*
X138611928Y-48501000D01*
X138624188Y-48625482D01*
X138647096Y-48701000D01*
X138624188Y-48776518D01*
X138611928Y-48901000D01*
X138615000Y-49165250D01*
X138773750Y-49324000D01*
X139423749Y-49324000D01*
X139468436Y-49353859D01*
X139600742Y-49408662D01*
X139741197Y-49436600D01*
X139797000Y-49436600D01*
X139797000Y-49441603D01*
X139799824Y-49455800D01*
X139741197Y-49455800D01*
X139600742Y-49483738D01*
X139468436Y-49538541D01*
X139409381Y-49578000D01*
X138773750Y-49578000D01*
X138615000Y-49736750D01*
X138611928Y-50001000D01*
X138624188Y-50125482D01*
X138647096Y-50201000D01*
X138624188Y-50276518D01*
X138611928Y-50401000D01*
X138615000Y-50665250D01*
X138773750Y-50824000D01*
X139463858Y-50824000D01*
X139468436Y-50827059D01*
X139600742Y-50881862D01*
X139741197Y-50909800D01*
X139847800Y-50909800D01*
X139847800Y-50965603D01*
X139875738Y-51106058D01*
X139927000Y-51229815D01*
X139927000Y-51977250D01*
X140085750Y-52136000D01*
X140350000Y-52139072D01*
X140474482Y-52126812D01*
X140550000Y-52103904D01*
X140625518Y-52126812D01*
X140750000Y-52139072D01*
X141014250Y-52136000D01*
X141173000Y-51977250D01*
X141173000Y-51307296D01*
X141219059Y-51238364D01*
X141273862Y-51106058D01*
X141301800Y-50965603D01*
X141301800Y-50909800D01*
X141321000Y-50909800D01*
X141321000Y-50965603D01*
X141348938Y-51106058D01*
X141403741Y-51238364D01*
X141427000Y-51273174D01*
X141427000Y-51977250D01*
X141585750Y-52136000D01*
X141850000Y-52139072D01*
X141974482Y-52126812D01*
X142050000Y-52103904D01*
X142125518Y-52126812D01*
X142250000Y-52139072D01*
X142514250Y-52136000D01*
X142673000Y-51977250D01*
X142673000Y-51267187D01*
X142692259Y-51238364D01*
X142747062Y-51106058D01*
X142752643Y-51078000D01*
X142927000Y-51078000D01*
X142927000Y-51977250D01*
X143085750Y-52136000D01*
X143350000Y-52139072D01*
X143474482Y-52126812D01*
X143594180Y-52090502D01*
X143704494Y-52031537D01*
X143801185Y-51952185D01*
X143880537Y-51855494D01*
X143939502Y-51745180D01*
X143975812Y-51625482D01*
X143988072Y-51501000D01*
X143985000Y-51236750D01*
X143826250Y-51078000D01*
X142927000Y-51078000D01*
X142752643Y-51078000D01*
X142775000Y-50965603D01*
X142775000Y-50909800D01*
X142881603Y-50909800D01*
X143022058Y-50881862D01*
X143154364Y-50827059D01*
X143158942Y-50824000D01*
X143826250Y-50824000D01*
X143985000Y-50665250D01*
X143988072Y-50401000D01*
X143975812Y-50276518D01*
X143952904Y-50201000D01*
X143975812Y-50125482D01*
X143988072Y-50001000D01*
X143985000Y-49736750D01*
X143826250Y-49578000D01*
X143213419Y-49578000D01*
X143154364Y-49538541D01*
X143022058Y-49483738D01*
X142881603Y-49455800D01*
X142775000Y-49455800D01*
X142775000Y-49436600D01*
X142881603Y-49436600D01*
X143022058Y-49408662D01*
X143154364Y-49353859D01*
X143199051Y-49324000D01*
X143826250Y-49324000D01*
X143985000Y-49165250D01*
X143988072Y-48901000D01*
X143975812Y-48776518D01*
X143952904Y-48701000D01*
X143975812Y-48625482D01*
X143988072Y-48501000D01*
X143985000Y-48236750D01*
X143826250Y-48078000D01*
X143173310Y-48078000D01*
X143154364Y-48065341D01*
X143022058Y-48010538D01*
X142881603Y-47982600D01*
X142772176Y-47982600D01*
X142775000Y-47968403D01*
X142775000Y-47825197D01*
X142770784Y-47804000D01*
X142927000Y-47804000D01*
X142927000Y-47824000D01*
X143826250Y-47824000D01*
X143954650Y-47695600D01*
X146623022Y-47695600D01*
X146635904Y-47726699D01*
X146737352Y-47878528D01*
X146866472Y-48007648D01*
X147018301Y-48109096D01*
X147187004Y-48178976D01*
X147366099Y-48214600D01*
X147548701Y-48214600D01*
X147722823Y-48179965D01*
X147676173Y-48267242D01*
X147641992Y-48379919D01*
X147630451Y-48497100D01*
X147630451Y-49254900D01*
X147641992Y-49372081D01*
X147676173Y-49484758D01*
X147731679Y-49588603D01*
X147762370Y-49626000D01*
X147731679Y-49663397D01*
X147676173Y-49767242D01*
X147641992Y-49879919D01*
X147630451Y-49997100D01*
X147630451Y-50754900D01*
X147641992Y-50872081D01*
X147676173Y-50984758D01*
X147731679Y-51088603D01*
X147762370Y-51126000D01*
X147731679Y-51163397D01*
X147676173Y-51267242D01*
X147641992Y-51379919D01*
X147630451Y-51497100D01*
X147630451Y-52254900D01*
X147641992Y-52372081D01*
X147676173Y-52484758D01*
X147731679Y-52588603D01*
X147762370Y-52626000D01*
X147731679Y-52663397D01*
X147676173Y-52767242D01*
X147641992Y-52879919D01*
X147630451Y-52997100D01*
X147630451Y-53754900D01*
X147641992Y-53872081D01*
X147676173Y-53984758D01*
X147731679Y-54088603D01*
X147762370Y-54126000D01*
X147731679Y-54163397D01*
X147676173Y-54267242D01*
X147641992Y-54379919D01*
X147630451Y-54497100D01*
X147630451Y-55254900D01*
X147641992Y-55372081D01*
X147676173Y-55484758D01*
X147731679Y-55588603D01*
X147762370Y-55626000D01*
X147731679Y-55663397D01*
X147676173Y-55767242D01*
X147641992Y-55879919D01*
X147630451Y-55997100D01*
X147630451Y-56754900D01*
X147641992Y-56872081D01*
X147676173Y-56984758D01*
X147731679Y-57088603D01*
X147762370Y-57126000D01*
X147731679Y-57163397D01*
X147699286Y-57224000D01*
X140978522Y-57224000D01*
X140946500Y-57220846D01*
X140818685Y-57233435D01*
X140757235Y-57252076D01*
X140695783Y-57270717D01*
X140582516Y-57331259D01*
X140483236Y-57412736D01*
X140462820Y-57437613D01*
X139749434Y-58151000D01*
X139653199Y-58151000D01*
X139474104Y-58186624D01*
X139305401Y-58256504D01*
X139153572Y-58357952D01*
X139024452Y-58487072D01*
X138923004Y-58638901D01*
X138853124Y-58807604D01*
X138817500Y-58986699D01*
X138817500Y-59169301D01*
X138853124Y-59348396D01*
X138923004Y-59517099D01*
X139024452Y-59668928D01*
X139153572Y-59798048D01*
X139305401Y-59899496D01*
X139474104Y-59969376D01*
X139653199Y-60005000D01*
X139835801Y-60005000D01*
X140014896Y-59969376D01*
X140139208Y-59917884D01*
X140164672Y-59943348D01*
X140316501Y-60044796D01*
X140485204Y-60114676D01*
X140664299Y-60150300D01*
X140760534Y-60150300D01*
X141924620Y-61314387D01*
X141945036Y-61339264D01*
X142044316Y-61420741D01*
X142157583Y-61481283D01*
X142211634Y-61497679D01*
X142280485Y-61518565D01*
X142408300Y-61531154D01*
X142440322Y-61528000D01*
X142637249Y-61528000D01*
X142614424Y-61583104D01*
X142578800Y-61762199D01*
X142578800Y-61944801D01*
X142614424Y-62123896D01*
X142684304Y-62292599D01*
X142785752Y-62444428D01*
X142914872Y-62573548D01*
X143066701Y-62674996D01*
X143235404Y-62744876D01*
X143414499Y-62780500D01*
X143510733Y-62780500D01*
X143544619Y-62814386D01*
X143565036Y-62839264D01*
X143664316Y-62920741D01*
X143777583Y-62981283D01*
X143788106Y-62984475D01*
X143773224Y-63020404D01*
X143737600Y-63199499D01*
X143737600Y-63346451D01*
X143531100Y-63346451D01*
X143413919Y-63357992D01*
X143301242Y-63392173D01*
X143197397Y-63447679D01*
X143160000Y-63478370D01*
X143122603Y-63447679D01*
X143018758Y-63392173D01*
X142906081Y-63357992D01*
X142788900Y-63346451D01*
X142031100Y-63346451D01*
X141913919Y-63357992D01*
X141801242Y-63392173D01*
X141697397Y-63447679D01*
X141660000Y-63478370D01*
X141622603Y-63447679D01*
X141518758Y-63392173D01*
X141406081Y-63357992D01*
X141288900Y-63346451D01*
X140531100Y-63346451D01*
X140413919Y-63357992D01*
X140301242Y-63392173D01*
X140197397Y-63447679D01*
X140160000Y-63478370D01*
X140122603Y-63447679D01*
X140018758Y-63392173D01*
X139906081Y-63357992D01*
X139788900Y-63346451D01*
X139031100Y-63346451D01*
X138913919Y-63357992D01*
X138801242Y-63392173D01*
X138697397Y-63447679D01*
X138660000Y-63478370D01*
X138622603Y-63447679D01*
X138518758Y-63392173D01*
X138406081Y-63357992D01*
X138288900Y-63346451D01*
X137531100Y-63346451D01*
X137413919Y-63357992D01*
X137301242Y-63392173D01*
X137197397Y-63447679D01*
X137160000Y-63478370D01*
X137122603Y-63447679D01*
X137018758Y-63392173D01*
X136906081Y-63357992D01*
X136788900Y-63346451D01*
X136031100Y-63346451D01*
X135913919Y-63357992D01*
X135801242Y-63392173D01*
X135697397Y-63447679D01*
X135660000Y-63478370D01*
X135622603Y-63447679D01*
X135518758Y-63392173D01*
X135406081Y-63357992D01*
X135288900Y-63346451D01*
X134531100Y-63346451D01*
X134413919Y-63357992D01*
X134301242Y-63392173D01*
X134283177Y-63401829D01*
X134214494Y-63345463D01*
X134104180Y-63286498D01*
X133984482Y-63250188D01*
X133860000Y-63237928D01*
X133695750Y-63241000D01*
X133537000Y-63399750D01*
X133537000Y-64499000D01*
X133557000Y-64499000D01*
X133557000Y-64753000D01*
X133537000Y-64753000D01*
X133537000Y-65852250D01*
X133695750Y-66011000D01*
X133860000Y-66014072D01*
X133984482Y-66001812D01*
X134104180Y-65965502D01*
X134214494Y-65906537D01*
X134283177Y-65850171D01*
X134301242Y-65859827D01*
X134413919Y-65894008D01*
X134531100Y-65905549D01*
X135288900Y-65905549D01*
X135406081Y-65894008D01*
X135518758Y-65859827D01*
X135622603Y-65804321D01*
X135660000Y-65773630D01*
X135697397Y-65804321D01*
X135801242Y-65859827D01*
X135913919Y-65894008D01*
X136031100Y-65905549D01*
X136788900Y-65905549D01*
X136906081Y-65894008D01*
X137018758Y-65859827D01*
X137122603Y-65804321D01*
X137160000Y-65773630D01*
X137197397Y-65804321D01*
X137258000Y-65836714D01*
X137258001Y-67041168D01*
X137254846Y-67073200D01*
X137267435Y-67201014D01*
X137304717Y-67323916D01*
X137304718Y-67323917D01*
X137365260Y-67437184D01*
X137446737Y-67536464D01*
X137471614Y-67556880D01*
X138185314Y-68270580D01*
X138119522Y-68264100D01*
X138087500Y-68260946D01*
X138055478Y-68264100D01*
X135098967Y-68264100D01*
X132836805Y-66001939D01*
X132960000Y-66014072D01*
X133124250Y-66011000D01*
X133283000Y-65852250D01*
X133283000Y-64753000D01*
X133263000Y-64753000D01*
X133263000Y-64499000D01*
X133283000Y-64499000D01*
X133283000Y-63399750D01*
X133124250Y-63241000D01*
X132960000Y-63237928D01*
X132835518Y-63250188D01*
X132715820Y-63286498D01*
X132658898Y-63316924D01*
X132643827Y-63267242D01*
X132588321Y-63163397D01*
X132557630Y-63126000D01*
X132588321Y-63088603D01*
X132643827Y-62984758D01*
X132678008Y-62872081D01*
X132689549Y-62754900D01*
X132689549Y-61997100D01*
X132678008Y-61879919D01*
X132643827Y-61767242D01*
X132588321Y-61663397D01*
X132557630Y-61626000D01*
X132588321Y-61588603D01*
X132643827Y-61484758D01*
X132678008Y-61372081D01*
X132689549Y-61254900D01*
X132689549Y-60497100D01*
X132678008Y-60379919D01*
X132643827Y-60267242D01*
X132588321Y-60163397D01*
X132557630Y-60126000D01*
X132588321Y-60088603D01*
X132643827Y-59984758D01*
X132678008Y-59872081D01*
X132689549Y-59754900D01*
X132689549Y-58997100D01*
X132678008Y-58879919D01*
X132643827Y-58767242D01*
X132588321Y-58663397D01*
X132557630Y-58626000D01*
X132588321Y-58588603D01*
X132643827Y-58484758D01*
X132678008Y-58372081D01*
X132689549Y-58254900D01*
X132689549Y-57497100D01*
X132678008Y-57379919D01*
X132643827Y-57267242D01*
X132588321Y-57163397D01*
X132557630Y-57126000D01*
X132588321Y-57088603D01*
X132643827Y-56984758D01*
X132678008Y-56872081D01*
X132689549Y-56754900D01*
X132689549Y-55997100D01*
X132678008Y-55879919D01*
X132643827Y-55767242D01*
X132588321Y-55663397D01*
X132557630Y-55626000D01*
X132588321Y-55588603D01*
X132643827Y-55484758D01*
X132678008Y-55372081D01*
X132689549Y-55254900D01*
X132689549Y-54497100D01*
X132678008Y-54379919D01*
X132643827Y-54267242D01*
X132588321Y-54163397D01*
X132557630Y-54126000D01*
X132588321Y-54088603D01*
X132643827Y-53984758D01*
X132678008Y-53872081D01*
X132689549Y-53754900D01*
X132689549Y-52997100D01*
X132678008Y-52879919D01*
X132643827Y-52767242D01*
X132588321Y-52663397D01*
X132557630Y-52626000D01*
X132588321Y-52588603D01*
X132643827Y-52484758D01*
X132678008Y-52372081D01*
X132689549Y-52254900D01*
X132689549Y-51501000D01*
X138611928Y-51501000D01*
X138624188Y-51625482D01*
X138660498Y-51745180D01*
X138719463Y-51855494D01*
X138798815Y-51952185D01*
X138895506Y-52031537D01*
X139005820Y-52090502D01*
X139125518Y-52126812D01*
X139250000Y-52139072D01*
X139514250Y-52136000D01*
X139673000Y-51977250D01*
X139673000Y-51078000D01*
X138773750Y-51078000D01*
X138615000Y-51236750D01*
X138611928Y-51501000D01*
X132689549Y-51501000D01*
X132689549Y-51497100D01*
X132678008Y-51379919D01*
X132643827Y-51267242D01*
X132588321Y-51163397D01*
X132557630Y-51126000D01*
X132588321Y-51088603D01*
X132643827Y-50984758D01*
X132678008Y-50872081D01*
X132689549Y-50754900D01*
X132689549Y-49997100D01*
X132678008Y-49879919D01*
X132643827Y-49767242D01*
X132588321Y-49663397D01*
X132557630Y-49626000D01*
X132588321Y-49588603D01*
X132620714Y-49528000D01*
X134898278Y-49528000D01*
X134930300Y-49531154D01*
X134962322Y-49528000D01*
X135058114Y-49518565D01*
X135181017Y-49481283D01*
X135294284Y-49420741D01*
X135393564Y-49339264D01*
X135413985Y-49314381D01*
X137032767Y-47695600D01*
X138645350Y-47695600D01*
X138773750Y-47824000D01*
G04 #@! TA.AperFunction,Conductor*
D25*
G36*
X138773750Y-47824000D02*
G01*
X139673000Y-47824000D01*
X139673000Y-47804000D01*
X139801216Y-47804000D01*
X139797000Y-47825197D01*
X139797000Y-47968403D01*
X139799824Y-47982600D01*
X139741197Y-47982600D01*
X139600742Y-48010538D01*
X139468436Y-48065341D01*
X139449490Y-48078000D01*
X138773750Y-48078000D01*
X138615000Y-48236750D01*
X138611928Y-48501000D01*
X138624188Y-48625482D01*
X138647096Y-48701000D01*
X138624188Y-48776518D01*
X138611928Y-48901000D01*
X138615000Y-49165250D01*
X138773750Y-49324000D01*
X139423749Y-49324000D01*
X139468436Y-49353859D01*
X139600742Y-49408662D01*
X139741197Y-49436600D01*
X139797000Y-49436600D01*
X139797000Y-49441603D01*
X139799824Y-49455800D01*
X139741197Y-49455800D01*
X139600742Y-49483738D01*
X139468436Y-49538541D01*
X139409381Y-49578000D01*
X138773750Y-49578000D01*
X138615000Y-49736750D01*
X138611928Y-50001000D01*
X138624188Y-50125482D01*
X138647096Y-50201000D01*
X138624188Y-50276518D01*
X138611928Y-50401000D01*
X138615000Y-50665250D01*
X138773750Y-50824000D01*
X139463858Y-50824000D01*
X139468436Y-50827059D01*
X139600742Y-50881862D01*
X139741197Y-50909800D01*
X139847800Y-50909800D01*
X139847800Y-50965603D01*
X139875738Y-51106058D01*
X139927000Y-51229815D01*
X139927000Y-51977250D01*
X140085750Y-52136000D01*
X140350000Y-52139072D01*
X140474482Y-52126812D01*
X140550000Y-52103904D01*
X140625518Y-52126812D01*
X140750000Y-52139072D01*
X141014250Y-52136000D01*
X141173000Y-51977250D01*
X141173000Y-51307296D01*
X141219059Y-51238364D01*
X141273862Y-51106058D01*
X141301800Y-50965603D01*
X141301800Y-50909800D01*
X141321000Y-50909800D01*
X141321000Y-50965603D01*
X141348938Y-51106058D01*
X141403741Y-51238364D01*
X141427000Y-51273174D01*
X141427000Y-51977250D01*
X141585750Y-52136000D01*
X141850000Y-52139072D01*
X141974482Y-52126812D01*
X142050000Y-52103904D01*
X142125518Y-52126812D01*
X142250000Y-52139072D01*
X142514250Y-52136000D01*
X142673000Y-51977250D01*
X142673000Y-51267187D01*
X142692259Y-51238364D01*
X142747062Y-51106058D01*
X142752643Y-51078000D01*
X142927000Y-51078000D01*
X142927000Y-51977250D01*
X143085750Y-52136000D01*
X143350000Y-52139072D01*
X143474482Y-52126812D01*
X143594180Y-52090502D01*
X143704494Y-52031537D01*
X143801185Y-51952185D01*
X143880537Y-51855494D01*
X143939502Y-51745180D01*
X143975812Y-51625482D01*
X143988072Y-51501000D01*
X143985000Y-51236750D01*
X143826250Y-51078000D01*
X142927000Y-51078000D01*
X142752643Y-51078000D01*
X142775000Y-50965603D01*
X142775000Y-50909800D01*
X142881603Y-50909800D01*
X143022058Y-50881862D01*
X143154364Y-50827059D01*
X143158942Y-50824000D01*
X143826250Y-50824000D01*
X143985000Y-50665250D01*
X143988072Y-50401000D01*
X143975812Y-50276518D01*
X143952904Y-50201000D01*
X143975812Y-50125482D01*
X143988072Y-50001000D01*
X143985000Y-49736750D01*
X143826250Y-49578000D01*
X143213419Y-49578000D01*
X143154364Y-49538541D01*
X143022058Y-49483738D01*
X142881603Y-49455800D01*
X142775000Y-49455800D01*
X142775000Y-49436600D01*
X142881603Y-49436600D01*
X143022058Y-49408662D01*
X143154364Y-49353859D01*
X143199051Y-49324000D01*
X143826250Y-49324000D01*
X143985000Y-49165250D01*
X143988072Y-48901000D01*
X143975812Y-48776518D01*
X143952904Y-48701000D01*
X143975812Y-48625482D01*
X143988072Y-48501000D01*
X143985000Y-48236750D01*
X143826250Y-48078000D01*
X143173310Y-48078000D01*
X143154364Y-48065341D01*
X143022058Y-48010538D01*
X142881603Y-47982600D01*
X142772176Y-47982600D01*
X142775000Y-47968403D01*
X142775000Y-47825197D01*
X142770784Y-47804000D01*
X142927000Y-47804000D01*
X142927000Y-47824000D01*
X143826250Y-47824000D01*
X143954650Y-47695600D01*
X146623022Y-47695600D01*
X146635904Y-47726699D01*
X146737352Y-47878528D01*
X146866472Y-48007648D01*
X147018301Y-48109096D01*
X147187004Y-48178976D01*
X147366099Y-48214600D01*
X147548701Y-48214600D01*
X147722823Y-48179965D01*
X147676173Y-48267242D01*
X147641992Y-48379919D01*
X147630451Y-48497100D01*
X147630451Y-49254900D01*
X147641992Y-49372081D01*
X147676173Y-49484758D01*
X147731679Y-49588603D01*
X147762370Y-49626000D01*
X147731679Y-49663397D01*
X147676173Y-49767242D01*
X147641992Y-49879919D01*
X147630451Y-49997100D01*
X147630451Y-50754900D01*
X147641992Y-50872081D01*
X147676173Y-50984758D01*
X147731679Y-51088603D01*
X147762370Y-51126000D01*
X147731679Y-51163397D01*
X147676173Y-51267242D01*
X147641992Y-51379919D01*
X147630451Y-51497100D01*
X147630451Y-52254900D01*
X147641992Y-52372081D01*
X147676173Y-52484758D01*
X147731679Y-52588603D01*
X147762370Y-52626000D01*
X147731679Y-52663397D01*
X147676173Y-52767242D01*
X147641992Y-52879919D01*
X147630451Y-52997100D01*
X147630451Y-53754900D01*
X147641992Y-53872081D01*
X147676173Y-53984758D01*
X147731679Y-54088603D01*
X147762370Y-54126000D01*
X147731679Y-54163397D01*
X147676173Y-54267242D01*
X147641992Y-54379919D01*
X147630451Y-54497100D01*
X147630451Y-55254900D01*
X147641992Y-55372081D01*
X147676173Y-55484758D01*
X147731679Y-55588603D01*
X147762370Y-55626000D01*
X147731679Y-55663397D01*
X147676173Y-55767242D01*
X147641992Y-55879919D01*
X147630451Y-55997100D01*
X147630451Y-56754900D01*
X147641992Y-56872081D01*
X147676173Y-56984758D01*
X147731679Y-57088603D01*
X147762370Y-57126000D01*
X147731679Y-57163397D01*
X147699286Y-57224000D01*
X140978522Y-57224000D01*
X140946500Y-57220846D01*
X140818685Y-57233435D01*
X140757235Y-57252076D01*
X140695783Y-57270717D01*
X140582516Y-57331259D01*
X140483236Y-57412736D01*
X140462820Y-57437613D01*
X139749434Y-58151000D01*
X139653199Y-58151000D01*
X139474104Y-58186624D01*
X139305401Y-58256504D01*
X139153572Y-58357952D01*
X139024452Y-58487072D01*
X138923004Y-58638901D01*
X138853124Y-58807604D01*
X138817500Y-58986699D01*
X138817500Y-59169301D01*
X138853124Y-59348396D01*
X138923004Y-59517099D01*
X139024452Y-59668928D01*
X139153572Y-59798048D01*
X139305401Y-59899496D01*
X139474104Y-59969376D01*
X139653199Y-60005000D01*
X139835801Y-60005000D01*
X140014896Y-59969376D01*
X140139208Y-59917884D01*
X140164672Y-59943348D01*
X140316501Y-60044796D01*
X140485204Y-60114676D01*
X140664299Y-60150300D01*
X140760534Y-60150300D01*
X141924620Y-61314387D01*
X141945036Y-61339264D01*
X142044316Y-61420741D01*
X142157583Y-61481283D01*
X142211634Y-61497679D01*
X142280485Y-61518565D01*
X142408300Y-61531154D01*
X142440322Y-61528000D01*
X142637249Y-61528000D01*
X142614424Y-61583104D01*
X142578800Y-61762199D01*
X142578800Y-61944801D01*
X142614424Y-62123896D01*
X142684304Y-62292599D01*
X142785752Y-62444428D01*
X142914872Y-62573548D01*
X143066701Y-62674996D01*
X143235404Y-62744876D01*
X143414499Y-62780500D01*
X143510733Y-62780500D01*
X143544619Y-62814386D01*
X143565036Y-62839264D01*
X143664316Y-62920741D01*
X143777583Y-62981283D01*
X143788106Y-62984475D01*
X143773224Y-63020404D01*
X143737600Y-63199499D01*
X143737600Y-63346451D01*
X143531100Y-63346451D01*
X143413919Y-63357992D01*
X143301242Y-63392173D01*
X143197397Y-63447679D01*
X143160000Y-63478370D01*
X143122603Y-63447679D01*
X143018758Y-63392173D01*
X142906081Y-63357992D01*
X142788900Y-63346451D01*
X142031100Y-63346451D01*
X141913919Y-63357992D01*
X141801242Y-63392173D01*
X141697397Y-63447679D01*
X141660000Y-63478370D01*
X141622603Y-63447679D01*
X141518758Y-63392173D01*
X141406081Y-63357992D01*
X141288900Y-63346451D01*
X140531100Y-63346451D01*
X140413919Y-63357992D01*
X140301242Y-63392173D01*
X140197397Y-63447679D01*
X140160000Y-63478370D01*
X140122603Y-63447679D01*
X140018758Y-63392173D01*
X139906081Y-63357992D01*
X139788900Y-63346451D01*
X139031100Y-63346451D01*
X138913919Y-63357992D01*
X138801242Y-63392173D01*
X138697397Y-63447679D01*
X138660000Y-63478370D01*
X138622603Y-63447679D01*
X138518758Y-63392173D01*
X138406081Y-63357992D01*
X138288900Y-63346451D01*
X137531100Y-63346451D01*
X137413919Y-63357992D01*
X137301242Y-63392173D01*
X137197397Y-63447679D01*
X137160000Y-63478370D01*
X137122603Y-63447679D01*
X137018758Y-63392173D01*
X136906081Y-63357992D01*
X136788900Y-63346451D01*
X136031100Y-63346451D01*
X135913919Y-63357992D01*
X135801242Y-63392173D01*
X135697397Y-63447679D01*
X135660000Y-63478370D01*
X135622603Y-63447679D01*
X135518758Y-63392173D01*
X135406081Y-63357992D01*
X135288900Y-63346451D01*
X134531100Y-63346451D01*
X134413919Y-63357992D01*
X134301242Y-63392173D01*
X134283177Y-63401829D01*
X134214494Y-63345463D01*
X134104180Y-63286498D01*
X133984482Y-63250188D01*
X133860000Y-63237928D01*
X133695750Y-63241000D01*
X133537000Y-63399750D01*
X133537000Y-64499000D01*
X133557000Y-64499000D01*
X133557000Y-64753000D01*
X133537000Y-64753000D01*
X133537000Y-65852250D01*
X133695750Y-66011000D01*
X133860000Y-66014072D01*
X133984482Y-66001812D01*
X134104180Y-65965502D01*
X134214494Y-65906537D01*
X134283177Y-65850171D01*
X134301242Y-65859827D01*
X134413919Y-65894008D01*
X134531100Y-65905549D01*
X135288900Y-65905549D01*
X135406081Y-65894008D01*
X135518758Y-65859827D01*
X135622603Y-65804321D01*
X135660000Y-65773630D01*
X135697397Y-65804321D01*
X135801242Y-65859827D01*
X135913919Y-65894008D01*
X136031100Y-65905549D01*
X136788900Y-65905549D01*
X136906081Y-65894008D01*
X137018758Y-65859827D01*
X137122603Y-65804321D01*
X137160000Y-65773630D01*
X137197397Y-65804321D01*
X137258000Y-65836714D01*
X137258001Y-67041168D01*
X137254846Y-67073200D01*
X137267435Y-67201014D01*
X137304717Y-67323916D01*
X137304718Y-67323917D01*
X137365260Y-67437184D01*
X137446737Y-67536464D01*
X137471614Y-67556880D01*
X138185314Y-68270580D01*
X138119522Y-68264100D01*
X138087500Y-68260946D01*
X138055478Y-68264100D01*
X135098967Y-68264100D01*
X132836805Y-66001939D01*
X132960000Y-66014072D01*
X133124250Y-66011000D01*
X133283000Y-65852250D01*
X133283000Y-64753000D01*
X133263000Y-64753000D01*
X133263000Y-64499000D01*
X133283000Y-64499000D01*
X133283000Y-63399750D01*
X133124250Y-63241000D01*
X132960000Y-63237928D01*
X132835518Y-63250188D01*
X132715820Y-63286498D01*
X132658898Y-63316924D01*
X132643827Y-63267242D01*
X132588321Y-63163397D01*
X132557630Y-63126000D01*
X132588321Y-63088603D01*
X132643827Y-62984758D01*
X132678008Y-62872081D01*
X132689549Y-62754900D01*
X132689549Y-61997100D01*
X132678008Y-61879919D01*
X132643827Y-61767242D01*
X132588321Y-61663397D01*
X132557630Y-61626000D01*
X132588321Y-61588603D01*
X132643827Y-61484758D01*
X132678008Y-61372081D01*
X132689549Y-61254900D01*
X132689549Y-60497100D01*
X132678008Y-60379919D01*
X132643827Y-60267242D01*
X132588321Y-60163397D01*
X132557630Y-60126000D01*
X132588321Y-60088603D01*
X132643827Y-59984758D01*
X132678008Y-59872081D01*
X132689549Y-59754900D01*
X132689549Y-58997100D01*
X132678008Y-58879919D01*
X132643827Y-58767242D01*
X132588321Y-58663397D01*
X132557630Y-58626000D01*
X132588321Y-58588603D01*
X132643827Y-58484758D01*
X132678008Y-58372081D01*
X132689549Y-58254900D01*
X132689549Y-57497100D01*
X132678008Y-57379919D01*
X132643827Y-57267242D01*
X132588321Y-57163397D01*
X132557630Y-57126000D01*
X132588321Y-57088603D01*
X132643827Y-56984758D01*
X132678008Y-56872081D01*
X132689549Y-56754900D01*
X132689549Y-55997100D01*
X132678008Y-55879919D01*
X132643827Y-55767242D01*
X132588321Y-55663397D01*
X132557630Y-55626000D01*
X132588321Y-55588603D01*
X132643827Y-55484758D01*
X132678008Y-55372081D01*
X132689549Y-55254900D01*
X132689549Y-54497100D01*
X132678008Y-54379919D01*
X132643827Y-54267242D01*
X132588321Y-54163397D01*
X132557630Y-54126000D01*
X132588321Y-54088603D01*
X132643827Y-53984758D01*
X132678008Y-53872081D01*
X132689549Y-53754900D01*
X132689549Y-52997100D01*
X132678008Y-52879919D01*
X132643827Y-52767242D01*
X132588321Y-52663397D01*
X132557630Y-52626000D01*
X132588321Y-52588603D01*
X132643827Y-52484758D01*
X132678008Y-52372081D01*
X132689549Y-52254900D01*
X132689549Y-51501000D01*
X138611928Y-51501000D01*
X138624188Y-51625482D01*
X138660498Y-51745180D01*
X138719463Y-51855494D01*
X138798815Y-51952185D01*
X138895506Y-52031537D01*
X139005820Y-52090502D01*
X139125518Y-52126812D01*
X139250000Y-52139072D01*
X139514250Y-52136000D01*
X139673000Y-51977250D01*
X139673000Y-51078000D01*
X138773750Y-51078000D01*
X138615000Y-51236750D01*
X138611928Y-51501000D01*
X132689549Y-51501000D01*
X132689549Y-51497100D01*
X132678008Y-51379919D01*
X132643827Y-51267242D01*
X132588321Y-51163397D01*
X132557630Y-51126000D01*
X132588321Y-51088603D01*
X132643827Y-50984758D01*
X132678008Y-50872081D01*
X132689549Y-50754900D01*
X132689549Y-49997100D01*
X132678008Y-49879919D01*
X132643827Y-49767242D01*
X132588321Y-49663397D01*
X132557630Y-49626000D01*
X132588321Y-49588603D01*
X132620714Y-49528000D01*
X134898278Y-49528000D01*
X134930300Y-49531154D01*
X134962322Y-49528000D01*
X135058114Y-49518565D01*
X135181017Y-49481283D01*
X135294284Y-49420741D01*
X135393564Y-49339264D01*
X135413985Y-49314381D01*
X137032767Y-47695600D01*
X138645350Y-47695600D01*
X138773750Y-47824000D01*
G37*
G04 #@! TD.AperFunction*
D24*
X141321000Y-49455800D02*
X141265197Y-49455800D01*
X141247475Y-49459325D01*
X141251000Y-49441603D01*
X141251000Y-49436600D01*
X141321000Y-49436600D01*
X141321000Y-49455800D01*
G04 #@! TA.AperFunction,Conductor*
D25*
G36*
X141321000Y-49455800D02*
G01*
X141265197Y-49455800D01*
X141247475Y-49459325D01*
X141251000Y-49441603D01*
X141251000Y-49436600D01*
X141321000Y-49436600D01*
X141321000Y-49455800D01*
G37*
G04 #@! TD.AperFunction*
D24*
X141321000Y-47825197D02*
X141321000Y-47968403D01*
X141323824Y-47982600D01*
X141248176Y-47982600D01*
X141251000Y-47968403D01*
X141251000Y-47825197D01*
X141246784Y-47804000D01*
X141325216Y-47804000D01*
X141321000Y-47825197D01*
G04 #@! TA.AperFunction,Conductor*
D25*
G36*
X141321000Y-47825197D02*
G01*
X141321000Y-47968403D01*
X141323824Y-47982600D01*
X141248176Y-47982600D01*
X141251000Y-47968403D01*
X141251000Y-47825197D01*
X141246784Y-47804000D01*
X141325216Y-47804000D01*
X141321000Y-47825197D01*
G37*
G04 #@! TD.AperFunction*
D24*
X147683750Y-41249000D02*
X148783000Y-41249000D01*
X148783000Y-41229000D01*
X149037000Y-41229000D01*
X149037000Y-41249000D01*
X150136250Y-41249000D01*
X150256750Y-41128500D01*
X153118000Y-41128500D01*
X153118000Y-41520792D01*
X153033959Y-41604833D01*
X152966980Y-41364744D01*
X152717952Y-41247644D01*
X152450865Y-41181377D01*
X152175983Y-41168490D01*
X151903867Y-41209478D01*
X151644977Y-41302764D01*
X151529020Y-41364744D01*
X151462040Y-41604835D01*
X152248000Y-42390795D01*
X152262143Y-42376653D01*
X152441748Y-42556258D01*
X152427605Y-42570400D01*
X152441748Y-42584543D01*
X152262143Y-42764148D01*
X152248000Y-42750005D01*
X152233858Y-42764148D01*
X152054253Y-42584543D01*
X152068395Y-42570400D01*
X151282435Y-41784440D01*
X151042344Y-41851420D01*
X150925244Y-42100448D01*
X150876030Y-42298803D01*
X150836301Y-42290900D01*
X150653699Y-42290900D01*
X150474604Y-42326524D01*
X150305901Y-42396404D01*
X150187428Y-42475564D01*
X150178008Y-42379919D01*
X150143827Y-42267242D01*
X150134171Y-42249177D01*
X150190537Y-42180494D01*
X150249502Y-42070180D01*
X150285812Y-41950482D01*
X150298072Y-41826000D01*
X150295000Y-41661750D01*
X150136250Y-41503000D01*
X149037000Y-41503000D01*
X149037000Y-41523000D01*
X148783000Y-41523000D01*
X148783000Y-41503000D01*
X147683750Y-41503000D01*
X147525000Y-41661750D01*
X147521928Y-41826000D01*
X147534188Y-41950482D01*
X147570498Y-42070180D01*
X147629463Y-42180494D01*
X147685829Y-42249177D01*
X147676173Y-42267242D01*
X147654843Y-42337556D01*
X147563236Y-42412736D01*
X147542820Y-42437613D01*
X145992234Y-43988200D01*
X145895999Y-43988200D01*
X145716904Y-44023824D01*
X145548201Y-44093704D01*
X145396372Y-44195152D01*
X145267252Y-44324272D01*
X145165804Y-44476101D01*
X145095924Y-44644804D01*
X145060300Y-44823899D01*
X145060300Y-45006501D01*
X145095924Y-45185596D01*
X145165804Y-45354299D01*
X145210706Y-45421500D01*
X135220821Y-45421500D01*
X135188799Y-45418346D01*
X135060985Y-45430935D01*
X134975110Y-45456985D01*
X134938083Y-45468217D01*
X134824816Y-45528759D01*
X134725536Y-45610236D01*
X134705120Y-45635113D01*
X133616234Y-46724000D01*
X132620714Y-46724000D01*
X132588321Y-46663397D01*
X132557630Y-46626000D01*
X132588321Y-46588603D01*
X132643827Y-46484758D01*
X132678008Y-46372081D01*
X132689549Y-46254900D01*
X132689549Y-45497100D01*
X132678008Y-45379919D01*
X132643827Y-45267242D01*
X132588321Y-45163397D01*
X132557630Y-45126000D01*
X132588321Y-45088603D01*
X132643827Y-44984758D01*
X132678008Y-44872081D01*
X132689549Y-44754900D01*
X132689549Y-43997100D01*
X132678008Y-43879919D01*
X132643827Y-43767242D01*
X132588321Y-43663397D01*
X132557630Y-43626000D01*
X132588321Y-43588603D01*
X132643827Y-43484758D01*
X132678008Y-43372081D01*
X132689549Y-43254900D01*
X132689549Y-42497100D01*
X132678008Y-42379919D01*
X132643827Y-42267242D01*
X132634171Y-42249177D01*
X132690537Y-42180494D01*
X132749502Y-42070180D01*
X132785812Y-41950482D01*
X132798072Y-41826000D01*
X132795000Y-41661750D01*
X132636250Y-41503000D01*
X131537000Y-41503000D01*
X131537000Y-41523000D01*
X131283000Y-41523000D01*
X131283000Y-41503000D01*
X131263000Y-41503000D01*
X131263000Y-41249000D01*
X131283000Y-41249000D01*
X131283000Y-41229000D01*
X131537000Y-41229000D01*
X131537000Y-41249000D01*
X132636250Y-41249000D01*
X132756750Y-41128500D01*
X147563250Y-41128500D01*
X147683750Y-41249000D01*
G04 #@! TA.AperFunction,Conductor*
D25*
G36*
X147683750Y-41249000D02*
G01*
X148783000Y-41249000D01*
X148783000Y-41229000D01*
X149037000Y-41229000D01*
X149037000Y-41249000D01*
X150136250Y-41249000D01*
X150256750Y-41128500D01*
X153118000Y-41128500D01*
X153118000Y-41520792D01*
X153033959Y-41604833D01*
X152966980Y-41364744D01*
X152717952Y-41247644D01*
X152450865Y-41181377D01*
X152175983Y-41168490D01*
X151903867Y-41209478D01*
X151644977Y-41302764D01*
X151529020Y-41364744D01*
X151462040Y-41604835D01*
X152248000Y-42390795D01*
X152262143Y-42376653D01*
X152441748Y-42556258D01*
X152427605Y-42570400D01*
X152441748Y-42584543D01*
X152262143Y-42764148D01*
X152248000Y-42750005D01*
X152233858Y-42764148D01*
X152054253Y-42584543D01*
X152068395Y-42570400D01*
X151282435Y-41784440D01*
X151042344Y-41851420D01*
X150925244Y-42100448D01*
X150876030Y-42298803D01*
X150836301Y-42290900D01*
X150653699Y-42290900D01*
X150474604Y-42326524D01*
X150305901Y-42396404D01*
X150187428Y-42475564D01*
X150178008Y-42379919D01*
X150143827Y-42267242D01*
X150134171Y-42249177D01*
X150190537Y-42180494D01*
X150249502Y-42070180D01*
X150285812Y-41950482D01*
X150298072Y-41826000D01*
X150295000Y-41661750D01*
X150136250Y-41503000D01*
X149037000Y-41503000D01*
X149037000Y-41523000D01*
X148783000Y-41523000D01*
X148783000Y-41503000D01*
X147683750Y-41503000D01*
X147525000Y-41661750D01*
X147521928Y-41826000D01*
X147534188Y-41950482D01*
X147570498Y-42070180D01*
X147629463Y-42180494D01*
X147685829Y-42249177D01*
X147676173Y-42267242D01*
X147654843Y-42337556D01*
X147563236Y-42412736D01*
X147542820Y-42437613D01*
X145992234Y-43988200D01*
X145895999Y-43988200D01*
X145716904Y-44023824D01*
X145548201Y-44093704D01*
X145396372Y-44195152D01*
X145267252Y-44324272D01*
X145165804Y-44476101D01*
X145095924Y-44644804D01*
X145060300Y-44823899D01*
X145060300Y-45006501D01*
X145095924Y-45185596D01*
X145165804Y-45354299D01*
X145210706Y-45421500D01*
X135220821Y-45421500D01*
X135188799Y-45418346D01*
X135060985Y-45430935D01*
X134975110Y-45456985D01*
X134938083Y-45468217D01*
X134824816Y-45528759D01*
X134725536Y-45610236D01*
X134705120Y-45635113D01*
X133616234Y-46724000D01*
X132620714Y-46724000D01*
X132588321Y-46663397D01*
X132557630Y-46626000D01*
X132588321Y-46588603D01*
X132643827Y-46484758D01*
X132678008Y-46372081D01*
X132689549Y-46254900D01*
X132689549Y-45497100D01*
X132678008Y-45379919D01*
X132643827Y-45267242D01*
X132588321Y-45163397D01*
X132557630Y-45126000D01*
X132588321Y-45088603D01*
X132643827Y-44984758D01*
X132678008Y-44872081D01*
X132689549Y-44754900D01*
X132689549Y-43997100D01*
X132678008Y-43879919D01*
X132643827Y-43767242D01*
X132588321Y-43663397D01*
X132557630Y-43626000D01*
X132588321Y-43588603D01*
X132643827Y-43484758D01*
X132678008Y-43372081D01*
X132689549Y-43254900D01*
X132689549Y-42497100D01*
X132678008Y-42379919D01*
X132643827Y-42267242D01*
X132634171Y-42249177D01*
X132690537Y-42180494D01*
X132749502Y-42070180D01*
X132785812Y-41950482D01*
X132798072Y-41826000D01*
X132795000Y-41661750D01*
X132636250Y-41503000D01*
X131537000Y-41503000D01*
X131537000Y-41523000D01*
X131283000Y-41523000D01*
X131283000Y-41503000D01*
X131263000Y-41503000D01*
X131263000Y-41249000D01*
X131283000Y-41249000D01*
X131283000Y-41229000D01*
X131537000Y-41229000D01*
X131537000Y-41249000D01*
X132636250Y-41249000D01*
X132756750Y-41128500D01*
X147563250Y-41128500D01*
X147683750Y-41249000D01*
G37*
G04 #@! TD.AperFunction*
D24*
X129159000Y-41795000D02*
X129179000Y-41795000D01*
X129179000Y-42049000D01*
X129159000Y-42049000D01*
X129159000Y-42069000D01*
X128905000Y-42069000D01*
X128905000Y-42049000D01*
X128885000Y-42049000D01*
X128885000Y-41795000D01*
X128905000Y-41795000D01*
X128905000Y-41775000D01*
X129159000Y-41775000D01*
X129159000Y-41795000D01*
G04 #@! TA.AperFunction,Conductor*
D25*
G36*
X129159000Y-41795000D02*
G01*
X129179000Y-41795000D01*
X129179000Y-42049000D01*
X129159000Y-42049000D01*
X129159000Y-42069000D01*
X128905000Y-42069000D01*
X128905000Y-42049000D01*
X128885000Y-42049000D01*
X128885000Y-41795000D01*
X128905000Y-41795000D01*
X128905000Y-41775000D01*
X129159000Y-41775000D01*
X129159000Y-41795000D01*
G37*
G04 #@! TD.AperFunction*
M02*
