G04 #@! TF.GenerationSoftware,KiCad,Pcbnew,(5.1.7)-1*
G04 #@! TF.CreationDate,2021-10-09T11:46:55+02:00*
G04 #@! TF.ProjectId,20210211_eduino,32303231-3032-4313-915f-656475696e6f,v1.0*
G04 #@! TF.SameCoordinates,Original*
G04 #@! TF.FileFunction,Legend,Bot*
G04 #@! TF.FilePolarity,Positive*
%FSLAX46Y46*%
G04 Gerber Fmt 4.6, Leading zero omitted, Abs format (unit mm)*
G04 Created by KiCad (PCBNEW (5.1.7)-1) date 2021-10-09 11:46:55*
%MOMM*%
%LPD*%
G01*
G04 APERTURE LIST*
%ADD10C,0.050000*%
%ADD11C,0.150000*%
%ADD12C,0.120000*%
G04 APERTURE END LIST*
D10*
X150373600Y-42018800D02*
X150340266Y-41952133D01*
X150340266Y-41852133D01*
X150373600Y-41752133D01*
X150440266Y-41685466D01*
X150506933Y-41652133D01*
X150640266Y-41618800D01*
X150740266Y-41618800D01*
X150873600Y-41652133D01*
X150940266Y-41685466D01*
X151006933Y-41752133D01*
X151040266Y-41852133D01*
X151040266Y-41918800D01*
X151006933Y-42018800D01*
X150973600Y-42052133D01*
X150740266Y-42052133D01*
X150740266Y-41918800D01*
X150573600Y-42352133D02*
X151040266Y-42352133D01*
X150640266Y-42352133D02*
X150606933Y-42385466D01*
X150573600Y-42452133D01*
X150573600Y-42552133D01*
X150606933Y-42618800D01*
X150673600Y-42652133D01*
X151040266Y-42652133D01*
X151040266Y-43285466D02*
X150340266Y-43285466D01*
X151006933Y-43285466D02*
X151040266Y-43218800D01*
X151040266Y-43085466D01*
X151006933Y-43018800D01*
X150973600Y-42985466D01*
X150906933Y-42952133D01*
X150706933Y-42952133D01*
X150640266Y-42985466D01*
X150606933Y-43018800D01*
X150573600Y-43085466D01*
X150573600Y-43218800D01*
X150606933Y-43285466D01*
X150340266Y-44959600D02*
X150340266Y-44626266D01*
X150673600Y-44592933D01*
X150640266Y-44626266D01*
X150606933Y-44692933D01*
X150606933Y-44859600D01*
X150640266Y-44926266D01*
X150673600Y-44959600D01*
X150740266Y-44992933D01*
X150906933Y-44992933D01*
X150973600Y-44959600D01*
X151006933Y-44926266D01*
X151040266Y-44859600D01*
X151040266Y-44692933D01*
X151006933Y-44626266D01*
X150973600Y-44592933D01*
X150573600Y-45226266D02*
X151040266Y-45392933D01*
X150573600Y-45559600D01*
X150289466Y-46715466D02*
X150289466Y-47115466D01*
X150989466Y-46915466D02*
X150289466Y-46915466D01*
X150989466Y-47282133D02*
X150522800Y-47648800D01*
X150522800Y-47282133D02*
X150989466Y-47648800D01*
X150989466Y-47915466D02*
X150289466Y-47915466D01*
X150289466Y-48082133D01*
X150322800Y-48182133D01*
X150389466Y-48248800D01*
X150456133Y-48282133D01*
X150589466Y-48315466D01*
X150689466Y-48315466D01*
X150822800Y-48282133D01*
X150889466Y-48248800D01*
X150956133Y-48182133D01*
X150989466Y-48082133D01*
X150989466Y-47915466D01*
X150989466Y-49672133D02*
X150656133Y-49438800D01*
X150989466Y-49272133D02*
X150289466Y-49272133D01*
X150289466Y-49538800D01*
X150322800Y-49605466D01*
X150356133Y-49638800D01*
X150422800Y-49672133D01*
X150522800Y-49672133D01*
X150589466Y-49638800D01*
X150622800Y-49605466D01*
X150656133Y-49538800D01*
X150656133Y-49272133D01*
X150989466Y-49905466D02*
X150522800Y-50272133D01*
X150522800Y-49905466D02*
X150989466Y-50272133D01*
X150989466Y-50538800D02*
X150289466Y-50538800D01*
X150289466Y-50705466D01*
X150322800Y-50805466D01*
X150389466Y-50872133D01*
X150456133Y-50905466D01*
X150589466Y-50938800D01*
X150689466Y-50938800D01*
X150822800Y-50905466D01*
X150889466Y-50872133D01*
X150956133Y-50805466D01*
X150989466Y-50705466D01*
X150989466Y-50538800D01*
D11*
X129062171Y-53502514D02*
X129062171Y-53835847D01*
X129585980Y-53978704D02*
X129585980Y-53502514D01*
X128585980Y-53502514D01*
X128585980Y-53978704D01*
X129538361Y-54359657D02*
X129585980Y-54502514D01*
X129585980Y-54740609D01*
X129538361Y-54835847D01*
X129490742Y-54883466D01*
X129395504Y-54931085D01*
X129300266Y-54931085D01*
X129205028Y-54883466D01*
X129157409Y-54835847D01*
X129109790Y-54740609D01*
X129062171Y-54550133D01*
X129014552Y-54454895D01*
X128966933Y-54407276D01*
X128871695Y-54359657D01*
X128776457Y-54359657D01*
X128681219Y-54407276D01*
X128633600Y-54454895D01*
X128585980Y-54550133D01*
X128585980Y-54788228D01*
X128633600Y-54931085D01*
X129585980Y-55359657D02*
X128585980Y-55359657D01*
X128585980Y-55740609D01*
X128633600Y-55835847D01*
X128681219Y-55883466D01*
X128776457Y-55931085D01*
X128919314Y-55931085D01*
X129014552Y-55883466D01*
X129062171Y-55835847D01*
X129109790Y-55740609D01*
X129109790Y-55359657D01*
X128585980Y-56264419D02*
X128585980Y-56883466D01*
X128966933Y-56550133D01*
X128966933Y-56692990D01*
X129014552Y-56788228D01*
X129062171Y-56835847D01*
X129157409Y-56883466D01*
X129395504Y-56883466D01*
X129490742Y-56835847D01*
X129538361Y-56788228D01*
X129585980Y-56692990D01*
X129585980Y-56407276D01*
X129538361Y-56312038D01*
X129490742Y-56264419D01*
X128681219Y-57264419D02*
X128633600Y-57312038D01*
X128585980Y-57407276D01*
X128585980Y-57645371D01*
X128633600Y-57740609D01*
X128681219Y-57788228D01*
X128776457Y-57835847D01*
X128871695Y-57835847D01*
X129014552Y-57788228D01*
X129585980Y-57216800D01*
X129585980Y-57835847D01*
X129538361Y-58216800D02*
X129585980Y-58359657D01*
X129585980Y-58597752D01*
X129538361Y-58692990D01*
X129490742Y-58740609D01*
X129395504Y-58788228D01*
X129300266Y-58788228D01*
X129205028Y-58740609D01*
X129157409Y-58692990D01*
X129109790Y-58597752D01*
X129062171Y-58407276D01*
X129014552Y-58312038D01*
X128966933Y-58264419D01*
X128871695Y-58216800D01*
X128776457Y-58216800D01*
X128681219Y-58264419D01*
X128633600Y-58312038D01*
X128585980Y-58407276D01*
X128585980Y-58645371D01*
X128633600Y-58788228D01*
X128681219Y-59169180D02*
X128633600Y-59216800D01*
X128585980Y-59312038D01*
X128585980Y-59550133D01*
X128633600Y-59645371D01*
X128681219Y-59692990D01*
X128776457Y-59740609D01*
X128871695Y-59740609D01*
X129014552Y-59692990D01*
X129585980Y-59121561D01*
X129585980Y-59740609D01*
X129205028Y-60169180D02*
X129205028Y-60931085D01*
X129585980Y-61407276D02*
X128585980Y-61407276D01*
X129585980Y-61978704D02*
X129014552Y-61550133D01*
X128585980Y-61978704D02*
X129157409Y-61407276D01*
X129062171Y-62740609D02*
X129109790Y-62883466D01*
X129157409Y-62931085D01*
X129252647Y-62978704D01*
X129395504Y-62978704D01*
X129490742Y-62931085D01*
X129538361Y-62883466D01*
X129585980Y-62788228D01*
X129585980Y-62407276D01*
X128585980Y-62407276D01*
X128585980Y-62740609D01*
X128633600Y-62835847D01*
X128681219Y-62883466D01*
X128776457Y-62931085D01*
X128871695Y-62931085D01*
X128966933Y-62883466D01*
X129014552Y-62835847D01*
X129062171Y-62740609D01*
X129062171Y-62407276D01*
X151757071Y-76623871D02*
X151614214Y-76671490D01*
X151566595Y-76719109D01*
X151518976Y-76814347D01*
X151518976Y-76957204D01*
X151566595Y-77052442D01*
X151614214Y-77100061D01*
X151709452Y-77147680D01*
X152090404Y-77147680D01*
X152090404Y-76147680D01*
X151757071Y-76147680D01*
X151661833Y-76195300D01*
X151614214Y-76242919D01*
X151566595Y-76338157D01*
X151566595Y-76433395D01*
X151614214Y-76528633D01*
X151661833Y-76576252D01*
X151757071Y-76623871D01*
X152090404Y-76623871D01*
X147518476Y-77084180D02*
X147851809Y-76607990D01*
X148089904Y-77084180D02*
X148089904Y-76084180D01*
X147708952Y-76084180D01*
X147613714Y-76131800D01*
X147566095Y-76179419D01*
X147518476Y-76274657D01*
X147518476Y-76417514D01*
X147566095Y-76512752D01*
X147613714Y-76560371D01*
X147708952Y-76607990D01*
X148089904Y-76607990D01*
D12*
X128432000Y-42322000D02*
X128432000Y-43022000D01*
X129632000Y-43022000D02*
X129632000Y-42322000D01*
X129712000Y-48327500D02*
X129712000Y-47327500D01*
X128352000Y-47327500D02*
X128352000Y-48327500D01*
X150492000Y-75208400D02*
X150792000Y-75208400D01*
X150492000Y-71908400D02*
X150492000Y-75208400D01*
X150792000Y-71908400D02*
X150492000Y-71908400D01*
X153292000Y-75208400D02*
X152992000Y-75208400D01*
X153292000Y-71908400D02*
X153292000Y-75208400D01*
X152992000Y-71908400D02*
X153292000Y-71908400D01*
X148928000Y-71908400D02*
X149228000Y-71908400D01*
X149228000Y-71908400D02*
X149228000Y-75208400D01*
X149228000Y-75208400D02*
X148928000Y-75208400D01*
X146728000Y-71908400D02*
X146428000Y-71908400D01*
X146428000Y-71908400D02*
X146428000Y-75208400D01*
X146428000Y-75208400D02*
X146728000Y-75208400D01*
X149160000Y-33876000D02*
X149160000Y-40626000D01*
X149160000Y-64876000D02*
X131160000Y-64876000D01*
X131160000Y-40626000D02*
X131160000Y-33876000D01*
X131160000Y-33876000D02*
X149160000Y-33876000D01*
X149160000Y-64626000D02*
X149160000Y-64876000D01*
X131160000Y-64626000D02*
X131160000Y-64876000D01*
X131160000Y-40186000D02*
X149160000Y-40206000D01*
X133990000Y-71329500D02*
X133990000Y-72589500D01*
X133990000Y-78149500D02*
X133990000Y-76889500D01*
X130230000Y-71329500D02*
X133990000Y-71329500D01*
X127980000Y-78149500D02*
X133990000Y-78149500D01*
X147391000Y-79369200D02*
X148391000Y-79369200D01*
X148391000Y-78009200D02*
X147391000Y-78009200D01*
X151540000Y-78009200D02*
X150540000Y-78009200D01*
X150540000Y-79369200D02*
X151540000Y-79369200D01*
D11*
X140868000Y-65853200D02*
X145068000Y-65853200D01*
X136668000Y-65853200D02*
X140868000Y-65853200D01*
X145068000Y-65853200D02*
X145068000Y-74253200D01*
X138818000Y-74253200D02*
X136668000Y-72503200D01*
X145068000Y-74253200D02*
X138818000Y-74253200D01*
X136668000Y-65853200D02*
X136668000Y-72503200D01*
X129452642Y-45108833D02*
X129500261Y-45061214D01*
X129547880Y-44918357D01*
X129547880Y-44823119D01*
X129500261Y-44680261D01*
X129405023Y-44585023D01*
X129309785Y-44537404D01*
X129119309Y-44489785D01*
X128976452Y-44489785D01*
X128785976Y-44537404D01*
X128690738Y-44585023D01*
X128595500Y-44680261D01*
X128547880Y-44823119D01*
X128547880Y-44918357D01*
X128595500Y-45061214D01*
X128643119Y-45108833D01*
X128547880Y-46013595D02*
X128547880Y-45537404D01*
X129024071Y-45489785D01*
X128976452Y-45537404D01*
X128928833Y-45632642D01*
X128928833Y-45870738D01*
X128976452Y-45965976D01*
X129024071Y-46013595D01*
X129119309Y-46061214D01*
X129357404Y-46061214D01*
X129452642Y-46013595D01*
X129500261Y-45965976D01*
X129547880Y-45870738D01*
X129547880Y-45632642D01*
X129500261Y-45537404D01*
X129452642Y-45489785D01*
X129547880Y-49934833D02*
X129071690Y-49601500D01*
X129547880Y-49363404D02*
X128547880Y-49363404D01*
X128547880Y-49744357D01*
X128595500Y-49839595D01*
X128643119Y-49887214D01*
X128738357Y-49934833D01*
X128881214Y-49934833D01*
X128976452Y-49887214D01*
X129024071Y-49839595D01*
X129071690Y-49744357D01*
X129071690Y-49363404D01*
X128547880Y-50791976D02*
X128547880Y-50601500D01*
X128595500Y-50506261D01*
X128643119Y-50458642D01*
X128785976Y-50363404D01*
X128976452Y-50315785D01*
X129357404Y-50315785D01*
X129452642Y-50363404D01*
X129500261Y-50411023D01*
X129547880Y-50506261D01*
X129547880Y-50696738D01*
X129500261Y-50791976D01*
X129452642Y-50839595D01*
X129357404Y-50887214D01*
X129119309Y-50887214D01*
X129024071Y-50839595D01*
X128976452Y-50791976D01*
X128928833Y-50696738D01*
X128928833Y-50506261D01*
X128976452Y-50411023D01*
X129024071Y-50363404D01*
X129119309Y-50315785D01*
X137887404Y-47331380D02*
X137887404Y-48140904D01*
X137839785Y-48236142D01*
X137792166Y-48283761D01*
X137696928Y-48331380D01*
X137506452Y-48331380D01*
X137411214Y-48283761D01*
X137363595Y-48236142D01*
X137315976Y-48140904D01*
X137315976Y-47331380D01*
X136887404Y-47426619D02*
X136839785Y-47379000D01*
X136744547Y-47331380D01*
X136506452Y-47331380D01*
X136411214Y-47379000D01*
X136363595Y-47426619D01*
X136315976Y-47521857D01*
X136315976Y-47617095D01*
X136363595Y-47759952D01*
X136935023Y-48331380D01*
X136315976Y-48331380D01*
X147096285Y-41821380D02*
X147667714Y-41821380D01*
X147382000Y-41821380D02*
X147382000Y-40821380D01*
X147477238Y-40964238D01*
X147572476Y-41059476D01*
X147667714Y-41107095D01*
X147064476Y-63665380D02*
X147635904Y-63665380D01*
X147350190Y-63665380D02*
X147350190Y-62665380D01*
X147445428Y-62808238D01*
X147540666Y-62903476D01*
X147635904Y-62951095D01*
X146731142Y-62665380D02*
X146064476Y-62665380D01*
X146493047Y-63665380D01*
X134173904Y-62760619D02*
X134126285Y-62713000D01*
X134031047Y-62665380D01*
X133792952Y-62665380D01*
X133697714Y-62713000D01*
X133650095Y-62760619D01*
X133602476Y-62855857D01*
X133602476Y-62951095D01*
X133650095Y-63093952D01*
X134221523Y-63665380D01*
X133602476Y-63665380D01*
X132745333Y-62665380D02*
X132935809Y-62665380D01*
X133031047Y-62713000D01*
X133078666Y-62760619D01*
X133173904Y-62903476D01*
X133221523Y-63093952D01*
X133221523Y-63474904D01*
X133173904Y-63570142D01*
X133126285Y-63617761D01*
X133031047Y-63665380D01*
X132840571Y-63665380D01*
X132745333Y-63617761D01*
X132697714Y-63570142D01*
X132650095Y-63474904D01*
X132650095Y-63236809D01*
X132697714Y-63141571D01*
X132745333Y-63093952D01*
X132840571Y-63046333D01*
X133031047Y-63046333D01*
X133126285Y-63093952D01*
X133173904Y-63141571D01*
X133221523Y-63236809D01*
X133697714Y-41154714D02*
X133697714Y-41821380D01*
X133935809Y-40773761D02*
X134173904Y-41488047D01*
X133554857Y-41488047D01*
X133221523Y-40916619D02*
X133173904Y-40869000D01*
X133078666Y-40821380D01*
X132840571Y-40821380D01*
X132745333Y-40869000D01*
X132697714Y-40916619D01*
X132650095Y-41011857D01*
X132650095Y-41107095D01*
X132697714Y-41249952D01*
X133269142Y-41821380D01*
X132650095Y-41821380D01*
X146120380Y-49857066D02*
X146834666Y-49857066D01*
X146977523Y-49809447D01*
X147072761Y-49714209D01*
X147120380Y-49571352D01*
X147120380Y-49476114D01*
X146215619Y-50285638D02*
X146168000Y-50333257D01*
X146120380Y-50428495D01*
X146120380Y-50666590D01*
X146168000Y-50761828D01*
X146215619Y-50809447D01*
X146310857Y-50857066D01*
X146406095Y-50857066D01*
X146548952Y-50809447D01*
X147120380Y-50238019D01*
X147120380Y-50857066D01*
X145496219Y-78703466D02*
X145972409Y-79036800D01*
X145496219Y-79274895D02*
X146496219Y-79274895D01*
X146496219Y-78893942D01*
X146448600Y-78798704D01*
X146400980Y-78751085D01*
X146305742Y-78703466D01*
X146162885Y-78703466D01*
X146067647Y-78751085D01*
X146020028Y-78798704D01*
X145972409Y-78893942D01*
X145972409Y-79274895D01*
X145496219Y-77751085D02*
X145496219Y-78322514D01*
X145496219Y-78036800D02*
X146496219Y-78036800D01*
X146353361Y-78132038D01*
X146258123Y-78227276D01*
X146210504Y-78322514D01*
X152506019Y-78906666D02*
X152982209Y-79240000D01*
X152506019Y-79478095D02*
X153506019Y-79478095D01*
X153506019Y-79097142D01*
X153458400Y-79001904D01*
X153410780Y-78954285D01*
X153315542Y-78906666D01*
X153172685Y-78906666D01*
X153077447Y-78954285D01*
X153029828Y-79001904D01*
X152982209Y-79097142D01*
X152982209Y-79478095D01*
X153410780Y-78525714D02*
X153458400Y-78478095D01*
X153506019Y-78382857D01*
X153506019Y-78144761D01*
X153458400Y-78049523D01*
X153410780Y-78001904D01*
X153315542Y-77954285D01*
X153220304Y-77954285D01*
X153077447Y-78001904D01*
X152506019Y-78573333D01*
X152506019Y-77954285D01*
X142015771Y-67699047D02*
X142063390Y-67841904D01*
X142111009Y-67889523D01*
X142206247Y-67937142D01*
X142349104Y-67937142D01*
X142444342Y-67889523D01*
X142491961Y-67841904D01*
X142539580Y-67746666D01*
X142539580Y-67365714D01*
X141539580Y-67365714D01*
X141539580Y-67699047D01*
X141587200Y-67794285D01*
X141634819Y-67841904D01*
X141730057Y-67889523D01*
X141825295Y-67889523D01*
X141920533Y-67841904D01*
X141968152Y-67794285D01*
X142015771Y-67699047D01*
X142015771Y-67365714D01*
X141539580Y-68270476D02*
X141539580Y-68937142D01*
X142539580Y-68270476D01*
X142539580Y-68937142D01*
X142539580Y-69841904D02*
X142539580Y-69270476D01*
X142539580Y-69556190D02*
X141539580Y-69556190D01*
X141682438Y-69460952D01*
X141777676Y-69365714D01*
X141825295Y-69270476D01*
X144339428Y-66472247D02*
X144339428Y-67234152D01*
X144720380Y-66853200D02*
X143958476Y-66853200D01*
M02*
